{
.appVersion = "3133";
.formatVersion = 3;
DisplayStrings = (
C
);
axes = (
{
name = Weight;
tag = wght;
},
{
name = Italic;
tag = ital;
}
);
date = "2021-01-03 15:06:52 +0000";
familyName = "Harley Grotesk";
featurePrefixes = (
{
automatic = 1;
code = "languagesystem DFLT dflt;

languagesystem latn dflt;
";
name = Languagesystems;
}
);
features = (
{
automatic = 1;
code = "feature dnom;
";
tag = aalt;
},
{
automatic = 1;
code = "lookup ccmp_latn_1 {
	sub fi by f i;
	sub fl by f l;
} ccmp_latn_1;

script latn;
lookup ccmp_latn_1;
";
tag = ccmp;
},
{
automatic = 1;
code = "sub zero by zero.dnom;
sub one by one.dnom;
sub two by two.dnom;
sub three by three.dnom;
sub four by four.dnom;
sub five by five.dnom;
sub six by six.dnom;
sub seven by seven.dnom;
sub eight by eight.dnom;
sub nine by nine.dnom;
";
tag = dnom;
},
{
automatic = 1;
code = "lookupflag IgnoreMarks;
sub W W W by W_W_W;
sub f f j by f_f_j;
sub f f t by f_f_t;
sub w w w by w_w_w;
sub W W by W_W;
sub f j by f_j;
sub f t by f_t;
sub r t by r_t;
sub t t by t_t;
sub w w by w_w;
";
tag = dlig;
},
{
automatic = 1;
code = "lookupflag IgnoreMarks;
sub f f i by f_f_i;
sub f f l by f_f_l;
sub f f by f_f;
sub f i by fi;
sub f l by fl;
";
tag = liga;
}
);
fontMaster = (
{
axesValues = (
100,
0
);
guides = (
{
locked = 1;
name = "Small Fig Bottom";
pos = (362,150);
},
{
locked = 1;
name = "Small Fig Top";
pos = (334,550);
},
{
angle = 180;
locked = 1;
name = "Small Fig Overshoot";
pos = (423,144);
},
{
locked = 1;
name = "Small Fig Overshoot";
pos = (418,555);
},
{
locked = 1;
pos = (71,-7);
},
{
locked = 1;
pos = (-2,507);
},
{
locked = 1;
pos = (-3,707);
}
);
iconName = Light;
id = "18A01495-E50D-4F2B-A1D8-5C332C731D93";
metricValues = (
{
pos = 800;
},
{
over = 10;
pos = 700;
},
{
over = 10;
pos = 500;
},
{
over = -10;
},
{
over = -10;
pos = -200;
},
{
}
);
name = Thin;
userData = {
GSCornerRadius = 150;
GSOffsetHorizontal = 5;
GSOffsetVertical = 5;
};
},
{
axesValues = (
100,
100
);
guides = (
{
locked = 1;

glyphs = (
{
color = 5;
glyphname = A;
kernLeft = A;
kernRight = A;
lastChange = "2022-05-29 18:57:48 +0000";
layers = (
{
anchors = (
{
name = bottom;
pos = (350,0);
},
{
name = ogonek;
pos = (630,10);
},
{
name = top;
pos = (350,700);
}
);
background = {
shapes = (
{
closed = 1;
nodes = (
(107,0,l),
(183,192,l),
(518,192,l),
(595,0,l),
(685,0,l),
(402,700,l),
(299,700,l),
(17,0,l)
);
},
{
closed = 1;
nodes = (
(349,611,l),
(486,270,l),
(214,270,l)
);
}
);
};
layerId = "30E869CF-9A31-4D47-9626-61B8364FC2DA";
shapes = (
{
closed = 1;
nodes = (
(107,0,l),
(183,192,l),
(518,192,l),
(595,0,l),
(685,0,l),
(402,700,l),
(299,700,l),
(17,0,l)
);
},
{
closed = 1;
nodes = (
(349,611,l),
(486,270,l),
(214,270,l)
);
}
);
width = 700;
},
{
anchors = (
{
name = bottom;
pos = (340,0);
},
{
name = ogonek;
pos = (611,10);
},
{
name = top;
pos = (340,700);
}
);
background = {
shapes = (
{
closed = 1;
nodes = (
(67,0,l),
(160,223,l),
(518,223,l),
(612,0,l),
(657,0,l),
(363,700,l),
(315,700,l),
(22,0,l)
);
},
{
closed = 1;
nodes = (
(338,651,l),
(502,262,l),
(176,262,l)
);
}
);
};
layerId = "18A01495-E50D-4F2B-A1D8-5C332C731D93";
shapes = (
{
closed = 1;
nodes = (
(67,0,l),
(160,223,l),
(518,223,l),
(612,0,l),
(657,0,l),
(363,700,l),
(315,700,l),
(22,0,l)
);
},
{
closed = 1;
nodes = (
(338,651,l),
(502,262,l),
(176,262,l)
);
}
);
width = 679;
},
{
anchors = (
{
name = bottom;
pos = (286,0);
},
{
name = ogonek;
pos = (556,10);
},
{
name = top;
pos = (422,700);
}
);
background = {
shapes = (
{
closed = 1;
nodes = (
(14,0,l),
(148,223,l),
(498,223,l),
(546,0,l),
(589,0,l),
(437,700,l),
(390,700,l),
(-34,0,l)
);
},
{
closed = 1;
nodes = (
(407,652,l),
(489,262,l),
(172,262,l)
);
}
);
};
layerId = "047DE625-588D-43A1-AE3A-C97924B5E3D3";
shapes = (
{
closed = 1;
nodes = (
(14,0,l),
(148,223,l),
(498,223,l),
(546,0,l),
(589,0,l),
(437,700,l),
(390,700,l),
(-34,0,l)
);
},
{
closed = 1;
nodes = (
(407,652,l),
(489,262,l),
(172,262,l)
);
}
);
width = 670;
},
{
anchors = (
{
name = bottom;
pos = (295,0);
},
{
name = ogonek;
pos = (572,10);
},
{
name = top;
pos = (431,700);
}
);
background = {
shapes = (
{
closed = 1;
nodes = (
(50,0,l),
(163,195,l),
(489,195,l),
(527,0,l),
(612,0,l),
(469,700,l),
(373,700,l),
(-41,0,l)
);
},
{
closed = 1;
nodes = (
(407,617,l),
(475,268,l),
(206,268,l)
);
}
);
};
layerId = "AB33B01D-3E13-404E-935A-045AA6D07EB8";
shapes = (
{
closed = 1;
nodes = (
(50,0,l),
(163,195,l),
(489,195,l),
(527,0,l),
(612,0,l),
(469,700,l),
(373,700,l),
(-41,0,l)
);
},
{
closed = 1;
nodes = (
(407,617,l),
(475,268,l),
(206,268,l)
);
}
);
width = 688;
},
{
anchors = (
{
name = bottom;
pos = (382,0);
},
{
name = ogonek;
pos = (687,10);
},
{
name = top;
pos = (382,700);
}
);
background = {
shapes = (
{
closed = 1;
nodes = (
(206,0,l),
(245,123,l),
(512,123,l),
(552,0,l),
(754,0,l),
(504,700,l),
(259,700,l),
(9,0,l)
);
},
{
closed = 1;
nodes = (
(379,539,l),
(463,273,l),
(294,273,l)
);
}
);
};
layerId = "9D32FE6F-9470-45EF-9689-909A6F5CE504";
shapes = (
{
closed = 1;
nodes = (
(206,0,l),
(245,123,l),
(512,123,l),
(552,0,l),
(754,0,l),
(504,700,l),
(259,700,l),
(9,0,l)
);
},
{
closed = 1;
nodes = (
(379,539,l),
(463,273,l),
(294,273,l)
);
}
);
width = 763;
},
{
anchors = (
{
name = bottom;
pos = (327,0);
},
{
name = ogonek;
pos = (630,10);
},
{
name = top;
pos = (463,700);
}
);
background = {
shapes = (
{
closed = 1;
nodes = (
(155,0,l),
(218,123,l),
(479,123,l),
(494,0,l),
(684,0,l),
(574,700,l),
(332,700,l),
(-49,0,l)
);
},
{
closed = 1;
nodes = (
(428,539,l),
(461,272,l),
(294,272,l)
);
}
);
};
layerId = "69B5B248-E33C-46C9-9D9F-11585640C213";
shapes = (
{
closed = 1;
nodes = (
(155,0,l),
(218,123,l),
(479,123,l),
(494,0,l),
(684,0,l),
(574,700,l),
(332,700,l),
(-49,0,l)
);
},
{
closed = 1;
nodes = (
(428,539,l),
(461,272,l),
(294,272,l)
);
}
);
width = 752;
}
);
note = A;
unicode = 65;
},
{
color = 5;
glyphname = B;
lastChange = "2022-05-29 18:57:48 +0000";
layers = (
{
anchors = (
{
name = bottom;
pos = (336,0);
},
{
name = center;
pos = (336,350);
},
{
name = top;
pos = (336,700);
}
);
background = {
shapes = (
{
closed = 1;
nodes = (
(378,0,ls),
(528,0,o),
(618,71,o),
(618,196,cs),
(618,286,o),
(562,349,o),
(490,365,c),
(552,386,o),
(593,444,o),
(593,514,cs),
(593,636,o),
(507,700,o),
(365,700,cs),
(88,700,l),
(88,0,l)
);
},
{
closed = 1;
nodes = (
(178,319,l),
(374,319,ls),
(466,319,o),
(526,285,o),
(526,199,cs),
(526,117,o),
(466,80,o),
(373,80,cs),
(178,80,l)
);
},
{
closed = 1;
nodes = (
(178,620,l),
(362,620,ls),
(446,620,o),
(501,586,o),
(501,509,cs),
(501,433,o),
(448,399,o),
(362,399,cs),
(178,399,l)
);
}
);
};
layerId = "30E869CF-9A31-4D47-9626-61B8364FC2DA";
shapes = (
{
closed = 1;
nodes = (
(378,0,ls),
(528,0,o),
(618,71,o),
(618,196,cs),
(618,286,o),
(562,349,o),
(490,365,c),
(552,386,o),
(593,444,o),
(593,514,cs),
(593,636,o),
(507,700,o),
(365,700,cs),
(88,700,l),
(88,0,l)
);
},
{
closed = 1;
nodes = (
(178,319,l),
(374,319,ls),
(466,319,o),
(526,285,o),
(526,199,cs),
(526,117,o),
(466,80,o),
(373,80,cs),
(178,80,l)
);
},
{
closed = 1;
nodes = (
(178,620,l),
(362,620,ls),
(446,620,o),
(501,586,o),
(501,509,cs),
(501,433,o),
(448,399,o),
(362,399,cs),
(178,399,l)
);
}
);
width = 672;
},
{
anchors = (
{
name = bottom;
pos = (327,0);
},
{
name = center;
pos = (327,350);
},
{
name = top;
pos = (327,700);
}
);
background = {
shapes = (
{
closed = 1;
nodes = (
(361,0,ls),
(504,0,o),
(593,68,o),
(593,189,cs),
(593,282,o),
(533,351,o),
(446,366,c),
(519,386,o),
(565,447,o),
(565,524,cs),
(565,642,o),
(479,700,o),
(350,700,cs),
(96,700,l),
(96,0,l)
);
},
{
closed = 1;
nodes = (
(141,342,l),
(359,342,ls),
(469,342,o),
(548,289,o),
(548,190,cs),
(548,89,o),
(471,39,o),
(359,39,cs),
(141,39,l)
);
},
{
closed = 1;
nodes = (
(141,661,l),
(347,661,ls),
(448,661,o),
(520,616,o),
(520,523,cs),
(520,431,o),
(450,382,o),
(347,382,cs),
(141,382,l)
);
}
);
};
layerId = "18A01495-E50D-4F2B-A1D8-5C332C731D93";
shapes = (
{
closed = 1;
nodes = (
(361,0,ls),
(504,0,o),
(593,68,o),
(593,189,cs),
(593,282,o),
(533,351,o),
(446,366,c),
(519,386,o),
(565,447,o),
(565,524,cs),
(565,642,o),
(479,700,o),
(350,700,cs),
(96,700,l),
(96,0,l)
);
},
{
closed = 1;
nodes = (
(141,342,l),
(359,342,ls),
(469,342,o),
(548,289,o),
(548,190,cs),
(548,89,o),
(471,39,o),
(359,39,cs),
(141,39,l)
);
},
{
closed = 1;
nodes = (
(141,661,l),
(347,661,ls),
(448,661,o),
(520,616,o),
(520,523,cs),
(520,431,o),
(450,382,o),
(347,382,cs),
(141,382,l)
);
}
);
width = 653;
},
{
anchors = (
{
name = bottom;
pos = (271,0);
},
{
name = center;
pos = (339,350);
},
{
name = top;
pos = (407,700);
}
);
background = {
shapes = (
{
closed = 1;
nodes = (
(298,0,ls),
(453,0,o),
(560,78,o),
(560,214,cs),
(560,295,o),
(508,348,o),
(450,359,c),
(543,383,o),
(599,457,o),
(599,547,cs),
(599,644,o),
(529,699,o),
(406,699,cs),
(173,699,l),
(37,0,l)
);
},
{
closed = 1;
nodes = (
(145,341,l),
(356,341,ls),
(451,341,o),
(517,299,o),
(517,215,cs),
(517,104,o),
(427,39,o),
(304,39,cs),
(87,39,l)
);
},
{
closed = 1;
nodes = (
(207,661,l),
(407,661,ls),
(498,661,o),
(556,623,o),
(556,544,cs),
(556,437,o),
(471,380,o),
(365,380,cs),
(153,380,l)
);
}
);
};
layerId = "047DE625-588D-43A1-AE3A-C97924B5E3D3";
shapes = (
{
closed = 1;
nodes = (
(298,0,ls),
(453,0,o),
(560,78,o),
(560,214,cs),
(560,295,o),
(508,348,o),
(450,359,c),
(543,383,o),
(599,457,o),
(599,547,cs),
(599,644,o),
(529,699,o),
(406,699,cs),
(173,699,l),
(37,0,l)
);
},
{
closed = 1;
nodes = (
(145,341,l),
(356,341,ls),
(451,341,o),
(517,299,o),
(517,215,cs),
(517,104,o),
(427,39,o),
(304,39,cs),
(87,39,l)
);
},
{
closed = 1;
nodes = (
(207,661,l),
(407,661,ls),
(498,661,o),
(556,623,o),
(556,544,cs),
(556,437,o),
(471,380,o),
(365,380,cs),
(153,380,l)
);
}
);
width = 639;
},
{
anchors = (
{
name = bottom;
pos = (281,0);
},
{
name = center;
pos = (349,350);
},
{
name = top;
pos = (417,700);
}
);
background = {
shapes = (
{
closed = 1;
nodes = (
(314,0,ls),
(470,0,o),
(586,82,o),
(586,222,cs),
(586,295,o),
(545,344,o),
(487,357,c),
(568,384,o),
(623,453,o),
(623,540,cs),
(623,640,o),
(549,700,o),
(425,700,cs),
(165,700,l),
(29,0,l)
);
},
{
closed = 1;
nodes = (
(176,323,l),
(367,323,ls),
(448,323,o),
(500,292,o),
(500,220,cs),
(500,125,o),
(426,72,o),
(322,72,cs),
(127,72,l)
);
},
{
closed = 1;
nodes = (
(234,628,l),
(415,628,ls),
(490,628,o),
(537,600,o),
(537,530,cs),
(537,442,o),
(466,394,o),
(374,394,cs),
(190,394,l)
);
}
);
};
layerId = "AB33B01D-3E13-404E-935A-045AA6D07EB8";
shapes = (
{
closed = 1;
nodes = (
(314,0,ls),
(470,0,o),
(586,82,o),
(586,222,cs),
(586,295,o),
(545,344,o),
(487,357,c),
(568,384,o),
(623,453,o),
(623,540,cs),
(623,640,o),
(549,700,o),
(425,700,cs),
(165,700,l),
(29,0,l)
);
},
{
closed = 1;
nodes = (
(176,323,l),
(367,323,ls),
(448,323,o),
(500,292,o),
(500,220,cs),
(500,125,o),
(426,72,o),
(322,72,cs),
(127,72,l)
);
},
{
closed = 1;
nodes = (
(234,628,l),
(415,628,ls),
(490,628,o),
(537,600,o),
(537,530,cs),
(537,442,o),
(466,394,o),
(374,394,cs),
(190,394,l)
);
}
);
width = 659;
},
{
anchors = (
{
name = bottom;
pos = (350,0);
},
{
name = center;
pos = (350,350);
},
{
name = top;
pos = (350,700);
}
);
background = {
shapes = (
{
closed = 1;
nodes = (
(401,0,ls),
(560,0,o),
(665,66,o),
(665,199,cs),
(665,281,o),
(618,338,o),
(546,362,c),
(604,386,o),
(647,438,o),
(647,518,cs),
(647,633,o),
(564,700,o),
(410,700,cs),
(65,700,l),
(65,0,l)
);
},
{
closed = 1;
nodes = (
(254,290,l),
(373,290,ls),
(435,290,o),
(471,266,o),
(471,215,cs),
(471,164,o),
(435,141,o),
(372,141,cs),
(254,141,l)
);
},
{
closed = 1;
nodes = (
(254,560,l),
(363,560,ls),
(422,560,o),
(454,537,o),
(454,490,cs),
(454,439,o),
(422,417,o),
(363,417,cs),
(254,417,l)
);
}
);
};
layerId = "9D32FE6F-9470-45EF-9689-909A6F5CE504";
shapes = (
{
closed = 1;
nodes = (
(401,0,ls),
(560,0,o),
(665,66,o),
(665,199,cs),
(665,281,o),
(618,338,o),
(546,362,c),
(604,386,o),
(647,438,o),
(647,518,cs),
(647,633,o),
(564,700,o),
(410,700,cs),
(65,700,l),
(65,0,l)
);
},
{
closed = 1;
nodes = (
(254,290,l),
(373,290,ls),
(435,290,o),
(471,266,o),
(471,215,cs),
(471,164,o),
(435,141,o),
(372,141,cs),
(254,141,l)
);
},
{
closed = 1;
nodes = (
(254,560,l),
(363,560,ls),
(422,560,o),
(454,537,o),
(454,490,cs),
(454,439,o),
(422,417,o),
(363,417,cs),
(254,417,l)
);
}
);
width = 700;
},
{
anchors = (
{
name = bottom;
pos = (297,0);
},
{
name = center;
pos = (365,350);
},
{
name = top;
pos = (433,700);
}
);
background = {
shapes = (
{
closed = 1;
nodes = (
(340,0,ls),
(483,0,o),
(638,64,o),
(638,222,cs),
(638,288,o),
(605,333,o),
(548,353,c),
(624,380,o),
(674,447,o),
(674,533,cs),
(674,633,o),
(595,697,o),
(462,697,cs),
(140,697,l),
(5,0,l)
);
},
{
closed = 1;
nodes = (
(249,290,l),
(369,290,ls),
(416,290,o),
(448,274,o),
(448,228,cs),
(448,173,o),
(404,141,o),
(342,141,cs),
(220,141,l)
);
},
{
closed = 1;
nodes = (
(301,557,l),
(411,557,ls),
(457,557,o),
(484,539,o),
(484,498,cs),
(484,448,o),
(444,417,o),
(387,417,cs),
(274,417,l)
);
}
);
};
layerId = "69B5B248-E33C-46C9-9D9F-11585640C213";
shapes = (
{
closed = 1;
nodes = (
(340,0,ls),
(483,0,o),
(638,64,o),
(638,222,cs),
(638,288,o),
(605,333,o),
(548,353,c),
(624,380,o),
(674,447,o),
(674,533,cs),
(674,633,o),
(595,697,o),
(462,697,cs),
(140,697,l),
(5,0,l)
);
},
{
closed = 1;
nodes = (
(249,290,l),
(369,290,ls),
(416,290,o),
(448,274,o),
(448,228,cs),
(448,173,o),
(404,141,o),
(342,141,cs),
(220,141,l)
);
},
{
closed = 1;
nodes = (
(301,557,l),
(411,557,ls),
(457,557,o),
(484,539,o),
(484,498,cs),
(484,448,o),
(444,417,o),
(387,417,cs),
(274,417,l)
);
}
);
width = 692;
}
);
note = B;
unicode = 66;
},
{
color = 5;
glyphname = C;
kernLeft = C;
kernRight = C;
lastChange = "2022-11-22 11:53:12 +0000";
layers = (
{
anchors = (
{
name = bottom;
pos = (364,0);
},
{
name = top;
pos = (364,700);
}
);
background = {
shapes = (
{
closed = 1;
nodes = (
(538,-10,o),
(657,84,o),
(682,231,c),
(589,231,l),
(564,130,o),
(483,70,o),
(380,70,cs),
(238,70,o),
(138,187,o),
(138,351,cs),
(138,514,o),
(236,630,o),
(380,630,cs),
(482,630,o),
(566,571,o),
(589,470,c),
(682,470,l),
(660,616,o),
(537,710,o),
(380,710,cs),
(187,710,o),
(48,561,o),
(48,351,cs),
(48,141,o),
(184,-10,o),
(380,-10,cs)
);
}
);
};
layerId = "30E869CF-9A31-4D47-9626-61B8364FC2DA";
shapes = (
{
closed = 1;
nodes = (
(538,-10,o),
(657,84,o),
(682,231,c),
(589,231,l),
(564,130,o),
(483,70,o),
(380,70,cs),
(238,70,o),
(138,187,o),
(138,351,cs),
(138,514,o),
(236,630,o),
(380,630,cs),
(482,630,o),
(566,571,o),
(589,470,c),
(682,470,l),
(660,616,o),
(537,710,o),
(380,710,cs),
(187,710,o),
(48,561,o),
(48,351,cs),
(48,141,o),
(184,-10,o),
(380,-10,cs)
);
}
);
width = 727;
},
{
anchors = (
{
name = bottom;
pos = (356,0);
},
{
name = top;
pos = (356,700);
}
);
background = {
shapes = (
{
closed = 1;
nodes = (
(522,-10,o),
(631,85,o),
(662,221,c),
(617,221,l),
(586,101,o),
(488,30,o),
(374,30,cs),
(217,30,o),
(97,163,o),
(97,350,cs),
(97,538,o),
(216,670,o),
(374,670,cs),
(488,670,o),
(589,599,o),
(617,480,c),
(662,480,l),
(636,614,o),
(523,710,o),
(374,710,cs),
(188,710,o),
(52,559,o),
(52,350,cs),
(52,143,o),
(186,-10,o),
(374,-10,cs)
);
}
);
};
layerId = "18A01495-E50D-4F2B-A1D8-5C332C731D93";
shapes = (
{
closed = 1;
nodes = (
(522,-10,o),
(631,85,o),
(662,221,c),
(617,221,l),
(586,101,o),
(488,30,o),
(374,30,cs),
(217,30,o),
(97,163,o),
(97,350,cs),
(97,538,o),
(216,670,o),
(374,670,cs),
(488,670,o),
(589,599,o),
(617,480,c),
(662,480,l),
(636,614,o),
(523,710,o),
(374,710,cs),
(188,710,o),
(52,559,o),
(52,350,cs),
(52,143,o),
(186,-10,o),
(374,-10,cs)
);
}
);
width = 711;
},
{
anchors = (
{
name = bottom;
pos = (301,0);
},
{
name = top;
pos = (437,700);
}
);
background = {
shapes = (
{
closed = 1;
nodes = (
(476,-10,o),
(593,84,o),
(634,222,c),
(589,222,l),
(551,103,o),
(448,30,o),
(333,30,cs),
(194,30,o),
(102,142,o),
(102,291,cs),
(102,489,o),
(238,670,o),
(424,670,cs),
(541,670,o),
(630,598,o),
(638,480,c),
(682,480,l),
(675,620,o),
(567,710,o),
(429,710,cs),
(215,710,o),
(58,517,o),
(58,289,cs),
(58,118,o),
(169,-10,o),
(330,-10,cs)
);
}
);
};
layerId = "047DE625-588D-43A1-AE3A-C97924B5E3D3";
shapes = (
{
closed = 1;
nodes = (
(476,-10,o),
(593,84,o),
(634,222,c),
(589,222,l),
(551,103,o),
(448,30,o),
(333,30,cs),
(194,30,o),
(102,142,o),
(102,291,cs),
(102,489,o),
(238,670,o),
(424,670,cs),
(541,670,o),
(630,598,o),
(638,480,c),
(682,480,l),
(675,620,o),
(567,710,o),
(429,710,cs),
(215,710,o),
(58,517,o),
(58,289,cs),
(58,118,o),
(169,-10,o),
(330,-10,cs)
);
}
);
width = 699;
},
{
anchors = (
{
name = bottom;
pos = (308,0);
},
{
name = top;
pos = (444,700);
}
);
background = {
shapes = (
{
closed = 1;
nodes = (
(488,-10,o),
(618,84,o),
(655,230,c),
(570,230,l),
(535,127,o),
(447,66,o),
(341,66,cs),
(222,66,o),
(141,160,o),
(141,294,cs),
(141,473,o),
(261,635,o),
(426,635,cs),
(527,635,o),
(605,574,o),
(615,471,c),
(701,471,l),
(697,613,o),
(584,710,o),
(435,710,cs),
(208,710,o),
(52,514,o),
(52,284,cs),
(52,115,o),
(170,-10,o),
(336,-10,cs)
);
}
);
};
layerId = "AB33B01D-3E13-404E-935A-045AA6D07EB8";
shapes = (
{
closed = 1;
nodes = (
(488,-10,o),
(618,84,o),
(655,230,c),
(570,230,l),
(535,127,o),
(447,66,o),
(341,66,cs),
(222,66,o),
(141,160,o),
(141,294,cs),
(141,473,o),
(261,635,o),
(426,635,cs),
(527,635,o),
(605,574,o),
(615,471,c),
(701,471,l),
(697,613,o),
(584,710,o),
(435,710,cs),
(208,710,o),
(52,514,o),
(52,284,cs),
(52,115,o),
(170,-10,o),
(336,-10,cs)
);
}
);
width = 714;
},
{
anchors = (
{
name = bottom;
pos = (380,0);
},
{
name = top;
pos = (380,700);
}
);
background = {
shapes = (
{
closed = 1;
nodes = (
(574,-10,o),
(716,94,o),
(734,258,c),
(536,258,l),
(521,195,o),
(469,153,o),
(392,153,cs),
(294,153,o),
(230,238,o),
(230,353,cs),
(230,464,o),
(292,549,o),
(392,549,cs),
(469,549,o),
(523,506,o),
(536,444,c),
(733,444,l),
(714,627,o),
(552,710,o),
(392,710,cs),
(163,710,o),
(30,550,o),
(30,353,cs),
(30,125,o),
(188,-10,o),
(391,-10,cs)
);
}
);
};
layerId = "9D32FE6F-9470-45EF-9689-909A6F5CE504";
shapes = (
{
closed = 1;
nodes = (
(574,-10,o),
(716,94,o),
(734,258,c),
(536,258,l),
(521,195,o),
(469,153,o),
(392,153,cs),
(294,153,o),
(230,238,o),
(230,353,cs),
(230,464,o),
(292,549,o),
(392,549,cs),
(469,549,o),
(523,506,o),
(536,444,c),
(733,444,l),
(714,627,o),
(552,710,o),
(392,710,cs),
(163,710,o),
(30,550,o),
(30,353,cs),
(30,125,o),
(188,-10,o),
(391,-10,cs)
);
}
);
width = 760;
},
{
anchors = (
{
name = bottom;
pos = (326,0);
},
{
name = top;
pos = (462,700);
}
);
background = {
shapes = (
{
closed = 1;
nodes = (
(514,-10,o),
(673,81,o),
(713,258,c),
(518,258,l),
(495,195,o),
(442,152,o),
(367,152,cs),
(285,152,o),
(233,215,o),
(233,308,cs),
(233,434,o),
(311,550,o),
(425,550,cs),
(493,550,o),
(549,513,o),
(554,444,c),
(749,444,l),
(749,590,o),
(627,710,o),
(438,710,cs),
(218,710,o),
(35,539,o),
(35,299,cs),
(35,127,o),
(157,-10,o),
(352,-10,cs)
);
}
);
};
layerId = "69B5B248-E33C-46C9-9D9F-11585640C213";
shapes = (
{
closed = 1;
nodes = (
(514,-10,o),
(673,81,o),
(713,258,c),
(518,258,l),
(495,195,o),
(442,152,o),
(367,152,cs),
(285,152,o),
(233,215,o),
(233,308,cs),
(233,434,o),
(311,550,o),
(425,550,cs),
(493,550,o),
(549,513,o),
(554,444,c),
(749,444,l),
(749,590,o),
(627,710,o),
(438,710,cs),
(218,710,o),
(35,539,o),
(35,299,cs),
(35,127,o),
(157,-10,o),
(352,-10,cs)
);
}
);
width = 750;
}
);
note = C;
unicode = 67;
},
{
color = 5;
glyphname = D;
kernRight = D;
lastChange = "2022-05-29 18:57:48 +0000";
layers = (
{
anchors = (
{
name = bottom;
pos = (361,0);
},
{
name = center;
pos = (361,350);
},
{
name = top;
pos = (361,700);
}
);
background = {
shapes = (
{
closed = 1;
nodes = (
(320,0,ls),
(539,0,o),
(673,136,o),
(673,351,cs),
(673,570,o),
(542,700,o),
(320,700,cs),
(87,700,l),
(87,0,l)
);
},
{
closed = 1;
nodes = (
(177,620,l),
(309,620,ls),
(479,620,o),
(575,519,o),
(575,351,cs),
(575,186,o),
(480,80,o),
(309,80,cs),
(177,80,l)
);
}
);
};
layerId = "30E869CF-9A31-4D47-9626-61B8364FC2DA";
shapes = (
{
closed = 1;
nodes = (
(320,0,ls),
(539,0,o),
(673,136,o),
(673,351,cs),
(673,570,o),
(542,700,o),
(320,700,cs),
(87,700,l),
(87,0,l)
);
},
{
closed = 1;
nodes = (
(177,620,l),
(309,620,ls),
(479,620,o),
(575,519,o),
(575,351,cs),
(575,186,o),
(480,80,o),
(309,80,cs),
(177,80,l)
);
}
);
width = 721;
},
{
anchors = (
{
name = bottom;
pos = (353,0);
},
{
name = center;
pos = (353,350);
},
{
name = top;
pos = (353,700);
}
);
background = {
shapes = (
{
closed = 1;
nodes = (
(307,0,ls),
(499,0,o),
(654,121,o),
(654,352,cs),
(654,556,o),
(532,700,o),
(307,700,cs),
(96,700,l),
(96,0,l)
);
},
{
closed = 1;
nodes = (
(141,660,l),
(303,660,ls),
(496,660,o),
(609,538,o),
(609,352,cs),
(609,169,o),
(498,40,o),
(303,40,cs),
(141,40,l)
);
}
);
};
layerId = "18A01495-E50D-4F2B-A1D8-5C332C731D93";
shapes = (
{
closed = 1;
nodes = (
(307,0,ls),
(499,0,o),
(654,121,o),
(654,352,cs),
(654,556,o),
(532,700,o),
(307,700,cs),
(96,700,l),
(96,0,l)
);
},
{
closed = 1;
nodes = (
(141,660,l),
(303,660,ls),
(496,660,o),
(609,538,o),
(609,352,cs),
(609,169,o),
(498,40,o),
(303,40,cs),
(141,40,l)
);
}
);
width = 706;
},
{
anchors = (
{
name = bottom;
pos = (299,0);
},
{
name = center;
pos = (367,350);
},
{
name = top;
pos = (435,700);
}
);
background = {
shapes = (
{
closed = 1;
nodes = (
(252,0,ls),
(516,0,o),
(659,198,o),
(659,422,cs),
(659,588,o),
(547,700,o),
(372,700,cs),
(173,700,l),
(37,0,l)
);
},
{
closed = 1;
nodes = (
(207,661,l),
(361,661,ls),
(520,661,o),
(615,565,o),
(615,420,cs),
(615,219,o),
(487,39,o),
(256,39,cs),
(88,39,l)
);
}
);
};
layerId = "047DE625-588D-43A1-AE3A-C97924B5E3D3";
shapes = (
{
closed = 1;
nodes = (
(252,0,ls),
(516,0,o),
(659,198,o),
(659,422,cs),
(659,588,o),
(547,700,o),
(372,700,cs),
(173,700,l),
(37,0,l)
);
},
{
closed = 1;
nodes = (
(207,661,l),
(361,661,ls),
(520,661,o),
(615,565,o),
(615,420,cs),
(615,219,o),
(487,39,o),
(256,39,cs),
(88,39,l)
);
}
);
width = 695;
},
{
anchors = (
{
name = bottom;
pos = (306,0);
},
{
name = center;
pos = (374,350);
},
{
name = top;
pos = (442,700);
}
);
background = {
shapes = (
{
closed = 1;
nodes = (
(265,0,ls),
(534,0,o),
(678,195,o),
(678,422,cs),
(678,605,o),
(549,700,o),
(383,700,cs),
(165,700,l),
(29,0,l)
);
},
{
closed = 1;
nodes = (
(235,627,l),
(364,627,ls),
(505,627,o),
(590,552,o),
(590,414,cs),
(590,231,o),
(478,74,o),
(270,74,cs),
(128,74,l)
);
}
);
};
layerId = "AB33B01D-3E13-404E-935A-045AA6D07EB8";
shapes = (
{
closed = 1;
nodes = (
(265,0,ls),
(534,0,o),
(678,195,o),
(678,422,cs),
(678,605,o),
(549,700,o),
(383,700,cs),
(165,700,l),
(29,0,l)
);
},
{
closed = 1;
nodes = (
(235,627,l),
(364,627,ls),
(505,627,o),
(590,552,o),
(590,414,cs),
(590,231,o),
(478,74,o),
(270,74,cs),
(128,74,l)
);
}
);
width = 710;
},
{
anchors = (
{
name = bottom;
pos = (378,0);
},
{
name = center;
pos = (378,350);
},
{
name = top;
pos = (378,700);
}
);
background = {
shapes = (
{
closed = 1;
nodes = (
(352,0,ls),
(609,0,o),
(726,154,o),
(726,350,cs),
(726,577,o),
(585,700,o),
(352,700,cs),
(65,700,l),
(65,0,l)
);
},
{
closed = 1;
nodes = (
(257,541,l),
(341,541,ls),
(454,541,o),
(527,482,o),
(527,350,cs),
(527,221,o),
(454,159,o),
(341,159,cs),
(257,159,l)
);
}
);
};
layerId = "9D32FE6F-9470-45EF-9689-909A6F5CE504";
shapes = (
{
closed = 1;
nodes = (
(352,0,ls),
(609,0,o),
(726,154,o),
(726,350,cs),
(726,577,o),
(585,700,o),
(352,700,cs),
(65,700,l),
(65,0,l)
);
},
{
closed = 1;
nodes = (
(257,541,l),
(341,541,ls),
(454,541,o),
(527,482,o),
(527,350,cs),
(527,221,o),
(454,159,o),
(341,159,cs),
(257,159,l)
);
}
);
width = 756;
},
{
anchors = (
{
name = bottom;
pos = (325,0);
},
{
name = center;
pos = (393,350);
},
{
name = top;
pos = (461,700);
}
);
background = {
shapes = (
{
closed = 1;
nodes = (
(298,0,ls),
(542,0,o),
(730,151,o),
(730,411,cs),
(730,576,o),
(618,700,o),
(414,700,cs),
(140,700,l),
(5,0,l)
);
},
{
closed = 1;
nodes = (
(300,542,l),
(377,542,ls),
(472,542,o),
(533,498,o),
(533,395,cs),
(533,255,o),
(441,158,o),
(311,158,cs),
(227,158,l)
);
}
);
};
layerId = "69B5B248-E33C-46C9-9D9F-11585640C213";
shapes = (
{
closed = 1;
nodes = (
(298,0,ls),
(542,0,o),
(730,151,o),
(730,411,cs),
(730,576,o),
(618,700,o),
(414,700,cs),
(140,700,l),
(5,0,l)
);
},
{
closed = 1;
nodes = (
(300,542,l),
(377,542,ls),
(472,542,o),
(533,498,o),
(533,395,cs),
(533,255,o),
(441,158,o),
(311,158,cs),
(227,158,l)
);
}
);
width = 747;
}
);
note = D;
unicode = 68;
},
{
color = 5;
glyphname = E;
kernRight = E;
lastChange = "2022-07-29 17:27:54 +0000";
layers = (
{
anchors = (
{
name = bottom;
pos = (316,0);
},
{
name = ogonek;
pos = (569,10);
},
{
name = top;
pos = (316,700);
},
{
name = topleft;
pos = (20,700);
}
);
background = {
shapes = (
{
closed = 1;
nodes = (
(579,0,l),
(579,80,l),
(178,80,l),
(178,321,l),
(542,321,l),
(542,401,l),
(178,401,l),
(178,621,l),
(573,621,l),
(573,700,l),
(88,700,l),
(88,0,l)
);
}
);
};
layerId = "30E869CF-9A31-4D47-9626-61B8364FC2DA";
shapes = (
{
closed = 1;
nodes = (
(579,0,l),
(579,80,l),
(178,80,l),
(178,321,l),
(542,321,l),
(542,401,l),
(178,401,l),
(178,621,l),
(573,621,l),
(573,700,l),
(88,700,l),
(88,0,l)
);
}
);
width = 632;
},
{
anchors = (
{
name = bottom;
pos = (309,0);
},
{
name = ogonek;
pos = (556,10);
},
{
name = top;
pos = (309,700);
},
{
name = topleft;
pos = (20,700);
}
);
background = {
shapes = (
{
closed = 1;
nodes = (
(564,0,l),
(564,40,l),
(141,40,l),
(141,339,l),
(527,339,l),
(527,379,l),
(141,379,l),
(141,660,l),
(558,660,l),
(558,700,l),
(96,700,l),
(96,0,l)
);
}
);
};
layerId = "18A01495-E50D-4F2B-A1D8-5C332C731D93";
shapes = (
{
closed = 1;
nodes = (
(564,0,l),
(564,40,l),
(141,40,l),
(141,339,l),
(527,339,l),
(527,379,l),
(141,379,l),
(141,660,l),
(558,660,l),
(558,700,l),
(96,700,l),
(96,0,l)
);
}
);
width = 618;
},
{
anchors = (
{
name = bottom;
pos = (255,0);
},
{
name = ogonek;
pos = (500,10);
},
{
name = top;
pos = (391,700);
},
{
name = topleft;
pos = (107,700);
}
);
background = {
shapes = (
{
closed = 1;
nodes = (
(496,0,l),
(503,39,l),
(87,39,l),
(146,339,l),
(525,339,l),
(533,378,l),
(153,378,l),
(208,661,l),
(620,661,l),
(627,700,l),
(174,700,l),
(37,0,l)
);
}
);
};
layerId = "047DE625-588D-43A1-AE3A-C97924B5E3D3";
shapes = (
{
closed = 1;
nodes = (
(496,0,l),
(503,39,l),
(87,39,l),
(146,339,l),
(525,339,l),
(533,378,l),
(153,378,l),
(208,661,l),
(620,661,l),
(627,700,l),
(174,700,l),
(37,0,l)
);
}
);
width = 608;
},
{
anchors = (
{
name = bottom;
pos = (262,0);
},
{
name = ogonek;
pos = (512,10);
},
{
name = top;
pos = (398,700);
},
{
name = topleft;
pos = (107,700);
}
);
background = {
shapes = (
{
closed = 1;
nodes = (
(509,0,l),
(523,74,l),
(128,74,l),
(176,322,l),
(535,322,l),
(549,396,l),
(190,396,l),
(235,626,l),
(625,626,l),
(640,699,l),
(166,699,l),
(29,0,l)
);
}
);
};
layerId = "AB33B01D-3E13-404E-935A-045AA6D07EB8";
shapes = (
{
closed = 1;
nodes = (
(509,0,l),
(523,74,l),
(128,74,l),
(176,322,l),
(535,322,l),
(549,396,l),
(190,396,l),
(235,626,l),
(625,626,l),
(640,699,l),
(166,699,l),
(29,0,l)
);
}
);
width = 621;
},
{
anchors = (
{
name = bottom;
pos = (325,0);
},
{
name = ogonek;
pos = (585,10);
},
{
name = top;
pos = (325,700);
},
{
name = topleft;
pos = (20,700);
}
);
layerId = "9D32FE6F-9470-45EF-9689-909A6F5CE504";
shapes = (
{
closed = 1;
nodes = (
(605,0,l),
(605,160,l),
(255,160,l),
(255,280,l),
(566,280,l),
(566,440,l),
(255,440,l),
(255,540,l),
(597,540,l),
(597,700,l),
(65,700,l),
(65,0,l)
);
}
);
width = 650;
},
{
anchors = (
{
name = bottom;
pos = (272,0);
},
{
name = ogonek;
pos = (530,10);
},
{
name = top;
pos = (408,700);
},
{
name = topleft;
pos = (107,700);
}
);
background = {
shapes = (
{
closed = 1;
nodes = (
(536,0,l),
(566,154,l),
(223,154,l),
(247,281,l),
(552,281,l),
(581,428,l),
(277,428,l),
(300,546,l),
(635,546,l),
(665,700,l),
(141,700,l),
(5,0,l)
);
}
);
};
layerId = "69B5B248-E33C-46C9-9D9F-11585640C213";
shapes = (
{
closed = 1;
nodes = (
(536,0,l),
(566,154,l),
(223,154,l),
(247,281,l),
(552,281,l),
(581,428,l),
(277,428,l),
(300,546,l),
(635,546,l),
(665,700,l),
(141,700,l),
(5,0,l)
);
}
);
width = 641;
}
);
note = E;
unicode = 69;
},
{
color = 5;
glyphname = F;
lastChange = "2022-07-29 17:28:37 +0000";
layers = (
{
anchors = (
{
name = bottom;
pos = (290,0);
},
{
name = top;
pos = (290,700);
}
);
background = {
shapes = (
{
closed = 1;
nodes = (
(178,0,l),
(178,315,l),
(506,315,l),
(506,394,l),
(178,394,l),
(178,621,l),
(545,621,l),
(545,700,l),
(88,700,l),
(88,0,l)
);
}
);
};
layerId = "30E869CF-9A31-4D47-9626-61B8364FC2DA";
shapes = (
{
closed = 1;
nodes = (
(178,0,l),
(178,315,l),
(506,315,l),
(506,394,l),
(178,394,l),
(178,621,l),
(545,621,l),
(545,700,l),
(88,700,l),
(88,0,l)
);
}
);
width = 580;
},
{
anchors = (
{
name = bottom;
pos = (280,0);
},
{
name = top;
pos = (280,700);
}
);
background = {
shapes = (
{
closed = 1;
nodes = (
(141,0,l),
(141,340,l),
(487,340,l),
(487,380,l),
(141,380,l),
(141,660,l),
(527,660,l),
(527,700,l),
(96,700,l),
(96,0,l)
);
}
);
};
layerId = "18A01495-E50D-4F2B-A1D8-5C332C731D93";
shapes = (
{
closed = 1;
nodes = (
(141,0,l),
(141,340,l),
(487,340,l),
(487,380,l),
(141,380,l),
(141,660,l),
(527,660,l),
(527,700,l),
(96,700,l),
(96,0,l)
);
}
);
width = 560;
},
{
anchors = (
{
name = bottom;
pos = (228,0);
},
{
name = top;
pos = (364,700);
}
);
background = {
shapes = (
{
closed = 1;
nodes = (
(80,0,l),
(146,340,l),
(487,340,l),
(495,379,l),
(153,379,l),
(208,661,l),
(589,661,l),
(597,700,l),
(174,700,l),
(37,0,l)
);
}
);
};
layerId = "047DE625-588D-43A1-AE3A-C97924B5E3D3";
shapes = (
{
closed = 1;
nodes = (
(80,0,l),
(146,340,l),
(487,340,l),
(495,379,l),
(153,379,l),
(208,661,l),
(589,661,l),
(597,700,l),
(174,700,l),
(37,0,l)
);
}
);
width = 553;
},
{
anchors = (
{
name = bottom;
pos = (236,0);
},
{
name = top;
pos = (372,700);
}
);
background = {
shapes = (
{
closed = 1;
nodes = (
(114,0,l),
(176,317,l),
(499,317,l),
(513,391,l),
(190,391,l),
(236,627,l),
(597,627,l),
(612,700,l),
(166,700,l),
(29,0,l)
);
}
);
};
layerId = "AB33B01D-3E13-404E-935A-045AA6D07EB8";
shapes = (
{
closed = 1;
nodes = (
(114,0,l),
(176,317,l),
(499,317,l),
(513,391,l),
(190,391,l),
(236,627,l),
(597,627,l),
(612,700,l),
(166,700,l),
(29,0,l)
);
}
);
width = 569;
},
{
anchors = (
{
name = bottom;
pos = (305,0);
},
{
name = top;
pos = (305,700);
}
);
background = {
shapes = (
{
closed = 1;
nodes = (
(256,0,l),
(256,250,l),
(546,250,l),
(546,405,l),
(256,405,l),
(256,539,l),
(580,539,l),
(580,700,l),
(65,700,l),
(65,0,l)
);
}
);
};
layerId = "9D32FE6F-9470-45EF-9689-909A6F5CE504";
shapes = (
{
closed = 1;
nodes = (
(255,0,l),
(255,247,l),
(546,247,l),
(546,407,l),
(255,407,l),
(255,540,l),
(580,540,l),
(580,700,l),
(65,700,l),
(65,0,l)
);
}
);
width = 609;
},
{
anchors = (
{
name = bottom;
pos = (252,0);
},
{
name = top;
pos = (388,700);
}
);
background = {
shapes = (
{
closed = 1;
nodes = (
(195,0,l),
(243,251,l),
(526,251,l),
(557,404,l),
(273,404,l),
(300,540,l),
(617,540,l),
(649,700,l),
(141,700,l),
(5,0,l)
);
}
);
};
layerId = "69B5B248-E33C-46C9-9D9F-11585640C213";
shapes = (
{
closed = 1;
nodes = (
(195,0,l),
(243,251,l),
(526,251,l),
(557,404,l),
(273,404,l),
(300,540,l),
(617,540,l),
(649,700,l),
(141,700,l),
(5,0,l)
);
}
);
width = 602;
}
);
note = F;
unicode = 70;
},
{
color = 5;
glyphname = G;
kernLeft = C;
kernRight = G;
lastChange = "2022-05-29 18:57:48 +0000";
layers = (
{
anchors = (
{
name = bottom;
pos = (384,0);
},
{
name = top;
pos = (384,700);
}
);
background = {
shapes = (
{
closed = 1;
nodes = (
(479,-10,o),
(564,37,o),
(611,112,c),
(611,0,l),
(693,0,l),
(693,359,l),
(393,359,l),
(393,279,l),
(609,279,l),
(609,276,ls),
(609,144,o),
(495,70,o),
(382,70,cs),
(240,70,o),
(143,186,o),
(143,351,cs),
(143,514,o),
(241,630,o),
(387,630,cs),
(485,630,o),
(573,575,o),
(596,478,c),
(689,478,l),
(665,626,o),
(536,710,o),
(387,710,cs),
(188,710,o),
(48,563,o),
(48,351,cs),
(48,147,o),
(177,-10,o),
(374,-10,cs)
);
}
);
};
layerId = "30E869CF-9A31-4D47-9626-61B8364FC2DA";
shapes = (
{
closed = 1;
nodes = (
(479,-10,o),
(564,37,o),
(611,112,c),
(611,0,l),
(693,0,l),
(693,359,l),
(393,359,l),
(393,279,l),
(609,279,l),
(609,276,ls),
(609,144,o),
(495,70,o),
(382,70,cs),
(240,70,o),
(143,186,o),
(143,351,cs),
(143,514,o),
(241,630,o),
(387,630,cs),
(485,630,o),
(573,575,o),
(596,478,c),
(689,478,l),
(665,626,o),
(536,710,o),
(387,710,cs),
(188,710,o),
(48,563,o),
(48,351,cs),
(48,147,o),
(177,-10,o),
(374,-10,cs)
);
}
);
width = 768;
},
{
anchors = (
{
name = bottom;
pos = (376,0);
},
{
name = top;
pos = (376,700);
}
);
background = {
shapes = (
{
closed = 1;
nodes = (
(495,-10,o),
(589,55,o),
(630,153,c),
(630,0,l),
(670,0,l),
(670,339,l),
(380,339,l),
(380,299,l),
(630,299,l),
(630,294,ls),
(630,126,o),
(519,30,o),
(376,30,cs),
(225,30,o),
(97,150,o),
(97,350,cs),
(97,526,o),
(203,670,o),
(377,670,cs),
(489,670,o),
(589,608,o),
(619,490,c),
(664,490,l),
(635,627,o),
(516,710,o),
(377,710,cs),
(175,710,o),
(52,546,o),
(52,350,cs),
(52,130,o),
(196,-10,o),
(375,-10,cs)
);
}
);
};
layerId = "18A01495-E50D-4F2B-A1D8-5C332C731D93";
shapes = (
{
closed = 1;
nodes = (
(495,-10,o),
(589,55,o),
(630,153,c),
(630,0,l),
(670,0,l),
(670,339,l),
(380,339,l),
(380,299,l),
(630,299,l),
(630,294,ls),
(630,126,o),
(519,30,o),
(376,30,cs),
(225,30,o),
(97,150,o),
(97,350,cs),
(97,526,o),
(203,670,o),
(377,670,cs),
(489,670,o),
(589,608,o),
(619,490,c),
(664,490,l),
(635,627,o),
(516,710,o),
(377,710,cs),
(175,710,o),
(52,546,o),
(52,350,cs),
(52,130,o),
(196,-10,o),
(375,-10,cs)
);
}
);
width = 752;
},
{
anchors = (
{
name = bottom;
pos = (324,0);
},
{
name = top;
pos = (460,700);
}
);
background = {
shapes = (
{
closed = 1;
nodes = (
(449,-11,o),
(535,43,o),
(596,143,c),
(567,0,l),
(607,0,l),
(673,338,l),
(385,338,l),
(377,299,l),
(626,299,l),
(624,289,ls),
(587,126,o),
(473,29,o),
(336,29,cs),
(187,29,o),
(102,149,o),
(102,290,cs),
(102,502,o),
(252,670,o),
(431,670,cs),
(548,670,o),
(638,602,o),
(645,490,c),
(689,490,l),
(685,616,o),
(584,710,o),
(436,710,cs),
(232,710,o),
(58,534,o),
(58,287,cs),
(58,128,o),
(160,-11,o),
(331,-11,cs)
);
}
);
};
layerId = "047DE625-588D-43A1-AE3A-C97924B5E3D3";
shapes = (
{
closed = 1;
nodes = (
(449,-11,o),
(535,43,o),
(596,143,c),
(567,0,l),
(607,0,l),
(673,338,l),
(385,338,l),
(377,299,l),
(626,299,l),
(624,289,ls),
(587,126,o),
(473,29,o),
(336,29,cs),
(187,29,o),
(102,149,o),
(102,290,cs),
(102,502,o),
(252,670,o),
(431,670,cs),
(548,670,o),
(638,602,o),
(645,490,c),
(689,490,l),
(685,616,o),
(584,710,o),
(436,710,cs),
(232,710,o),
(58,534,o),
(58,287,cs),
(58,128,o),
(160,-11,o),
(331,-11,cs)
);
}
);
width = 745;
},
{
anchors = (
{
name = bottom;
pos = (330,0);
},
{
name = top;
pos = (466,700);
}
);
background = {
shapes = (
{
closed = 1;
nodes = (
(435,-11,o),
(512,32,o),
(572,113,c),
(550,0,l),
(626,0,l),
(695,357,l),
(399,357,l),
(385,283,l),
(601,283,l),
(600,277,ls),
(568,156,o),
(466,64,o),
(343,64,cs),
(229,64,o),
(141,146,o),
(141,291,cs),
(141,458,o),
(248,635,o),
(429,635,cs),
(530,635,o),
(615,581,o),
(623,480,c),
(708,480,l),
(705,636,o),
(569,710,o),
(438,710,cs),
(192,710,o),
(52,496,o),
(52,281,cs),
(52,98,o),
(178,-11,o),
(329,-11,cs)
);
}
);
};
layerId = "AB33B01D-3E13-404E-935A-045AA6D07EB8";
shapes = (
{
closed = 1;
nodes = (
(435,-11,o),
(512,32,o),
(572,113,c),
(550,0,l),
(626,0,l),
(695,357,l),
(399,357,l),
(385,283,l),
(601,283,l),
(600,277,ls),
(568,156,o),
(466,64,o),
(343,64,cs),
(229,64,o),
(141,146,o),
(141,291,cs),
(141,458,o),
(248,635,o),
(429,635,cs),
(530,635,o),
(615,581,o),
(623,480,c),
(708,480,l),
(705,636,o),
(569,710,o),
(438,710,cs),
(192,710,o),
(52,496,o),
(52,281,cs),
(52,98,o),
(178,-11,o),
(329,-11,cs)
);
}
);
width = 758;
},
{
anchors = (
{
name = bottom;
pos = (400,0);
},
{
name = top;
pos = (400,700);
}
);
background = {
shapes = (
{
closed = 1;
nodes = (
(458,-12,o),
(530,23,o),
(578,78,c),
(578,0,l),
(742,0,l),
(742,391,l),
(413,391,l),
(413,252,l),
(563,252,l),
(562,248,ls),
(545,182,o),
(481,143,o),
(405,143,cs),
(298,143,o),
(229,223,o),
(229,350,cs),
(229,469,o),
(293,554,o),
(403,554,cs),
(468,554,o),
(526,526,o),
(543,467,c),
(740,467,l),
(716,628,o),
(567,710,o),
(401,710,cs),
(165,710,o),
(30,555,o),
(30,350,cs),
(30,125,o),
(185,-12,o),
(364,-12,cs)
);
}
);
};
layerId = "9D32FE6F-9470-45EF-9689-909A6F5CE504";
shapes = (
{
closed = 1;
nodes = (
(458,-12,o),
(530,23,o),
(578,78,c),
(578,0,l),
(742,0,l),
(742,391,l),
(413,391,l),
(413,252,l),
(563,252,l),
(562,248,ls),
(545,182,o),
(481,143,o),
(405,143,cs),
(298,143,o),
(229,223,o),
(229,350,cs),
(229,469,o),
(293,554,o),
(403,554,cs),
(468,554,o),
(526,526,o),
(543,467,c),
(740,467,l),
(716,628,o),
(567,710,o),
(401,710,cs),
(165,710,o),
(30,555,o),
(30,350,cs),
(30,125,o),
(185,-12,o),
(364,-12,cs)
);
}
);
width = 799;
},
{
anchors = (
{
name = bottom;
pos = (347,0);
},
{
name = top;
pos = (483,700);
}
);
background = {
shapes = (
{
closed = 1;
nodes = (
(407,-12,o),
(475,21,o),
(527,78,c),
(513,0,l),
(675,0,l),
(751,391,l),
(426,391,l),
(399,253,l),
(539,253,l),
(539,250,l),
(514,185,o),
(448,142,o),
(375,142,cs),
(287,142,o),
(232,201,o),
(232,307,cs),
(232,420,o),
(299,556,o),
(433,556,cs),
(499,556,o),
(557,526,o),
(566,467,c),
(761,467,l),
(753,612,o),
(621,710,o),
(443,710,cs),
(182,710,o),
(35,508,o),
(35,297,cs),
(35,94,o),
(171,-12,o),
(316,-12,cs)
);
}
);
};
layerId = "69B5B248-E33C-46C9-9D9F-11585640C213";
shapes = (
{
closed = 1;
nodes = (
(407,-12,o),
(475,21,o),
(527,78,c),
(513,0,l),
(675,0,l),
(751,391,l),
(426,391,l),
(399,253,l),
(539,253,l),
(539,250,l),
(514,185,o),
(448,142,o),
(375,142,cs),
(287,142,o),
(232,201,o),
(232,307,cs),
(232,420,o),
(299,556,o),
(433,556,cs),
(499,556,o),
(557,526,o),
(566,467,c),
(761,467,l),
(753,612,o),
(621,710,o),
(443,710,cs),
(182,710,o),
(35,508,o),
(35,297,cs),
(35,94,o),
(171,-12,o),
(316,-12,cs)
);
}
);
width = 791;
}
);
note = G;
unicode = 71;
},
{
color = 5;
glyphname = H;
lastChange = "2022-05-29 18:57:48 +0000";
layers = (
{
anchors = (
{
name = bottom;
pos = (375,0);
},
{
name = center;
pos = (375,350);
},
{
name = top;
pos = (375,700);
},
{
name = topleft;
pos = (20,700);
}
);
background = {
shapes = (
{
closed = 1;
nodes = (
(180,0,l),
(180,324,l),
(570,324,l),
(570,0,l),
(660,0,l),
(660,700,l),
(570,700,l),
(570,404,l),
(180,404,l),
(180,700,l),
(90,700,l),
(90,0,l)
);
}
);
};
layerId = "30E869CF-9A31-4D47-9626-61B8364FC2DA";
shapes = (
{
closed = 1;
nodes = (
(180,0,l),
(180,324,l),
(570,324,l),
(570,0,l),
(660,0,l),
(660,700,l),
(570,700,l),
(570,404,l),
(180,404,l),
(180,700,l),
(90,700,l),
(90,0,l)
);
}
);
width = 750;
},
{
anchors = (
{
name = bottom;
pos = (360,0);
},
{
name = center;
pos = (360,350);
},
{
name = top;
pos = (360,700);
},
{
name = topleft;
pos = (20,700);
}
);
background = {
shapes = (
{
closed = 1;
nodes = (
(140,0,l),
(140,344,l),
(580,344,l),
(580,0,l),
(625,0,l),
(625,700,l),
(580,700,l),
(580,384,l),
(140,384,l),
(140,700,l),
(95,700,l),
(95,0,l)
);
}
);
};
layerId = "18A01495-E50D-4F2B-A1D8-5C332C731D93";
shapes = (
{
closed = 1;
nodes = (
(140,0,l),
(140,344,l),
(580,344,l),
(580,0,l),
(625,0,l),
(625,700,l),
(580,700,l),
(580,384,l),
(140,384,l),
(140,700,l),
(95,700,l),
(95,0,l)
);
}
);
width = 720;
},
{
anchors = (
{
name = bottom;
pos = (306,0);
},
{
name = center;
pos = (374,350);
},
{
name = top;
pos = (442,700);
},
{
name = topleft;
pos = (107,700);
}
);
background = {
shapes = (
{
closed = 1;
nodes = (
(80,0,l),
(146,344,l),
(581,344,l),
(514,0,l),
(556,0,l),
(693,700,l),
(650,700,l),
(588,383,l),
(154,383,l),
(216,700,l),
(174,700,l),
(37,0,l)
);
}
);
};
layerId = "047DE625-588D-43A1-AE3A-C97924B5E3D3";
shapes = (
{
closed = 1;
nodes = (
(80,0,l),
(146,344,l),
(581,344,l),
(514,0,l),
(556,0,l),
(693,700,l),
(650,700,l),
(588,383,l),
(154,383,l),
(216,700,l),
(174,700,l),
(37,0,l)
);
}
);
width = 709;
},
{
anchors = (
{
name = bottom;
pos = (317,0);
},
{
name = center;
pos = (385,350);
},
{
name = top;
pos = (453,700);
},
{
name = topleft;
pos = (107,700);
}
);
background = {
shapes = (
{
closed = 1;
nodes = (
(114,0,l),
(177,326,l),
(563,326,l),
(500,0,l),
(585,0,l),
(721,700,l),
(636,700,l),
(578,400,l),
(192,400,l),
(251,700,l),
(166,700,l),
(29,0,l)
);
}
);
};
layerId = "AB33B01D-3E13-404E-935A-045AA6D07EB8";
shapes = (
{
closed = 1;
nodes = (
(114,0,l),
(177,326,l),
(563,326,l),
(500,0,l),
(585,0,l),
(721,700,l),
(636,700,l),
(578,400,l),
(192,400,l),
(251,700,l),
(166,700,l),
(29,0,l)
);
}
);
width = 731;
},
{
anchors = (
{
name = bottom;
pos = (394,0);
},
{
name = center;
pos = (394,350);
},
{
name = top;
pos = (394,700);
},
{
name = topleft;
pos = (20,700);
}
);
background = {
shapes = (
{
closed = 1;
nodes = (
(258,0,l),
(258,275,l),
(530,275,l),
(530,0,l),
(724,0,l),
(724,700,l),
(530,700,l),
(530,437,l),
(258,437,l),
(258,700,l),
(65,700,l),
(65,0,l)
);
}
);
};
layerId = "9D32FE6F-9470-45EF-9689-909A6F5CE504";
shapes = (
{
closed = 1;
nodes = (
(258,0,l),
(258,275,l),
(530,275,l),
(530,0,l),
(724,0,l),
(724,700,l),
(530,700,l),
(530,437,l),
(258,437,l),
(258,700,l),
(65,700,l),
(65,0,l)
);
}
);
width = 788;
},
{
anchors = (
{
name = bottom;
pos = (340,0);
},
{
name = center;
pos = (408,350);
},
{
name = top;
pos = (476,700);
},
{
name = topleft;
pos = (107,700);
}
);
background = {
shapes = (
{
closed = 1;
nodes = (
(197,0,l),
(250,275,l),
(515,275,l),
(462,0,l),
(654,0,l),
(791,700,l),
(599,700,l),
(547,437,l),
(281,437,l),
(333,700,l),
(141,700,l),
(5,0,l)
);
}
);
};
layerId = "69B5B248-E33C-46C9-9D9F-11585640C213";
shapes = (
{
closed = 1;
nodes = (
(197,0,l),
(250,275,l),
(515,275,l),
(462,0,l),
(654,0,l),
(791,700,l),
(599,700,l),
(547,437,l),
(281,437,l),
(333,700,l),
(141,700,l),
(5,0,l)
);
}
);
width = 777;
}
);
note = H;
unicode = 72;
},
{
color = 5;
glyphname = I;
lastChange = "2022-05-29 18:57:48 +0000";
layers = (
{
anchors = (
{
name = bottom;
pos = (135,0);
},
{
name = ogonek;
pos = (243,10);
},
{
name = top;
pos = (135,700);
},
{
name = topleft;
pos = (20,700);
}
);
background = {
shapes = (
{
closed = 1;
nodes = (
(180,0,l),
(180,700,l),
(90,700,l),
(90,0,l)
);
}
);
};
layerId = "30E869CF-9A31-4D47-9626-61B8364FC2DA";
shapes = (
{
closed = 1;
nodes = (
(180,0,l),
(180,700,l),
(90,700,l),
(90,0,l)
);
}
);
width = 270;
},
{
anchors = (
{
name = bottom;
pos = (118,0);
},
{
name = ogonek;
pos = (212,10);
},
{
name = top;
pos = (118,700);
},
{
name = topleft;
pos = (20,700);
}
);
background = {
shapes = (
{
closed = 1;
nodes = (
(140,0,l),
(140,700,l),
(95,700,l),
(95,0,l)
);
}
);
};
layerId = "18A01495-E50D-4F2B-A1D8-5C332C731D93";
shapes = (
{
closed = 1;
nodes = (
(140,0,l),
(140,700,l),
(95,700,l),
(95,0,l)
);
}
);
width = 235;
},
{
anchors = (
{
name = bottom;
pos = (68,0);
},
{
name = ogonek;
pos = (163,10);
},
{
name = top;
pos = (204,700);
},
{
name = topleft;
pos = (107,700);
}
);
background = {
shapes = (
{
closed = 1;
nodes = (
(80,0,l),
(216,700,l),
(174,700,l),
(37,0,l)
);
}
);
};
layerId = "047DE625-588D-43A1-AE3A-C97924B5E3D3";
shapes = (
{
closed = 1;
nodes = (
(80,0,l),
(216,700,l),
(174,700,l),
(37,0,l)
);
}
);
width = 233;
},
{
anchors = (
{
name = bottom;
pos = (81,0);
},
{
name = ogonek;
pos = (187,10);
},
{
name = top;
pos = (217,700);
},
{
name = topleft;
pos = (107,700);
}
);
background = {
shapes = (
{
closed = 1;
nodes = (
(114,0,l),
(251,700,l),
(166,700,l),
(29,0,l)
);
}
);
};
layerId = "AB33B01D-3E13-404E-935A-045AA6D07EB8";
shapes = (
{
closed = 1;
nodes = (
(114,0,l),
(251,700,l),
(166,700,l),
(29,0,l)
);
}
);
width = 260;
},
{
anchors = (
{
name = bottom;
pos = (161,0);
},
{
name = ogonek;
pos = (290,10);
},
{
name = top;
pos = (161,700);
},
{
name = topleft;
pos = (20,700);
}
);
background = {
shapes = (
{
closed = 1;
nodes = (
(258,0,l),
(258,700,l),
(65,700,l),
(65,0,l)
);
}
);
};
layerId = "9D32FE6F-9470-45EF-9689-909A6F5CE504";
shapes = (
{
closed = 1;
nodes = (
(258,0,l),
(258,700,l),
(65,700,l),
(65,0,l)
);
}
);
width = 322;
},
{
anchors = (
{
name = bottom;
pos = (111,0);
},
{
name = ogonek;
pos = (240,10);
},
{
name = top;
pos = (247,700);
},
{
name = topleft;
pos = (107,700);
}
);
background = {
shapes = (
{
closed = 1;
nodes = (
(197,0,l),
(333,700,l),
(141,700,l),
(5,0,l)
);
}
);
};
layerId = "69B5B248-E33C-46C9-9D9F-11585640C213";
shapes = (
{
closed = 1;
nodes = (
(197,0,l),
(333,700,l),
(141,700,l),
(5,0,l)
);
}
);
width = 319;
}
);
note = I;
unicode = 73;
},
{
color = 5;
glyphname = J;
kernLeft = J;
kernRight = J;
lastChange = "2022-05-29 18:57:48 +0000";
layers = (
{
anchors = (
{
name = bottom;
pos = (286,0);
},
{
name = top;
pos = (286,700);
}
);
background = {
shapes = (
{
closed = 1;
nodes = (
(415,-10,o),
(494,87,o),
(494,221,cs),
(494,700,l),
(404,700,l),
(404,222,ls),
(404,127,o),
(350,70,o),
(264,70,cs),
(172,70,o),
(125,127,o),
(120,228,c),
(30,228,l),
(38,72,o),
(121,-10,o),
(264,-10,cs)
);
}
);
};
layerId = "30E869CF-9A31-4D47-9626-61B8364FC2DA";
shapes = (
{
closed = 1;
nodes = (
(415,-10,o),
(494,87,o),
(494,221,cs),
(494,700,l),
(404,700,l),
(404,222,ls),
(404,127,o),
(350,70,o),
(264,70,cs),
(172,70,o),
(125,127,o),
(120,228,c),
(30,228,l),
(38,72,o),
(121,-10,o),
(264,-10,cs)
);
}
);
width = 572;
},
{
anchors = (
{
name = bottom;
pos = (276,0);
},
{
name = top;
pos = (276,700);
}
);
background = {
shapes = (
{
closed = 1;
nodes = (
(386,-10,o),
(467,76,o),
(467,210,cs),
(467,700,l),
(422,700,l),
(422,211,ls),
(422,104,o),
(361,30,o),
(255,30,cs),
(156,30,o),
(92,89,o),
(83,208,c),
(38,208,l),
(48,80,o),
(119,-10,o),
(255,-10,cs)
);
}
);
};
layerId = "18A01495-E50D-4F2B-A1D8-5C332C731D93";
shapes = (
{
closed = 1;
nodes = (
(386,-10,o),
(467,76,o),
(467,210,cs),
(467,700,l),
(422,700,l),
(422,211,ls),
(422,104,o),
(361,30,o),
(255,30,cs),
(156,30,o),
(92,89,o),
(83,208,c),
(38,208,l),
(48,80,o),
(119,-10,o),
(255,-10,cs)
);
}
);
width = 551;
},
{
anchors = (
{
name = bottom;
pos = (223,0);
},
{
name = top;
pos = (359,700);
}
);
background = {
shapes = (
{
closed = 1;
nodes = (
(333,-11,o),
(415,71,o),
(440,200,cs),
(538,700,l),
(495,700,l),
(398,203,ls),
(377,95,o),
(308,29,o),
(210,29,cs),
(104,29,o),
(45,100,o),
(61,207,c),
(19,207,l),
(2,85,o),
(69,-11,o),
(208,-11,cs)
);
}
);
};
layerId = "047DE625-588D-43A1-AE3A-C97924B5E3D3";
shapes = (
{
closed = 1;
nodes = (
(333,-11,o),
(415,71,o),
(440,200,cs),
(538,700,l),
(495,700,l),
(398,203,ls),
(377,95,o),
(308,29,o),
(210,29,cs),
(104,29,o),
(45,100,o),
(61,207,c),
(19,207,l),
(2,85,o),
(69,-11,o),
(208,-11,cs)
);
}
);
width = 544;
},
{
anchors = (
{
name = bottom;
pos = (233,0);
},
{
name = top;
pos = (369,700);
}
);
background = {
shapes = (
{
closed = 1;
nodes = (
(358,-11,o),
(440,77,o),
(467,212,cs),
(563,700,l),
(478,700,l),
(384,220,ls),
(364,120,o),
(305,65,o),
(220,65,cs),
(125,65,o),
(86,134,o),
(100,226,c),
(16,226,l),
(-2,81,o),
(74,-11,o),
(216,-11,cs)
);
}
);
};
layerId = "AB33B01D-3E13-404E-935A-045AA6D07EB8";
shapes = (
{
closed = 1;
nodes = (
(358,-11,o),
(440,77,o),
(467,212,cs),
(563,700,l),
(478,700,l),
(384,220,ls),
(364,120,o),
(305,65,o),
(220,65,cs),
(125,65,o),
(86,134,o),
(100,226,c),
(16,226,l),
(-2,81,o),
(74,-11,o),
(216,-11,cs)
);
}
);
width = 563;
},
{
anchors = (
{
name = bottom;
pos = (321,0);
},
{
name = top;
pos = (321,700);
}
);
background = {
shapes = (
{
closed = 1;
nodes = (
(473,-13,o),
(584,74,o),
(584,263,cs),
(584,700,l),
(391,700,l),
(391,263,ls),
(391,194,o),
(361,151,o),
(301,151,cs),
(237,151,o),
(210,195,o),
(208,276,c),
(17,276,l),
(26,85,o),
(118,-13,o),
(301,-13,cs)
);
}
);
};
layerId = "9D32FE6F-9470-45EF-9689-909A6F5CE504";
shapes = (
{
closed = 1;
nodes = (
(473,-13,o),
(584,74,o),
(584,263,cs),
(584,700,l),
(391,700,l),
(391,263,ls),
(391,194,o),
(361,151,o),
(301,151,cs),
(237,151,o),
(210,195,o),
(208,276,c),
(17,276,l),
(26,85,o),
(118,-13,o),
(301,-13,cs)
);
}
);
width = 642;
},
{
anchors = (
{
name = bottom;
pos = (268,0);
},
{
name = top;
pos = (404,700);
}
);
background = {
shapes = (
{
closed = 1;
nodes = (
(433,-13,o),
(533,81,o),
(568,258,cs),
(655,700,l),
(463,700,l),
(376,261,ls),
(362,192,o),
(328,150,o),
(270,150,cs),
(203,150,o),
(189,204,o),
(199,276,c),
(14,276,l),
(-13,103,o),
(77,-13,o),
(256,-13,cs)
);
}
);
};
layerId = "69B5B248-E33C-46C9-9D9F-11585640C213";
shapes = (
{
closed = 1;
nodes = (
(433,-13,o),
(533,81,o),
(568,258,cs),
(655,700,l),
(463,700,l),
(376,261,ls),
(362,192,o),
(328,150,o),
(270,150,cs),
(203,150,o),
(189,204,o),
(199,276,c),
(14,276,l),
(-13,103,o),
(77,-13,o),
(256,-13,cs)
);
}
);
width = 634;
}
);
note = J;
unicode = 74;
},
{
color = 5;
glyphname = K;
kernRight = K;
lastChange = "2022-05-29 18:57:48 +0000";
layers = (
{
anchors = (
{
name = bottom;
pos = (337,0);
},
{
name = top;
pos = (337,700);
}
);
background = {
shapes = (
{
closed = 1;
nodes = (
(178,0,l),
(178,229,l),
(308,358,l),
(546,0,l),
(656,0,l),
(374,420,l),
(656,700,l),
(541,700,l),
(178,339,l),
(178,700,l),
(88,700,l),
(88,0,l)
);
}
);
};
layerId = "30E869CF-9A31-4D47-9626-61B8364FC2DA";
shapes = (
{
closed = 1;
nodes = (
(178,0,l),
(178,229,l),
(308,358,l),
(546,0,l),
(656,0,l),
(374,420,l),
(656,700,l),
(541,700,l),
(178,339,l),
(178,700,l),
(88,700,l),
(88,0,l)
);
}
);
width = 673;
},
{
anchors = (
{
name = bottom;
pos = (321,0);
},
{
name = top;
pos = (321,700);
}
);
background = {
shapes = (
{
closed = 1;
nodes = (
(141,0,l),
(141,243,l),
(293,391,l),
(563,0,l),
(618,0,l),
(324,421,l),
(617,700,l),
(557,700,l),
(141,298,l),
(141,700,l),
(96,700,l),
(96,0,l)
);
}
);
};
layerId = "18A01495-E50D-4F2B-A1D8-5C332C731D93";
shapes = (
{
closed = 1;
nodes = (
(141,0,l),
(141,243,l),
(293,391,l),
(563,0,l),
(618,0,l),
(324,421,l),
(617,700,l),
(557,700,l),
(141,298,l),
(141,700,l),
(96,700,l),
(96,0,l)
);
}
);
width = 642;
},
{
anchors = (
{
name = bottom;
pos = (268,0);
},
{
name = top;
pos = (404,700);
}
);
background = {
shapes = (
{
closed = 1;
nodes = (
(79,0,l),
(127,244,l),
(309,392,l),
(502,0,l),
(548,0,l),
(341,418,l),
(685,700,l),
(624,700,l),
(138,302,l),
(216,700,l),
(174,700,l),
(37,0,l)
);
}
);
};
layerId = "047DE625-588D-43A1-AE3A-C97924B5E3D3";
shapes = (
{
closed = 1;
nodes = (
(79,0,l),
(127,244,l),
(309,392,l),
(502,0,l),
(548,0,l),
(341,418,l),
(685,700,l),
(624,700,l),
(138,302,l),
(216,700,l),
(174,700,l),
(37,0,l)
);
}
);
width = 633;
},
{
anchors = (
{
name = bottom;
pos = (281,0);
},
{
name = top;
pos = (417,700);
}
);
background = {
shapes = (
{
closed = 1;
nodes = (
(114,0,l),
(158,228,l),
(319,365,l),
(490,0,l),
(583,0,l),
(385,417,l),
(717,700,l),
(600,700,l),
(180,342,l),
(250,700,l),
(166,700,l),
(29,0,l)
);
}
);
};
layerId = "AB33B01D-3E13-404E-935A-045AA6D07EB8";
shapes = (
{
closed = 1;
nodes = (
(114,0,l),
(158,228,l),
(319,365,l),
(490,0,l),
(583,0,l),
(385,417,l),
(717,700,l),
(600,700,l),
(180,342,l),
(250,700,l),
(166,700,l),
(29,0,l)
);
}
);
width = 660;
},
{
anchors = (
{
name = bottom;
pos = (375,0);
},
{
name = top;
pos = (375,700);
}
);
background = {
shapes = (
{
closed = 1;
nodes = (
(255,0,l),
(255,171,l),
(352,280,l),
(519,0,l),
(741,0,l),
(489,416,l),
(739,700,l),
(506,700,l),
(255,407,l),
(255,700,l),
(65,700,l),
(65,0,l)
);
}
);
};
layerId = "9D32FE6F-9470-45EF-9689-909A6F5CE504";
shapes = (
{
closed = 1;
nodes = (
(255,0,l),
(255,171,l),
(352,280,l),
(519,0,l),
(741,0,l),
(489,416,l),
(739,700,l),
(506,700,l),
(255,407,l),
(255,700,l),
(65,700,l),
(65,0,l)
);
}
);
width = 750;
},
{
anchors = (
{
name = bottom;
pos = (321,0);
},
{
name = top;
pos = (457,700);
}
);
background = {
shapes = (
{
closed = 1;
nodes = (
(194,0,l),
(226,166,l),
(353,286,l),
(465,0,l),
(668,0,l),
(502,414,l),
(803,700,l),
(560,700,l),
(277,426,l),
(330,700,l),
(141,700,l),
(5,0,l)
);
}
);
};
layerId = "69B5B248-E33C-46C9-9D9F-11585640C213";
shapes = (
{
closed = 1;
nodes = (
(194,0,l),
(226,166,l),
(353,286,l),
(465,0,l),
(668,0,l),
(502,414,l),
(803,700,l),
(560,700,l),
(277,426,l),
(330,700,l),
(141,700,l),
(5,0,l)
);
}
);
width = 739;
}
);
note = K;
unicode = 75;
},
{
color = 5;
glyphname = L;
kernRight = L;
lastChange = "2022-05-29 18:57:48 +0000";
layers = (
{
anchors = (
{
name = bottom;
pos = (283,0);
},
{
name = center;
pos = (283,350);
},
{
name = top;
pos = (283,700);
},
{
name = topright;
pos = (546,700);
}
);
background = {
shapes = (
{
closed = 1;
nodes = (
(536,0,l),
(536,80,l),
(178,80,l),
(178,700,l),
(88,700,l),
(88,0,l)
);
}
);
};
layerId = "30E869CF-9A31-4D47-9626-61B8364FC2DA";
shapes = (
{
closed = 1;
nodes = (
(536,0,l),
(536,80,l),
(178,80,l),
(178,700,l),
(88,700,l),
(88,0,l)
);
}
);
width = 566;
},
{
anchors = (
{
name = bottom;
pos = (276,0);
},
{
name = center;
pos = (276,350);
},
{
name = top;
pos = (276,700);
},
{
name = topright;
pos = (531,700);
}
);
background = {
shapes = (
{
closed = 1;
nodes = (
(521,0,l),
(521,40,l),
(139,40,l),
(139,700,l),
(96,700,l),
(96,0,l)
);
}
);
};
layerId = "18A01495-E50D-4F2B-A1D8-5C332C731D93";
shapes = (
{
closed = 1;
nodes = (
(521,0,l),
(521,40,l),
(139,40,l),
(139,700,l),
(96,700,l),
(96,0,l)
);
}
);
width = 551;
},
{
anchors = (
{
name = bottom;
pos = (222,0);
},
{
name = center;
pos = (290,350);
},
{
name = top;
pos = (358,700);
},
{
name = topright;
pos = (609,700);
}
);
background = {
shapes = (
{
closed = 1;
nodes = (
(455,0,l),
(463,39,l),
(87,39,l),
(216,700,l),
(174,700,l),
(37,0,l)
);
}
);
};
layerId = "047DE625-588D-43A1-AE3A-C97924B5E3D3";
shapes = (
{
closed = 1;
nodes = (
(455,0,l),
(463,39,l),
(87,39,l),
(216,700,l),
(174,700,l),
(37,0,l)
);
}
);
width = 542;
},
{
anchors = (
{
name = bottom;
pos = (229,0);
},
{
name = center;
pos = (297,350);
},
{
name = top;
pos = (365,700);
},
{
name = topright;
pos = (622,700);
}
);
background = {
shapes = (
{
closed = 1;
nodes = (
(468,0,l),
(483,75,l),
(129,75,l),
(251,700,l),
(166,700,l),
(29,0,l)
);
}
);
};
layerId = "AB33B01D-3E13-404E-935A-045AA6D07EB8";
shapes = (
{
closed = 1;
nodes = (
(468,0,l),
(483,75,l),
(129,75,l),
(251,700,l),
(166,700,l),
(29,0,l)
);
}
);
width = 555;
},
{
anchors = (
{
name = bottom;
pos = (301,0);
},
{
name = center;
pos = (301,350);
},
{
name = top;
pos = (301,700);
},
{
name = topright;
pos = (582,700);
}
);
background = {
shapes = (
{
closed = 1;
nodes = (
(576,0,l),
(576,163,l),
(258,163,l),
(258,700,l),
(65,700,l),
(65,0,l)
);
}
);
};
layerId = "9D32FE6F-9470-45EF-9689-909A6F5CE504";
shapes = (
{
closed = 1;
nodes = (
(576,0,l),
(576,163,l),
(258,163,l),
(258,700,l),
(65,700,l),
(65,0,l)
);
}
);
width = 602;
},
{
anchors = (
{
name = bottom;
pos = (248,0);
},
{
name = center;
pos = (316,350);
},
{
name = top;
pos = (384,700);
},
{
name = topright;
pos = (661,700);
}
);
background = {
shapes = (
{
closed = 1;
nodes = (
(508,0,l),
(540,162,l),
(228,162,l),
(333,700,l),
(141,700,l),
(5,0,l)
);
}
);
};
layerId = "69B5B248-E33C-46C9-9D9F-11585640C213";
shapes = (
{
closed = 1;
nodes = (
(508,0,l),
(540,162,l),
(228,162,l),
(333,700,l),
(141,700,l),
(5,0,l)
);
}
);
width = 594;
}
);
note = L;
unicode = 76;
},
{
color = 5;
glyphname = M;
lastChange = "2022-05-29 18:57:48 +0000";
layers = (
{
anchors = (
{
name = bottom;
pos = (458,0);
},
{
name = top;
pos = (458,700);
}
);
background = {
shapes = (
{
closed = 1;
nodes = (
(180,0,l),
(180,622,l),
(407,0,l),
(507,0,l),
(735,624,l),
(735,0,l),
(825,0,l),
(825,700,l),
(682,700,l),
(459,94,l),
(236,700,l),
(90,700,l),
(90,0,l)
);
}
);
};
layerId = "30E869CF-9A31-4D47-9626-61B8364FC2DA";
shapes = (
{
closed = 1;
nodes = (
(180,0,l),
(180,622,l),
(407,0,l),
(507,0,l),
(735,624,l),
(735,0,l),
(825,0,l),
(825,700,l),
(682,700,l),
(459,94,l),
(236,700,l),
(90,700,l),
(90,0,l)
);
}
);
width = 915;
},
{
anchors = (
{
name = bottom;
pos = (443,0);
},
{
name = top;
pos = (443,700);
}
);
background = {
shapes = (
{
closed = 1;
nodes = (
(140,0,l),
(140,657,l),
(418,0,l),
(468,0,l),
(746,657,l),
(746,0,l),
(791,0,l),
(791,700,l),
(724,700,l),
(443,48,l),
(163,700,l),
(95,700,l),
(95,0,l)
);
}
);
};
layerId = "18A01495-E50D-4F2B-A1D8-5C332C731D93";
shapes = (
{
closed = 1;
nodes = (
(140,0,l),
(140,657,l),
(418,0,l),
(468,0,l),
(746,657,l),
(746,0,l),
(791,0,l),
(791,700,l),
(724,700,l),
(443,48,l),
(163,700,l),
(95,700,l),
(95,0,l)
);
}
);
width = 886;
},
{
anchors = (
{
name = bottom;
pos = (389,0);
},
{
name = top;
pos = (525,700);
}
);
background = {
shapes = (
{
closed = 1;
nodes = (
(79,0,l),
(208,657,l),
(356,0,l),
(403,0,l),
(808,656,l),
(680,0,l),
(722,0,l),
(859,700,l),
(790,700,l),
(387,48,l),
(239,700,l),
(175,700,l),
(38,0,l)
);
}
);
};
layerId = "047DE625-588D-43A1-AE3A-C97924B5E3D3";
shapes = (
{
closed = 1;
nodes = (
(79,0,l),
(208,657,l),
(356,0,l),
(403,0,l),
(808,656,l),
(680,0,l),
(722,0,l),
(859,700,l),
(790,700,l),
(387,48,l),
(239,700,l),
(175,700,l),
(38,0,l)
);
}
);
width = 875;
},
{
anchors = (
{
name = bottom;
pos = (399,0);
},
{
name = top;
pos = (535,700);
}
);
background = {
shapes = (
{
closed = 1;
nodes = (
(112,0,l),
(234,627,l),
(343,0,l),
(437,0,l),
(790,627,l),
(667,0,l),
(749,0,l),
(886,700,l),
(747,700,l),
(404,88,l),
(298,700,l),
(166,700,l),
(29,0,l)
);
}
);
};
layerId = "AB33B01D-3E13-404E-935A-045AA6D07EB8";
shapes = (
{
closed = 1;
nodes = (
(112,0,l),
(234,627,l),
(343,0,l),
(437,0,l),
(790,627,l),
(667,0,l),
(749,0,l),
(886,700,l),
(747,700,l),
(404,88,l),
(298,700,l),
(166,700,l),
(29,0,l)
);
}
);
width = 895;
},
{
anchors = (
{
name = bottom;
pos = (484,0);
},
{
name = top;
pos = (484,700);
}
);
background = {
shapes = (
{
closed = 1;
nodes = (
(246,0,l),
(246,510,l),
(401,0,l),
(567,0,l),
(722,511,l),
(722,0,l),
(904,0,l),
(904,700,l),
(627,700,l),
(486,229,l),
(345,700,l),
(65,700,l),
(65,0,l)
);
}
);
};
layerId = "9D32FE6F-9470-45EF-9689-909A6F5CE504";
shapes = (
{
closed = 1;
nodes = (
(246,0,l),
(246,510,l),
(401,0,l),
(567,0,l),
(722,511,l),
(722,0,l),
(904,0,l),
(904,700,l),
(627,700,l),
(486,229,l),
(345,700,l),
(65,700,l),
(65,0,l)
);
}
);
width = 968;
},
{
anchors = (
{
name = bottom;
pos = (429,0);
},
{
name = top;
pos = (565,700);
}
);
background = {
shapes = (
{
closed = 1;
nodes = (
(185,0,l),
(285,511,l),
(337,0,l),
(500,0,l),
(753,511,l),
(653,0,l),
(834,0,l),
(970,700,l),
(688,700,l),
(458,229,l),
(412,700,l),
(141,700,l),
(5,0,l)
);
}
);
};
layerId = "69B5B248-E33C-46C9-9D9F-11585640C213";
shapes = (
{
closed = 1;
nodes = (
(185,0,l),
(285,511,l),
(337,0,l),
(500,0,l),
(753,511,l),
(653,0,l),
(834,0,l),
(970,700,l),
(688,700,l),
(458,229,l),
(412,700,l),
(141,700,l),
(5,0,l)
);
}
);
width = 956;
}
);
note = M;
unicode = 77;
},
{
color = 5;
glyphname = N;
lastChange = "2022-05-29 18:57:48 +0000";
layers = (
{
anchors = (
{
name = bottom;
pos = (379,0);
},
{
name = top;
pos = (379,700);
}
);
background = {
shapes = (
{
closed = 1;
nodes = (
(180,0,l),
(180,592,l),
(548,0,l),
(668,0,l),
(668,700,l),
(578,700,l),
(578,108,l),
(210,700,l),
(90,700,l),
(90,0,l)
);
}
);
};
layerId = "30E869CF-9A31-4D47-9626-61B8364FC2DA";
shapes = (
{
closed = 1;
nodes = (
(180,0,l),
(180,592,l),
(548,0,l),
(668,0,l),
(668,700,l),
(578,700,l),
(578,108,l),
(210,700,l),
(90,700,l),
(90,0,l)
);
}
);
width = 758;
},
{
anchors = (
{
name = bottom;
pos = (369,0);
},
{
name = top;
pos = (369,700);
}
);
background = {
shapes = (
{
closed = 1;
nodes = (
(140,0,l),
(140,646,l),
(582,0,l),
(642,0,l),
(642,700,l),
(597,700,l),
(597,54,l),
(155,700,l),
(95,700,l),
(95,0,l)
);
}
);
};
layerId = "18A01495-E50D-4F2B-A1D8-5C332C731D93";
shapes = (
{
closed = 1;
nodes = (
(140,0,l),
(140,646,l),
(582,0,l),
(642,0,l),
(642,700,l),
(597,700,l),
(597,54,l),
(155,700,l),
(95,700,l),
(95,0,l)
);
}
);
width = 737;
},
{
anchors = (
{
name = bottom;
pos = (315,0);
},
{
name = top;
pos = (451,700);
}
);
background = {
shapes = (
{
closed = 1;
nodes = (
(79,0,l),
(206,648,l),
(521,0,l),
(574,0,l),
(711,700,l),
(669,700,l),
(542,53,l),
(227,700,l),
(174,700,l),
(37,0,l)
);
}
);
};
layerId = "047DE625-588D-43A1-AE3A-C97924B5E3D3";
shapes = (
{
closed = 1;
nodes = (
(79,0,l),
(206,648,l),
(521,0,l),
(574,0,l),
(711,700,l),
(669,700,l),
(542,53,l),
(227,700,l),
(174,700,l),
(37,0,l)
);
}
);
width = 728;
},
{
anchors = (
{
name = bottom;
pos = (322,0);
},
{
name = top;
pos = (458,700);
}
);
background = {
shapes = (
{
closed = 1;
nodes = (
(112,0,l),
(229,604,l),
(489,0,l),
(596,0,l),
(733,700,l),
(650,700,l),
(532,97,l),
(273,700,l),
(166,700,l),
(29,0,l)
);
}
);
};
layerId = "AB33B01D-3E13-404E-935A-045AA6D07EB8";
shapes = (
{
closed = 1;
nodes = (
(112,0,l),
(229,604,l),
(489,0,l),
(596,0,l),
(733,700,l),
(650,700,l),
(532,97,l),
(273,700,l),
(166,700,l),
(29,0,l)
);
}
);
width = 742;
},
{
anchors = (
{
name = bottom;
pos = (397,0);
},
{
name = top;
pos = (397,700);
}
);
background = {
shapes = (
{
closed = 1;
nodes = (
(250,0,l),
(250,446,l),
(506,0,l),
(730,0,l),
(730,700,l),
(544,700,l),
(544,253,l),
(288,700,l),
(65,700,l),
(65,0,l)
);
}
);
};
layerId = "9D32FE6F-9470-45EF-9689-909A6F5CE504";
shapes = (
{
closed = 1;
nodes = (
(250,0,l),
(250,446,l),
(506,0,l),
(730,0,l),
(730,700,l),
(544,700,l),
(544,253,l),
(288,700,l),
(65,700,l),
(65,0,l)
);
}
);
width = 794;
},
{
anchors = (
{
name = bottom;
pos = (342,0);
},
{
name = top;
pos = (478,700);
}
);
background = {
shapes = (
{
closed = 1;
nodes = (
(190,0,l),
(278,452,l),
(444,0,l),
(659,0,l),
(796,700,l),
(610,700,l),
(522,248,l),
(355,700,l),
(141,700,l),
(5,0,l)
);
}
);
};
layerId = "69B5B248-E33C-46C9-9D9F-11585640C213";
shapes = (
{
closed = 1;
nodes = (
(190,0,l),
(278,452,l),
(444,0,l),
(659,0,l),
(796,700,l),
(610,700,l),
(522,248,l),
(355,700,l),
(141,700,l),
(5,0,l)
);
}
);
width = 782;
}
);
note = N;
unicode = 78;
},
{
color = 5;
glyphname = O;
kernLeft = C;
kernRight = D;
lastChange = "2022-05-29 18:57:48 +0000";
layers = (
{
anchors = (
{
name = bottom;
pos = (388,0);
},
{
name = center;
pos = (388,350);
},
{
name = ogonek;
pos = (698,10);
},
{
name = top;
pos = (388,700);
},
{
name = topleft;
pos = (20,700);
},
{
name = topright;
pos = (755,700);
}
);
background = {
shapes = (
{
closed = 1;
nodes = (
(586,-10,o),
(727,140,o),
(727,352,cs),
(727,564,o),
(588,710,o),
(387,710,cs),
(189,710,o),
(48,564,o),
(48,352,cs),
(48,140,o),
(187,-10,o),
(387,-10,cs)
);
},
{
closed = 1;
nodes = (
(242,70,o),
(138,182,o),
(138,352,cs),
(138,520,o),
(240,630,o),
(387,630,cs),
(533,630,o),
(637,521,o),
(637,352,cs),
(637,183,o),
(534,70,o),
(387,70,cs)
);
}
);
};
layerId = "30E869CF-9A31-4D47-9626-61B8364FC2DA";
shapes = (
{
closed = 1;
nodes = (
(586,-10,o),
(727,140,o),
(727,352,cs),
(727,564,o),
(588,710,o),
(387,710,cs),
(189,710,o),
(48,564,o),
(48,352,cs),
(48,140,o),
(187,-10,o),
(387,-10,cs)
);
},
{
closed = 1;
nodes = (
(242,70,o),
(138,182,o),
(138,352,cs),
(138,520,o),
(240,630,o),
(387,630,cs),
(533,630,o),
(637,521,o),
(637,352,cs),
(637,183,o),
(534,70,o),
(387,70,cs)
);
}
);
width = 775;
},
{
anchors = (
{
name = bottom;
pos = (383,0);
},
{
name = center;
pos = (383,350);
},
{
name = ogonek;
pos = (689,10);
},
{
name = top;
pos = (383,700);
},
{
name = topleft;
pos = (20,700);
},
{
name = topright;
pos = (745,700);
}
);
background = {
shapes = (
{
closed = 1;
nodes = (
(587,-10,o),
(713,155,o),
(713,350,cs),
(713,574,o),
(562,710,o),
(382,710,cs),
(177,710,o),
(52,546,o),
(52,350,cs),
(52,129,o),
(201,-10,o),
(382,-10,cs)
);
},
{
closed = 1;
nodes = (
(233,32,o),
(97,148,o),
(97,350,cs),
(97,528,o),
(208,670,o),
(382,670,cs),
(532,670,o),
(668,556,o),
(668,350,cs),
(668,175,o),
(558,32,o),
(382,32,cs)
);
}
);
};
layerId = "18A01495-E50D-4F2B-A1D8-5C332C731D93";
shapes = (
{
closed = 1;
nodes = (
(587,-10,o),
(713,155,o),
(713,350,cs),
(713,574,o),
(562,710,o),
(382,710,cs),
(177,710,o),
(52,546,o),
(52,350,cs),
(52,129,o),
(201,-10,o),
(382,-10,cs)
);
},
{
closed = 1;
nodes = (
(233,32,o),
(97,148,o),
(97,350,cs),
(97,528,o),
(208,670,o),
(382,670,cs),
(532,670,o),
(668,556,o),
(668,350,cs),
(668,175,o),
(558,32,o),
(382,32,cs)
);
}
);
width = 765;
},
{
anchors = (
{
name = bottom;
pos = (328,0);
},
{
name = center;
pos = (396,350);
},
{
name = ogonek;
pos = (632,10);
},
{
name = top;
pos = (464,700);
},
{
name = topleft;
pos = (107,700);
},
{
name = topright;
pos = (821,700);
}
);
background = {
shapes = (
{
closed = 1;
nodes = (
(540,-11,o),
(715,167,o),
(715,413,cs),
(715,574,o),
(610,710,o),
(433,710,cs),
(202,710,o),
(58,498,o),
(58,287,cs),
(58,125,o),
(163,-11,o),
(339,-11,cs)
);
},
{
closed = 1;
nodes = (
(190,29,o),
(102,147,o),
(102,289,cs),
(102,469,o),
(226,670,o),
(429,670,cs),
(583,670,o),
(671,553,o),
(671,411,cs),
(671,199,o),
(520,29,o),
(343,29,cs)
);
}
);
};
layerId = "047DE625-588D-43A1-AE3A-C97924B5E3D3";
shapes = (
{
closed = 1;
nodes = (
(540,-11,o),
(715,167,o),
(715,413,cs),
(715,574,o),
(610,710,o),
(433,710,cs),
(202,710,o),
(58,498,o),
(58,287,cs),
(58,125,o),
(163,-11,o),
(339,-11,cs)
);
},
{
closed = 1;
nodes = (
(190,29,o),
(102,147,o),
(102,289,cs),
(102,469,o),
(226,670,o),
(429,670,cs),
(583,670,o),
(671,553,o),
(671,411,cs),
(671,199,o),
(520,29,o),
(343,29,cs)
);
}
);
width = 754;
},
{
anchors = (
{
name = bottom;
pos = (332,0);
},
{
name = center;
pos = (400,350);
},
{
name = ogonek;
pos = (639,10);
},
{
name = top;
pos = (468,700);
},
{
name = topleft;
pos = (107,700);
},
{
name = topright;
pos = (829,700);
}
);
background = {
shapes = (
{
closed = 1;
nodes = (
(587,-12,o),
(729,203,o),
(729,418,cs),
(729,607,o),
(589,710,o),
(440,710,cs),
(195,710,o),
(52,496,o),
(52,282,cs),
(52,94,o),
(192,-12,o),
(341,-12,cs)
);
},
{
closed = 1;
nodes = (
(234,64,o),
(141,147,o),
(141,292,cs),
(141,454,o),
(248,635,o),
(432,635,cs),
(546,635,o),
(640,553,o),
(640,409,cs),
(640,229,o),
(520,64,o),
(349,64,cs)
);
}
);
};
layerId = "AB33B01D-3E13-404E-935A-045AA6D07EB8";
shapes = (
{
closed = 1;
nodes = (
(587,-12,o),
(729,203,o),
(729,418,cs),
(729,607,o),
(589,710,o),
(440,710,cs),
(195,710,o),
(52,496,o),
(52,282,cs),
(52,94,o),
(192,-12,o),
(341,-12,cs)
);
},
{
closed = 1;
nodes = (
(234,64,o),
(141,147,o),
(141,292,cs),
(141,454,o),
(248,635,o),
(432,635,cs),
(546,635,o),
(640,553,o),
(640,409,cs),
(640,229,o),
(520,64,o),
(349,64,cs)
);
}
);
width = 762;
},
{
anchors = (
{
name = bottom;
pos = (397,0);
},
{
name = center;
pos = (397,350);
},
{
name = ogonek;
pos = (715,10);
},
{
name = top;
pos = (397,700);
},
{
name = topleft;
pos = (20,700);
},
{
name = topright;
pos = (774,700);
}
);
background = {
shapes = (
{
closed = 1;
nodes = (
(624,-13,o),
(764,140,o),
(764,350,cs),
(764,552,o),
(632,710,o),
(397,710,cs),
(196,710,o),
(30,581,o),
(30,350,cs),
(30,149,o),
(161,-13,o),
(397,-13,cs)
);
},
{
closed = 1;
nodes = (
(295,150,o),
(230,233,o),
(230,350,cs),
(230,466,o),
(294,549,o),
(397,549,cs),
(498,549,o),
(564,466,o),
(564,350,cs),
(564,234,o),
(500,150,o),
(397,150,cs)
);
}
);
};
layerId = "9D32FE6F-9470-45EF-9689-909A6F5CE504";
shapes = (
{
closed = 1;
nodes = (
(624,-13,o),
(764,140,o),
(764,350,cs),
(764,552,o),
(632,710,o),
(397,710,cs),
(196,710,o),
(30,581,o),
(30,350,cs),
(30,149,o),
(161,-13,o),
(397,-13,cs)
);
},
{
closed = 1;
nodes = (
(295,150,o),
(230,233,o),
(230,350,cs),
(230,466,o),
(294,549,o),
(397,549,cs),
(498,549,o),
(564,466,o),
(564,350,cs),
(564,234,o),
(500,150,o),
(397,150,cs)
);
}
);
width = 794;
},
{
anchors = (
{
name = bottom;
pos = (343,0);
},
{
name = center;
pos = (411,350);
},
{
name = ogonek;
pos = (659,10);
},
{
name = top;
pos = (479,700);
},
{
name = topleft;
pos = (107,700);
},
{
name = topright;
pos = (851,700);
}
);
background = {
shapes = (
{
closed = 1;
nodes = (
(607,-13,o),
(766,185,o),
(766,402,cs),
(766,579,o),
(639,710,o),
(441,710,cs),
(228,710,o),
(35,548,o),
(35,297,cs),
(35,121,o),
(163,-13,o),
(360,-13,cs)
);
},
{
closed = 1;
nodes = (
(293,149,o),
(233,204,o),
(233,306,cs),
(233,438,o),
(317,550,o),
(428,550,cs),
(507,550,o),
(568,495,o),
(568,394,cs),
(568,277,o),
(495,149,o),
(373,149,cs)
);
}
);
};
layerId = "69B5B248-E33C-46C9-9D9F-11585640C213";
shapes = (
{
closed = 1;
nodes = (
(607,-13,o),
(766,185,o),
(766,402,cs),
(766,579,o),
(639,710,o),
(441,710,cs),
(228,710,o),
(35,548,o),
(35,297,cs),
(35,121,o),
(163,-13,o),
(360,-13,cs)
);
},
{
closed = 1;
nodes = (
(293,149,o),
(233,204,o),
(233,306,cs),
(233,438,o),
(317,550,o),
(428,550,cs),
(507,550,o),
(568,495,o),
(568,394,cs),
(568,277,o),
(495,149,o),
(373,149,cs)
);
}
);
width = 784;
}
);
note = O;
unicode = 79;
},
{
color = 5;
glyphname = P;
lastChange = "2022-05-29 18:57:48 +0000";
layers = (
{
anchors = (
{
name = bottom;
pos = (316,0);
},
{
name = top;
pos = (316,700);
}
);
background = {
shapes = (
{
closed = 1;
nodes = (
(178,0,l),
(178,272,l),
(350,272,ls),
(504,272,o),
(600,344,o),
(600,487,cs),
(600,628,o),
(507,700,o),
(351,700,cs),
(88,700,l),
(88,0,l)
);
},
{
closed = 1;
nodes = (
(178,620,l),
(350,620,ls),
(454,620,o),
(510,575,o),
(510,486,cs),
(510,397,o),
(456,352,o),
(350,352,cs),
(178,352,l)
);
}
);
};
layerId = "30E869CF-9A31-4D47-9626-61B8364FC2DA";
shapes = (
{
closed = 1;
nodes = (
(178,0,l),
(178,272,l),
(350,272,ls),
(504,272,o),
(600,344,o),
(600,487,cs),
(600,628,o),
(507,700,o),
(351,700,cs),
(88,700,l),
(88,0,l)
);
},
{
closed = 1;
nodes = (
(178,620,l),
(350,620,ls),
(454,620,o),
(510,575,o),
(510,486,cs),
(510,397,o),
(456,352,o),
(350,352,cs),
(178,352,l)
);
}
);
width = 632;
},
{
anchors = (
{
name = bottom;
pos = (306,0);
},
{
name = top;
pos = (306,700);
}
);
background = {
shapes = (
{
closed = 1;
nodes = (
(141,0,l),
(141,291,l),
(338,291,ls),
(487,291,o),
(574,365,o),
(574,495,cs),
(574,624,o),
(489,700,o),
(339,700,cs),
(96,700,l),
(96,0,l)
);
},
{
closed = 1;
nodes = (
(141,660,l),
(338,660,ls),
(462,660,o),
(529,600,o),
(529,495,cs),
(529,392,o),
(463,332,o),
(338,332,cs),
(141,332,l)
);
}
);
};
layerId = "18A01495-E50D-4F2B-A1D8-5C332C731D93";
shapes = (
{
closed = 1;
nodes = (
(141,0,l),
(141,291,l),
(338,291,ls),
(487,291,o),
(574,365,o),
(574,495,cs),
(574,624,o),
(489,700,o),
(339,700,cs),
(96,700,l),
(96,0,l)
);
},
{
closed = 1;
nodes = (
(141,660,l),
(338,660,ls),
(462,660,o),
(529,600,o),
(529,495,cs),
(529,392,o),
(463,332,o),
(338,332,cs),
(141,332,l)
);
}
);
width = 612;
},
{
anchors = (
{
name = bottom;
pos = (253,0);
},
{
name = top;
pos = (389,700);
}
);
background = {
shapes = (
{
closed = 1;
nodes = (
(80,0,l),
(136,290,l),
(336,290,ls),
(493,290,o),
(606,371,o),
(606,524,cs),
(606,636,o),
(526,700,o),
(404,700,cs),
(174,700,l),
(37,0,l)
);
},
{
closed = 1;
nodes = (
(208,661,l),
(401,661,ls),
(498,661,o),
(563,611,o),
(563,521,cs),
(563,398,o),
(474,330,o),
(345,329,cs),
(144,329,l)
);
}
);
};
layerId = "047DE625-588D-43A1-AE3A-C97924B5E3D3";
shapes = (
{
closed = 1;
nodes = (
(80,0,l),
(136,290,l),
(336,290,ls),
(493,290,o),
(606,371,o),
(606,524,cs),
(606,636,o),
(526,700,o),
(404,700,cs),
(174,700,l),
(37,0,l)
);
},
{
closed = 1;
nodes = (
(208,661,l),
(401,661,ls),
(498,661,o),
(563,611,o),
(563,521,cs),
(563,398,o),
(474,330,o),
(345,329,cs),
(144,329,l)
);
}
);
width = 603;
},
{
anchors = (
{
name = bottom;
pos = (262,0);
},
{
name = top;
pos = (398,700);
}
);
background = {
shapes = (
{
closed = 1;
nodes = (
(114,0,l),
(167,273,l),
(341,273,ls),
(518,273,o),
(627,366,o),
(627,518,cs),
(627,635,o),
(543,700,o),
(414,700,cs),
(166,700,l),
(29,0,l)
);
},
{
closed = 1;
nodes = (
(236,627,l),
(400,627,ls),
(484,627,o),
(541,589,o),
(541,511,cs),
(541,405,o),
(464,348,o),
(352,347,cs),
(182,347,l)
);
}
);
};
layerId = "AB33B01D-3E13-404E-935A-045AA6D07EB8";
shapes = (
{
closed = 1;
nodes = (
(114,0,l),
(167,273,l),
(341,273,ls),
(518,273,o),
(627,366,o),
(627,518,cs),
(627,635,o),
(543,700,o),
(414,700,cs),
(166,700,l),
(29,0,l)
);
},
{
closed = 1;
nodes = (
(236,627,l),
(400,627,ls),
(484,627,o),
(541,589,o),
(541,511,cs),
(541,405,o),
(464,348,o),
(352,347,cs),
(182,347,l)
);
}
);
width = 621;
},
{
anchors = (
{
name = bottom;
pos = (336,0);
},
{
name = top;
pos = (336,700);
}
);
background = {
shapes = (
{
closed = 1;
nodes = (
(257,0,l),
(257,221,l),
(377,221,ls),
(542,221,o),
(653,297,o),
(653,462,cs),
(653,633,o),
(533,700,o),
(377,700,cs),
(65,700,l),
(65,0,l)
);
},
{
closed = 1;
nodes = (
(257,552,l),
(350,552,ls),
(419,552,o),
(456,522,o),
(456,460,cs),
(456,399,o),
(421,369,o),
(350,369,cs),
(257,369,l)
);
}
);
};
layerId = "9D32FE6F-9470-45EF-9689-909A6F5CE504";
shapes = (
{
closed = 1;
nodes = (
(257,0,l),
(257,221,l),
(377,221,ls),
(542,221,o),
(653,297,o),
(653,462,cs),
(653,633,o),
(533,700,o),
(377,700,cs),
(65,700,l),
(65,0,l)
);
},
{
closed = 1;
nodes = (
(257,552,l),
(350,552,ls),
(419,552,o),
(456,522,o),
(456,460,cs),
(456,399,o),
(421,369,o),
(350,369,cs),
(257,369,l)
);
}
);
width = 672;
},
{
anchors = (
{
name = bottom;
pos = (283,0);
},
{
name = top;
pos = (419,700);
}
);
background = {
shapes = (
{
closed = 1;
nodes = (
(196,0,l),
(239,221,l),
(362,221,ls),
(539,221,o),
(676,316,o),
(676,494,cs),
(676,615,o),
(592,700,o),
(442,700,cs),
(141,700,l),
(5,0,l)
);
},
{
closed = 1;
nodes = (
(303,553,l),
(388,553,ls),
(446,553,o),
(482,530,o),
(482,480,cs),
(482,410,o),
(431,368,o),
(356,368,cs),
(268,368,l)
);
}
);
};
layerId = "69B5B248-E33C-46C9-9D9F-11585640C213";
shapes = (
{
closed = 1;
nodes = (
(196,0,l),
(239,221,l),
(362,221,ls),
(539,221,o),
(676,316,o),
(676,494,cs),
(676,615,o),
(592,700,o),
(442,700,cs),
(141,700,l),
(5,0,l)
);
},
{
closed = 1;
nodes = (
(303,553,l),
(388,553,ls),
(446,553,o),
(482,530,o),
(482,480,cs),
(482,410,o),
(431,368,o),
(356,368,cs),
(268,368,l)
);
}
);
width = 664;
}
);
note = P;
unicode = 80;
},
{
color = 5;
glyphname = Q;
kernLeft = C;
lastChange = "2022-05-29 18:57:48 +0000";
layers = (
{
anchors = (
{
name = bottom;
pos = (388,0);
},
{
name = top;
pos = (388,700);
}
);
background = {
shapes = (
{
closed = 1;
nodes = (
(668,-18,l),
(591,75,l),
(517,30,l),
(603,-72,l)
);
},
{
ref = O;
}
);
};
layerId = "30E869CF-9A31-4D47-9626-61B8364FC2DA";
shapes = (
{
closed = 1;
nodes = (
(668,-18,l),
(591,75,l),
(517,30,l),
(603,-72,l)
);
},
{
ref = O;
}
);
width = 775;
},
{
anchors = (
{
name = bottom;
pos = (383,0);
},
{
name = top;
pos = (383,700);
}
);
background = {
shapes = (
{
closed = 1;
nodes = (
(649,-26,l),
(574,64,l),
(536,39,l),
(614,-55,l)
);
},
{
ref = O;
}
);
};
layerId = "18A01495-E50D-4F2B-A1D8-5C332C731D93";
shapes = (
{
closed = 1;
nodes = (
(649,-26,l),
(574,64,l),
(536,39,l),
(614,-55,l)
);
},
{
ref = O;
}
);
width = 765;
},
{
anchors = (
{
name = bottom;
pos = (328,0);
},
{
name = top;
pos = (464,700);
}
);
background = {
shapes = (
{
closed = 1;
nodes = (
(612,-79,l),
(519,52,l),
(483,33,l),
(571,-91,l)
);
},
{
ref = O;
}
);
};
layerId = "047DE625-588D-43A1-AE3A-C97924B5E3D3";
shapes = (
{
closed = 1;
nodes = (
(612,-79,l),
(519,52,l),
(483,33,l),
(571,-91,l)
);
},
{
ref = O;
}
);
width = 753;
},
{
anchors = (
{
name = bottom;
pos = (332,0);
},
{
name = top;
pos = (468,700);
}
);
background = {
shapes = (
{
closed = 1;
nodes = (
(636,-70,l),
(543,69,l),
(473,31,l),
(556,-94,l)
);
},
{
ref = O;
}
);
};
layerId = "AB33B01D-3E13-404E-935A-045AA6D07EB8";
shapes = (
{
closed = 1;
nodes = (
(636,-70,l),
(543,69,l),
(473,31,l),
(556,-94,l)
);
},
{
ref = O;
}
);
width = 762;
},
{
anchors = (
{
name = bottom;
pos = (398,0);
},
{
name = top;
pos = (398,700);
}
);
background = {
shapes = (
{
closed = 1;
nodes = (
(750,-39,l),
(643,93,l),
(502,19,l),
(593,-88,l)
);
},
{
ref = O;
}
);
};
layerId = "9D32FE6F-9470-45EF-9689-909A6F5CE504";
shapes = (
{
closed = 1;
nodes = (
(750,-39,l),
(643,93,l),
(502,19,l),
(593,-88,l)
);
},
{
ref = O;
}
);
width = 795;
},
{
anchors = (
{
name = bottom;
pos = (344,0);
},
{
name = top;
pos = (480,700);
}
);
background = {
shapes = (
{
closed = 1;
nodes = (
(696,-44,l),
(611,95,l),
(470,21,l),
(542,-89,l)
);
},
{
ref = O;
}
);
};
layerId = "69B5B248-E33C-46C9-9D9F-11585640C213";
shapes = (
{
closed = 1;
nodes = (
(696,-44,l),
(611,95,l),
(470,21,l),
(542,-89,l)
);
},
{
ref = O;
}
);
width = 785;
}
);
note = Q;
unicode = 81;
},
{
color = 5;
glyphname = R;
kernRight = R;
lastChange = "2022-05-29 18:57:48 +0000";
layers = (
{
anchors = (
{
name = bottom;
pos = (341,0);
},
{
name = top;
pos = (341,700);
}
);
background = {
shapes = (
{
closed = 1;
nodes = (
(178,0,l),
(178,295,l),
(376,295,ls),
(548,295,o),
(619,388,o),
(619,498,cs),
(619,628,o),
(529,700,o),
(383,700,cs),
(88,700,l),
(88,0,l)
);
},
{
closed = 1;
nodes = (
(643,0,l),
(455,319,l),
(357,309,l),
(539,0,l)
);
},
{
closed = 1;
nodes = (
(178,620,l),
(379,620,ls),
(471,620,o),
(529,581,o),
(529,497,cs),
(529,415,o),
(472,375,o),
(379,375,cs),
(178,375,l)
);
}
);
};
layerId = "30E869CF-9A31-4D47-9626-61B8364FC2DA";
shapes = (
{
closed = 1;
nodes = (
(178,0,l),
(178,295,l),
(376,295,ls),
(548,295,o),
(619,388,o),
(619,498,cs),
(619,628,o),
(529,700,o),
(383,700,cs),
(88,700,l),
(88,0,l)
);
},
{
closed = 1;
nodes = (
(643,0,l),
(455,319,l),
(357,309,l),
(539,0,l)
);
},
{
closed = 1;
nodes = (
(178,620,l),
(379,620,ls),
(471,620,o),
(529,581,o),
(529,497,cs),
(529,415,o),
(472,375,o),
(379,375,cs),
(178,375,l)
);
}
);
width = 682;
},
{
anchors = (
{
name = bottom;
pos = (331,0);
},
{
name = top;
pos = (331,700);
}
);
background = {
shapes = (
{
closed = 1;
nodes = (
(141,0,l),
(141,318,l),
(381,318,ls),
(516,318,o),
(595,400,o),
(595,509,cs),
(595,624,o),
(515,700,o),
(375,700,cs),
(96,700,l),
(96,0,l)
);
},
{
closed = 1;
nodes = (
(617,0,l),
(414,331,l),
(366,328,l),
(567,0,l)
);
},
{
closed = 1;
nodes = (
(141,660,l),
(372,660,ls),
(485,660,o),
(550,604,o),
(550,509,cs),
(550,415,o),
(487,358,o),
(372,358,cs),
(141,358,l)
);
}
);
};
layerId = "18A01495-E50D-4F2B-A1D8-5C332C731D93";
shapes = (
{
closed = 1;
nodes = (
(141,0,l),
(141,318,l),
(381,318,ls),
(516,318,o),
(595,400,o),
(595,509,cs),
(595,624,o),
(515,700,o),
(375,700,cs),
(96,700,l),
(96,0,l)
);
},
{
closed = 1;
nodes = (
(617,0,l),
(414,331,l),
(366,328,l),
(567,0,l)
);
},
{
closed = 1;
nodes = (
(141,660,l),
(372,660,ls),
(485,660,o),
(550,604,o),
(550,509,cs),
(550,415,o),
(487,358,o),
(372,358,cs),
(141,358,l)
);
}
);
width = 661;
},
{
anchors = (
{
name = bottom;
pos = (277,0);
},
{
name = top;
pos = (413,700);
}
);
background = {
shapes = (
{
closed = 1;
nodes = (
(79,0,l),
(140,315,l),
(374,315,ls),
(520,315,o),
(630,396,o),
(630,534,cs),
(630,633,o),
(557,700,o),
(437,700,cs),
(173,700,l),
(37,0,l)
);
},
{
closed = 1;
nodes = (
(549,0,l),
(412,329,l),
(368,325,l),
(504,0,l)
);
},
{
closed = 1;
nodes = (
(207,661,l),
(430,661,ls),
(527,661,o),
(587,615,o),
(587,531,cs),
(587,417,o),
(496,354,o),
(376,354,cs),
(148,354,l)
);
}
);
};
layerId = "047DE625-588D-43A1-AE3A-C97924B5E3D3";
shapes = (
{
closed = 1;
nodes = (
(79,0,l),
(140,315,l),
(374,315,ls),
(520,315,o),
(630,396,o),
(630,534,cs),
(630,633,o),
(557,700,o),
(437,700,cs),
(173,700,l),
(37,0,l)
);
},
{
closed = 1;
nodes = (
(549,0,l),
(412,329,l),
(368,325,l),
(504,0,l)
);
},
{
closed = 1;
nodes = (
(207,661,l),
(430,661,ls),
(527,661,o),
(587,615,o),
(587,531,cs),
(587,417,o),
(496,354,o),
(376,354,cs),
(148,354,l)
);
}
);
width = 651;
},
{
anchors = (
{
name = bottom;
pos = (286,0);
},
{
name = top;
pos = (422,700);
}
);
background = {
shapes = (
{
closed = 1;
nodes = (
(113,0,l),
(171,297,l),
(373,297,ls),
(557,297,o),
(649,399,o),
(649,528,cs),
(649,631,o),
(572,700,o),
(445,700,cs),
(166,700,l),
(29,0,l)
);
},
{
closed = 1;
nodes = (
(571,0,l),
(446,321,l),
(360,312,l),
(481,0,l)
);
},
{
closed = 1;
nodes = (
(235,627,l),
(430,627,ls),
(512,627,o),
(563,591,o),
(563,520,cs),
(563,423,o),
(487,369,o),
(384,369,cs),
(185,369,l)
);
}
);
};
layerId = "AB33B01D-3E13-404E-935A-045AA6D07EB8";
shapes = (
{
closed = 1;
nodes = (
(113,0,l),
(171,297,l),
(373,297,ls),
(557,297,o),
(649,399,o),
(649,528,cs),
(649,631,o),
(572,700,o),
(445,700,cs),
(166,700,l),
(29,0,l)
);
},
{
closed = 1;
nodes = (
(571,0,l),
(446,321,l),
(360,312,l),
(481,0,l)
);
},
{
closed = 1;
nodes = (
(235,627,l),
(430,627,ls),
(512,627,o),
(563,591,o),
(563,520,cs),
(563,423,o),
(487,369,o),
(384,369,cs),
(185,369,l)
);
}
);
width = 669;
},
{
anchors = (
{
name = bottom;
pos = (358,0);
},
{
name = top;
pos = (358,700);
}
);
background = {
shapes = (
{
closed = 1;
nodes = (
(255,0,l),
(255,243,l),
(381,243,ls),
(630,243,o),
(669,381,o),
(669,479,cs),
(669,622,o),
(574,700,o),
(402,700,cs),
(65,700,l),
(65,0,l)
);
},
{
closed = 1;
nodes = (
(694,0,l),
(536,295,l),
(346,257,l),
(480,0,l)
);
},
{
closed = 1;
nodes = (
(255,552,l),
(374,552,ls),
(435,552,o),
(472,524,o),
(472,468,cs),
(472,413,o),
(436,386,o),
(374,386,cs),
(255,386,l)
);
}
);
};
layerId = "9D32FE6F-9470-45EF-9689-909A6F5CE504";
shapes = (
{
closed = 1;
nodes = (
(255,0,l),
(255,243,l),
(381,243,ls),
(630,243,o),
(669,381,o),
(669,479,cs),
(669,622,o),
(574,700,o),
(402,700,cs),
(65,700,l),
(65,0,l)
);
},
{
closed = 1;
nodes = (
(694,0,l),
(536,295,l),
(346,257,l),
(480,0,l)
);
},
{
closed = 1;
nodes = (
(255,552,l),
(374,552,ls),
(435,552,o),
(472,524,o),
(472,468,cs),
(472,413,o),
(436,386,o),
(374,386,cs),
(255,386,l)
);
}
);
width = 715;
},
{
anchors = (
{
name = bottom;
pos = (304,0);
},
{
name = top;
pos = (440,700);
}
);
background = {
shapes = (
{
closed = 1;
nodes = (
(195,0,l),
(243,244,l),
(351,244,ls),
(621,244,o),
(693,386,o),
(693,503,cs),
(693,626,o),
(602,700,o),
(456,700,cs),
(141,700,l),
(5,0,l)
);
},
{
closed = 1;
nodes = (
(623,0,l),
(523,289,l),
(339,259,l),
(423,0,l)
);
},
{
closed = 1;
nodes = (
(302,553,l),
(415,553,ls),
(467,553,o),
(499,531,o),
(499,483,cs),
(499,423,o),
(451,385,o),
(386,385,cs),
(270,385,l)
);
}
);
};
layerId = "69B5B248-E33C-46C9-9D9F-11585640C213";
shapes = (
{
closed = 1;
nodes = (
(195,0,l),
(243,244,l),
(351,244,ls),
(621,244,o),
(693,386,o),
(693,503,cs),
(693,626,o),
(602,700,o),
(456,700,cs),
(141,700,l),
(5,0,l)
);
},
{
closed = 1;
nodes = (
(623,0,l),
(523,289,l),
(339,259,l),
(423,0,l)
);
},
{
closed = 1;
nodes = (
(302,553,l),
(415,553,ls),
(467,553,o),
(499,531,o),
(499,483,cs),
(499,423,o),
(451,385,o),
(386,385,cs),
(270,385,l)
);
}
);
width = 705;
}
);
note = R;
unicode = 82;
},
{
color = 5;
glyphname = S;
kernLeft = S;
kernRight = S;
lastChange = "2022-05-29 18:57:48 +0000";
layers = (
{
anchors = (
{
name = bottom;
pos = (318,0);
},
{
name = top;
pos = (318,700);
}
);
background = {
shapes = (
{
closed = 1;
nodes = (
(475,-10,o),
(588,67,o),
(588,193,cs),
(588,298,o),
(517,355,o),
(403,382,cs),
(266,414,ls),
(192,431,o),
(154,461,o),
(154,516,cs),
(154,586,o),
(228,630,o),
(315,630,cs),
(405,630,o),
(473,587,o),
(483,502,c),
(573,502,l),
(565,634,o),
(456,710,o),
(314,710,cs),
(176,710,o),
(64,631,o),
(64,512,cs),
(64,412,o),
(130,353,o),
(239,328,cs),
(372,297,ls),
(451,279,o),
(498,246,o),
(498,188,cs),
(498,116,o),
(424,70,o),
(324,70,cs),
(220,70,o),
(142,120,o),
(132,212,c),
(42,212,l),
(52,69,o),
(162,-10,o),
(323,-10,cs)
);
}
);
};
layerId = "30E869CF-9A31-4D47-9626-61B8364FC2DA";
shapes = (
{
closed = 1;
nodes = (
(475,-10,o),
(588,67,o),
(588,193,cs),
(588,298,o),
(517,355,o),
(403,382,cs),
(266,414,ls),
(192,431,o),
(154,461,o),
(154,516,cs),
(154,586,o),
(228,630,o),
(315,630,cs),
(405,630,o),
(473,587,o),
(483,502,c),
(573,502,l),
(565,634,o),
(456,710,o),
(314,710,cs),
(176,710,o),
(64,631,o),
(64,512,cs),
(64,412,o),
(130,353,o),
(239,328,cs),
(372,297,ls),
(451,279,o),
(498,246,o),
(498,188,cs),
(498,116,o),
(424,70,o),
(324,70,cs),
(220,70,o),
(142,120,o),
(132,212,c),
(42,212,l),
(52,69,o),
(162,-10,o),
(323,-10,cs)
);
}
);
width = 636;
},
{
anchors = (
{
name = bottom;
pos = (310,0);
},
{
name = top;
pos = (310,700);
}
);
background = {
shapes = (
{
closed = 1;
nodes = (
(441,-10,o),
(566,55,o),
(566,182,cs),
(566,282,o),
(493,330,o),
(389,356,cs),
(249,391,ls),
(173,410,o),
(116,446,o),
(116,523,cs),
(116,610,o),
(201,670,o),
(310,670,cs),
(416,670,o),
(496,615,o),
(506,508,c),
(551,508,l),
(541,636,o),
(444,710,o),
(310,710,cs),
(172,710,o),
(71,629,o),
(71,522,cs),
(71,425,o),
(136,376,o),
(237,350,cs),
(375,315,ls),
(450,296,o),
(521,264,o),
(521,180,cs),
(521,78,o),
(418,30,o),
(311,30,cs),
(189,30,o),
(103,86,o),
(93,203,c),
(48,203,l),
(59,60,o),
(164,-10,o),
(311,-10,cs)
);
}
);
};
layerId = "18A01495-E50D-4F2B-A1D8-5C332C731D93";
shapes = (
{
closed = 1;
nodes = (
(441,-10,o),
(566,55,o),
(566,182,cs),
(566,282,o),
(493,330,o),
(389,356,cs),
(249,391,ls),
(173,410,o),
(116,446,o),
(116,523,cs),
(116,610,o),
(201,670,o),
(310,670,cs),
(416,670,o),
(496,615,o),
(506,508,c),
(551,508,l),
(541,636,o),
(444,710,o),
(310,710,cs),
(172,710,o),
(71,629,o),
(71,522,cs),
(71,425,o),
(136,376,o),
(237,350,cs),
(375,315,ls),
(450,296,o),
(521,264,o),
(521,180,cs),
(521,78,o),
(418,30,o),
(311,30,cs),
(189,30,o),
(103,86,o),
(93,203,c),
(48,203,l),
(59,60,o),
(164,-10,o),
(311,-10,cs)
);
}
);
width = 619;
},
{
anchors = (
{
name = bottom;
pos = (259,0);
},
{
name = top;
pos = (395,700);
}
);
background = {
shapes = (
{
closed = 1;
nodes = (
(413,-12,o),
(539,58,o),
(539,183,cs),
(539,272,o),
(480,321,o),
(392,351,cs),
(273,393,ls),
(205,417,o),
(159,451,o),
(159,520,cs),
(159,623,o),
(263,671,o),
(356,671,cs),
(460,671,o),
(538,617,o),
(541,508,c),
(585,508,l),
(584,635,o),
(488,710,o),
(357,710,cs),
(242,710,o),
(116,646,o),
(116,517,cs),
(116,430,o),
(171,384,o),
(255,355,cs),
(370,315,ls),
(444,288,o),
(496,252,o),
(496,179,cs),
(496,81,o),
(387,28,o),
(285,28,cs),
(166,28,o),
(77,89,o),
(74,201,c),
(30,201,l),
(33,62,o),
(140,-12,o),
(283,-12,cs)
);
}
);
};
layerId = "047DE625-588D-43A1-AE3A-C97924B5E3D3";
shapes = (
{
closed = 1;
nodes = (
(413,-12,o),
(539,58,o),
(539,183,cs),
(539,272,o),
(480,321,o),
(392,351,cs),
(273,393,ls),
(205,417,o),
(159,451,o),
(159,520,cs),
(159,623,o),
(263,671,o),
(356,671,cs),
(460,671,o),
(538,617,o),
(541,508,c),
(585,508,l),
(584,635,o),
(488,710,o),
(357,710,cs),
(242,710,o),
(116,646,o),
(116,517,cs),
(116,430,o),
(171,384,o),
(255,355,cs),
(370,315,ls),
(444,288,o),
(496,252,o),
(496,179,cs),
(496,81,o),
(387,28,o),
(285,28,cs),
(166,28,o),
(77,89,o),
(74,201,c),
(30,201,l),
(33,62,o),
(140,-12,o),
(283,-12,cs)
);
}
);
width = 616;
},
{
anchors = (
{
name = bottom;
pos = (266,0);
},
{
name = top;
pos = (402,700);
}
);
background = {
shapes = (
{
closed = 1;
nodes = (
(419,-12,o),
(558,54,o),
(558,197,cs),
(558,292,o),
(492,347,o),
(403,373,cs),
(293,408,ls),
(234,427,o),
(189,456,o),
(189,513,cs),
(189,593,o),
(272,637,o),
(361,637,cs),
(452,637,o),
(517,593,o),
(519,502,c),
(603,502,l),
(606,645,o),
(490,710,o),
(365,710,cs),
(212,710,o),
(107,624,o),
(107,506,cs),
(107,413,o),
(167,361,o),
(255,333,cs),
(360,300,ls),
(423,279,o),
(474,249,o),
(474,188,cs),
(474,99,o),
(373,62,o),
(293,62,cs),
(185,62,o),
(111,112,o),
(110,210,c),
(25,210,l),
(22,55,o),
(142,-12,o),
(288,-12,cs)
);
}
);
};
layerId = "AB33B01D-3E13-404E-935A-045AA6D07EB8";
shapes = (
{
closed = 1;
nodes = (
(419,-12,o),
(558,54,o),
(558,197,cs),
(558,292,o),
(492,347,o),
(403,373,cs),
(293,408,ls),
(234,427,o),
(189,456,o),
(189,513,cs),
(189,593,o),
(272,637,o),
(361,637,cs),
(452,637,o),
(517,593,o),
(519,502,c),
(603,502,l),
(606,645,o),
(490,710,o),
(365,710,cs),
(212,710,o),
(107,624,o),
(107,506,cs),
(107,413,o),
(167,361,o),
(255,333,cs),
(360,300,ls),
(423,279,o),
(474,249,o),
(474,188,cs),
(474,99,o),
(373,62,o),
(293,62,cs),
(185,62,o),
(111,112,o),
(110,210,c),
(25,210,l),
(22,55,o),
(142,-12,o),
(288,-12,cs)
);
}
);
width = 629;
},
{
anchors = (
{
name = bottom;
pos = (341,0);
},
{
name = top;
pos = (341,700);
}
);
background = {
shapes = (
{
closed = 1;
nodes = (
(502,-13,o),
(649,61,o),
(649,215,cs),
(649,338,o),
(562,398,o),
(432,424,cs),
(319,447,ls),
(264,458,o),
(236,473,o),
(236,508,cs),
(236,544,o),
(275,571,o),
(331,571,cs),
(393,571,o),
(441,544,o),
(448,484,c),
(637,484,l),
(627,650,o),
(482,710,o),
(332,710,cs),
(166,710,o),
(46,621,o),
(46,490,cs),
(46,371,o),
(131,311,o),
(258,285,cs),
(368,263,ls),
(425,251,o),
(457,234,o),
(457,197,cs),
(457,151,o),
(411,129,o),
(351,129,cs),
(282,129,o),
(227,162,o),
(221,232,c),
(32,232,l),
(41,82,o),
(150,-13,o),
(348,-13,cs)
);
}
);
};
layerId = "9D32FE6F-9470-45EF-9689-909A6F5CE504";
shapes = (
{
closed = 1;
nodes = (
(502,-13,o),
(649,61,o),
(649,215,cs),
(649,338,o),
(562,398,o),
(432,424,cs),
(319,447,ls),
(264,458,o),
(236,473,o),
(236,508,cs),
(236,544,o),
(275,571,o),
(331,571,cs),
(393,571,o),
(441,544,o),
(448,484,c),
(637,484,l),
(627,650,o),
(482,710,o),
(332,710,cs),
(166,710,o),
(46,621,o),
(46,490,cs),
(46,371,o),
(131,311,o),
(258,285,cs),
(368,263,ls),
(425,251,o),
(457,234,o),
(457,197,cs),
(457,151,o),
(411,129,o),
(351,129,cs),
(282,129,o),
(227,162,o),
(221,232,c),
(32,232,l),
(41,82,o),
(150,-13,o),
(348,-13,cs)
);
}
);
width = 682;
},
{
anchors = (
{
name = bottom;
pos = (288,0);
},
{
name = top;
pos = (424,700);
}
);
background = {
shapes = (
{
closed = 1;
nodes = (
(465,-13,o),
(620,67,o),
(620,229,cs),
(620,331,o),
(544,388,o),
(438,417,cs),
(344,442,ls),
(299,454,o),
(270,471,o),
(270,503,cs),
(270,545,o),
(316,572,o),
(369,572,cs),
(431,572,o),
(476,539,o),
(476,484,c),
(661,484,l),
(666,637,o),
(524,710,o),
(381,710,cs),
(213,710,o),
(81,619,o),
(81,477,cs),
(81,382,o),
(147,321,o),
(254,292,cs),
(344,267,ls),
(395,253,o),
(429,235,o),
(429,200,cs),
(429,158,o),
(387,128,o),
(322,128,cs),
(252,128,o),
(200,163,o),
(201,232,c),
(15,232,l),
(8,84,o),
(123,-13,o),
(311,-13,cs)
);
}
);
};
layerId = "69B5B248-E33C-46C9-9D9F-11585640C213";
shapes = (
{
closed = 1;
nodes = (
(465,-13,o),
(620,67,o),
(620,229,cs),
(620,331,o),
(544,388,o),
(438,417,cs),
(344,442,ls),
(299,454,o),
(270,471,o),
(270,503,cs),
(270,545,o),
(316,572,o),
(369,572,cs),
(431,572,o),
(476,539,o),
(476,484,c),
(661,484,l),
(666,637,o),
(524,710,o),
(381,710,cs),
(213,710,o),
(81,619,o),
(81,477,cs),
(81,382,o),
(147,321,o),
(254,292,cs),
(344,267,ls),
(395,253,o),
(429,235,o),
(429,200,cs),
(429,158,o),
(387,128,o),
(322,128,cs),
(252,128,o),
(200,163,o),
(201,232,c),
(15,232,l),
(8,84,o),
(123,-13,o),
(311,-13,cs)
);
}
);
width = 673;
}
);
note = S;
unicode = 83;
},
{
color = 5;
glyphname = T;
kernLeft = T;
kernRight = T;
lastChange = "2022-05-29 18:57:48 +0000";
layers = (
{
anchors = (
{
name = bottom;
pos = (315,0);
},
{
name = center;
pos = (315,350);
},
{
name = top;
pos = (315,700);
}
);
background = {
shapes = (
{
closed = 1;
nodes = (
(361,0,l),
(361,620,l),
(603,620,l),
(603,700,l),
(27,700,l),
(27,620,l),
(271,620,l),
(271,0,l)
);
}
);
};
layerId = "30E869CF-9A31-4D47-9626-61B8364FC2DA";
shapes = (
{
closed = 1;
nodes = (
(361,0,l),
(361,620,l),
(603,620,l),
(603,700,l),
(27,700,l),
(27,620,l),
(271,620,l),
(271,0,l)
);
}
);
width = 630;
},
{
anchors = (
{
name = bottom;
pos = (311,0);
},
{
name = center;
pos = (311,350);
},
{
name = top;
pos = (311,700);
}
);
background = {
shapes = (
{
closed = 1;
nodes = (
(334,0,l),
(334,660,l),
(595,660,l),
(595,700,l),
(28,700,l),
(28,660,l),
(289,660,l),
(289,0,l)
);
}
);
};
layerId = "18A01495-E50D-4F2B-A1D8-5C332C731D93";
shapes = (
{
closed = 1;
nodes = (
(334,0,l),
(334,660,l),
(595,660,l),
(595,700,l),
(28,700,l),
(28,660,l),
(289,660,l),
(289,0,l)
);
}
);
width = 622;
},
{
anchors = (
{
name = bottom;
pos = (258,0);
},
{
name = center;
pos = (326,350);
},
{
name = top;
pos = (394,700);
}
);
background = {
shapes = (
{
closed = 1;
nodes = (
(270,0,l),
(399,661,l),
(655,661,l),
(663,700,l),
(107,700,l),
(99,661,l),
(356,661,l),
(227,0,l)
);
}
);
};
layerId = "047DE625-588D-43A1-AE3A-C97924B5E3D3";
shapes = (
{
closed = 1;
nodes = (
(270,0,l),
(399,661,l),
(655,661,l),
(663,700,l),
(107,700,l),
(99,661,l),
(356,661,l),
(227,0,l)
);
}
);
width = 613;
},
{
anchors = (
{
name = bottom;
pos = (261,0);
},
{
name = center;
pos = (329,350);
},
{
name = top;
pos = (397,700);
}
);
background = {
shapes = (
{
closed = 1;
nodes = (
(294,0,l),
(415,626,l),
(655,626,l),
(670,700,l),
(105,700,l),
(90,626,l),
(331,626,l),
(209,0,l)
);
}
);
};
layerId = "AB33B01D-3E13-404E-935A-045AA6D07EB8";
shapes = (
{
closed = 1;
nodes = (
(294,0,l),
(415,626,l),
(655,626,l),
(670,700,l),
(105,700,l),
(90,626,l),
(331,626,l),
(209,0,l)
);
}
);
width = 619;
},
{
anchors = (
{
name = bottom;
pos = (327,0);
},
{
name = center;
pos = (327,350);
},
{
name = top;
pos = (327,700);
}
);
background = {
shapes = (
{
closed = 1;
nodes = (
(423,0,l),
(423,538,l),
(634,538,l),
(634,700,l),
(19,700,l),
(19,538,l),
(230,538,l),
(230,0,l)
);
}
);
};
layerId = "9D32FE6F-9470-45EF-9689-909A6F5CE504";
shapes = (
{
closed = 1;
nodes = (
(423,0,l),
(423,538,l),
(634,538,l),
(634,700,l),
(19,700,l),
(19,538,l),
(230,538,l),
(230,0,l)
);
}
);
width = 653;
},
{
anchors = (
{
name = bottom;
pos = (273,0);
},
{
name = center;
pos = (341,350);
},
{
name = top;
pos = (409,700);
}
);
background = {
shapes = (
{
closed = 1;
nodes = (
(358,0,l),
(463,539,l),
(669,539,l),
(701,700,l),
(96,700,l),
(64,539,l),
(271,539,l),
(166,0,l)
);
}
);
};
layerId = "69B5B248-E33C-46C9-9D9F-11585640C213";
shapes = (
{
closed = 1;
nodes = (
(358,0,l),
(463,539,l),
(669,539,l),
(701,700,l),
(96,700,l),
(64,539,l),
(271,539,l),
(166,0,l)
);
}
);
width = 643;
}
);
note = T;
unicode = 84;
},
{
color = 5;
glyphname = U;
kernLeft = U;
kernRight = U;
lastChange = "2022-05-29 18:57:48 +0000";
layers = (
{
anchors = (
{
name = bottom;
pos = (352,0);
},
{
name = ogonek;
pos = (634,10);
},
{
name = top;
pos = (352,700);
},
{
name = topright;
pos = (684,700);
}
);
background = {
shapes = (
{
closed = 1;
nodes = (
(515,-10,o),
(629,92,o),
(629,273,cs),
(629,700,l),
(539,700,l),
(539,272,ls),
(539,147,o),
(469,70,o),
(352,70,cs),
(238,70,o),
(165,147,o),
(165,273,cs),
(165,700,l),
(75,700,l),
(75,272,ls),
(75,93,o),
(187,-10,o),
(352,-10,cs)
);
}
);
};
layerId = "30E869CF-9A31-4D47-9626-61B8364FC2DA";
shapes = (
{
closed = 1;
nodes = (
(515,-10,o),
(629,92,o),
(629,273,cs),
(629,700,l),
(539,700,l),
(539,272,ls),
(539,147,o),
(469,70,o),
(352,70,cs),
(238,70,o),
(165,147,o),
(165,273,cs),
(165,700,l),
(75,700,l),
(75,272,ls),
(75,93,o),
(187,-10,o),
(352,-10,cs)
);
}
);
width = 704;
},
{
anchors = (
{
name = bottom;
pos = (343,0);
},
{
name = ogonek;
pos = (617,10);
},
{
name = top;
pos = (343,700);
},
{
name = topright;
pos = (665,700);
}
);
background = {
shapes = (
{
closed = 1;
nodes = (
(504,-10,o),
(604,102,o),
(604,262,cs),
(604,700,l),
(559,700,l),
(559,264,ls),
(559,121,o),
(472,30,o),
(343,30,cs),
(215,30,o),
(126,120,o),
(126,264,cs),
(126,700,l),
(81,700,l),
(81,262,ls),
(81,88,o),
(193,-10,o),
(343,-10,cs)
);
}
);
};
layerId = "18A01495-E50D-4F2B-A1D8-5C332C731D93";
shapes = (
{
closed = 1;
nodes = (
(504,-10,o),
(604,102,o),
(604,262,cs),
(604,700,l),
(559,700,l),
(559,264,ls),
(559,121,o),
(472,30,o),
(343,30,cs),
(215,30,o),
(126,120,o),
(126,264,cs),
(126,700,l),
(81,700,l),
(81,262,ls),
(81,88,o),
(193,-10,o),
(343,-10,cs)
);
}
);
width = 685;
},
{
anchors = (
{
name = bottom;
pos = (289,0);
},
{
name = ogonek;
pos = (561,10);
},
{
name = top;
pos = (425,700);
},
{
name = topright;
pos = (742,700);
}
);
background = {
shapes = (
{
closed = 1;
nodes = (
(447,-12,o),
(551,81,o),
(585,256,cs),
(671,700,l),
(628,700,l),
(542,257,ls),
(514,114,o),
(426,28,o),
(297,28,cs),
(153,28,o),
(91,131,o),
(116,259,cs),
(201,700,l),
(158,700,l),
(74,264,ls),
(45,113,o),
(121,-12,o),
(292,-12,cs)
);
}
);
};
layerId = "047DE625-588D-43A1-AE3A-C97924B5E3D3";
shapes = (
{
closed = 1;
nodes = (
(447,-12,o),
(551,81,o),
(585,256,cs),
(671,700,l),
(628,700,l),
(542,257,ls),
(514,114,o),
(426,28,o),
(297,28,cs),
(153,28,o),
(91,131,o),
(116,259,cs),
(201,700,l),
(158,700,l),
(74,264,ls),
(45,113,o),
(121,-12,o),
(292,-12,cs)
);
}
);
width = 675;
},
{
anchors = (
{
name = bottom;
pos = (297,0);
},
{
name = ogonek;
pos = (576,10);
},
{
name = top;
pos = (433,700);
},
{
name = topright;
pos = (759,700);
}
);
background = {
shapes = (
{
closed = 1;
nodes = (
(468,-12,o),
(572,82,o),
(608,263,cs),
(694,700,l),
(609,700,l),
(524,266,ls),
(499,136,o),
(418,65,o),
(309,65,cs),
(182,65,o),
(133,155,o),
(156,276,cs),
(238,700,l),
(153,700,l),
(71,276,ls),
(39,113,o),
(122,-12,o),
(305,-12,cs)
);
}
);
};
layerId = "AB33B01D-3E13-404E-935A-045AA6D07EB8";
shapes = (
{
closed = 1;
nodes = (
(468,-12,o),
(572,82,o),
(608,263,cs),
(694,700,l),
(609,700,l),
(524,266,ls),
(499,136,o),
(418,65,o),
(309,65,cs),
(182,65,o),
(133,155,o),
(156,276,cs),
(238,700,l),
(153,700,l),
(71,276,ls),
(39,113,o),
(122,-12,o),
(305,-12,cs)
);
}
);
width = 692;
},
{
anchors = (
{
name = bottom;
pos = (374,0);
},
{
name = ogonek;
pos = (672,10);
},
{
name = top;
pos = (374,700);
},
{
name = topright;
pos = (727,700);
}
);
background = {
shapes = (
{
closed = 1;
nodes = (
(553,-12,o),
(689,75,o),
(689,286,cs),
(689,700,l),
(496,700,l),
(496,291,ls),
(496,203,o),
(452,151,o),
(374,151,cs),
(297,151,o),
(251,202,o),
(251,292,cs),
(251,700,l),
(58,700,l),
(58,286,ls),
(58,98,o),
(166,-12,o),
(373,-12,cs)
);
}
);
};
layerId = "9D32FE6F-9470-45EF-9689-909A6F5CE504";
shapes = (
{
closed = 1;
nodes = (
(553,-12,o),
(689,75,o),
(689,286,cs),
(689,700,l),
(496,700,l),
(496,291,ls),
(496,203,o),
(452,151,o),
(374,151,cs),
(297,151,o),
(251,202,o),
(251,292,cs),
(251,700,l),
(58,700,l),
(58,286,ls),
(58,98,o),
(166,-12,o),
(373,-12,cs)
);
}
);
width = 747;
},
{
anchors = (
{
name = bottom;
pos = (320,0);
},
{
name = ogonek;
pos = (616,10);
},
{
name = top;
pos = (456,700);
},
{
name = topright;
pos = (804,700);
}
);
background = {
shapes = (
{
closed = 1;
nodes = (
(512,-12,o),
(635,81,o),
(674,281,cs),
(756,700,l),
(564,700,l),
(484,288,ls),
(467,200,o),
(421,150,o),
(346,150,cs),
(254,150,o),
(230,210,o),
(251,318,cs),
(326,700,l),
(134,700,l),
(59,317,ls),
(18,108,o),
(137,-12,o),
(323,-12,cs)
);
}
);
};
layerId = "69B5B248-E33C-46C9-9D9F-11585640C213";
shapes = (
{
closed = 1;
nodes = (
(512,-12,o),
(635,81,o),
(674,281,cs),
(756,700,l),
(564,700,l),
(484,288,ls),
(467,200,o),
(421,150,o),
(346,150,cs),
(254,150,o),
(230,210,o),
(251,318,cs),
(326,700,l),
(134,700,l),
(59,317,ls),
(18,108,o),
(137,-12,o),
(323,-12,cs)
);
}
);
width = 737;
}
);
note = U;
unicode = 85;
},
{
color = 5;
glyphname = V;
lastChange = "2022-05-29 18:57:48 +0000";
layers = (
{
anchors = (
{
name = bottom;
pos = (329,0);
},
{
name = top;
pos = (329,700);
}
);
background = {
shapes = (
{
closed = 1;
nodes = (
(383,0,l),
(641,700,l),
(546,700,l),
(328,99,l),
(111,700,l),
(16,700,l),
(273,0,l)
);
}
);
};
layerId = "30E869CF-9A31-4D47-9626-61B8364FC2DA";
shapes = (
{
closed = 1;
nodes = (
(383,0,l),
(641,700,l),
(546,700,l),
(328,99,l),
(111,700,l),
(16,700,l),
(273,0,l)
);
}
);
width = 657;
},
{
anchors = (
{
name = bottom;
pos = (317,0);
},
{
name = top;
pos = (317,700);
}
);
background = {
shapes = (
{
closed = 1;
nodes = (
(340,0,l),
(611,700,l),
(566,700,l),
(315,49,l),
(67,700,l),
(22,700,l),
(290,0,l)
);
}
);
};
layerId = "18A01495-E50D-4F2B-A1D8-5C332C731D93";
shapes = (
{
closed = 1;
nodes = (
(340,0,l),
(611,700,l),
(566,700,l),
(315,49,l),
(67,700,l),
(22,700,l),
(290,0,l)
);
}
);
width = 633;
},
{
anchors = (
{
name = bottom;
pos = (263,0);
},
{
name = top;
pos = (399,700);
}
);
background = {
shapes = (
{
closed = 1;
nodes = (
(277,0,l),
(679,700,l),
(633,700,l),
(260,49,l),
(141,700,l),
(99,700,l),
(228,0,l)
);
}
);
};
layerId = "047DE625-588D-43A1-AE3A-C97924B5E3D3";
shapes = (
{
closed = 1;
nodes = (
(277,0,l),
(679,700,l),
(633,700,l),
(260,49,l),
(141,700,l),
(99,700,l),
(228,0,l)
);
}
);
width = 624;
},
{
anchors = (
{
name = bottom;
pos = (274,0);
},
{
name = top;
pos = (410,700);
}
);
background = {
shapes = (
{
closed = 1;
nodes = (
(313,0,l),
(706,700,l),
(616,700,l),
(278,92,l),
(178,700,l),
(93,700,l),
(214,0,l)
);
}
);
};
layerId = "AB33B01D-3E13-404E-935A-045AA6D07EB8";
shapes = (
{
closed = 1;
nodes = (
(313,0,l),
(706,700,l),
(616,700,l),
(278,92,l),
(178,700,l),
(93,700,l),
(214,0,l)
);
}
);
width = 645;
},
{
anchors = (
{
name = bottom;
pos = (363,0);
},
{
name = top;
pos = (363,700);
}
);
background = {
shapes = (
{
closed = 1;
nodes = (
(478,0,l),
(720,700,l),
(522,700,l),
(367,209,l),
(211,700,l),
(6,700,l),
(247,0,l)
);
}
);
};
layerId = "9D32FE6F-9470-45EF-9689-909A6F5CE504";
shapes = (
{
closed = 1;
nodes = (
(478,0,l),
(720,700,l),
(522,700,l),
(367,209,l),
(211,700,l),
(6,700,l),
(247,0,l)
);
}
);
width = 725;
},
{
anchors = (
{
name = bottom;
pos = (309,0);
},
{
name = top;
pos = (445,700);
}
);
background = {
shapes = (
{
closed = 1;
nodes = (
(413,0,l),
(786,700,l),
(580,700,l),
(332,208,l),
(275,700,l),
(84,700,l),
(184,0,l)
);
}
);
};
layerId = "69B5B248-E33C-46C9-9D9F-11585640C213";
shapes = (
{
closed = 1;
nodes = (
(413,0,l),
(786,700,l),
(580,700,l),
(332,208,l),
(275,700,l),
(84,700,l),
(184,0,l)
);
}
);
width = 715;
}
);
note = V;
unicode = 86;
},
{
color = 5;
glyphname = W;
kernLeft = W;
kernRight = W;
lastChange = "2022-05-29 18:57:48 +0000";
layers = (
{
anchors = (
{
name = bottom;
pos = (492,0);
},
{
name = top;
pos = (492,700);
}
);
background = {
shapes = (
{
closed = 1;
nodes = (
(328,0,l),
(492,597,l),
(656,0,l),
(764,0,l),
(962,700,l),
(873,700,l),
(710,106,l),
(547,700,l),
(441,700,l),
(278,106,l),
(115,700,l),
(22,700,l),
(220,0,l)
);
}
);
};
layerId = "30E869CF-9A31-4D47-9626-61B8364FC2DA";
shapes = (
{
closed = 1;
nodes = (
(328,0,l),
(492,597,l),
(656,0,l),
(764,0,l),
(962,700,l),
(873,700,l),
(710,106,l),
(547,700,l),
(441,700,l),
(278,106,l),
(115,700,l),
(22,700,l),
(220,0,l)
);
}
);
width = 984;
},
{
anchors = (
{
name = bottom;
pos = (486,0);
},
{
name = top;
pos = (486,700);
}
);
background = {
shapes = (
{
closed = 1;
nodes = (
(294,0,l),
(486,646,l),
(678,0,l),
(728,0,l),
(945,700,l),
(902,700,l),
(703,52,l),
(512,700,l),
(462,700,l),
(270,52,l),
(71,700,l),
(26,700,l),
(243,0,l)
);
}
);
};
layerId = "18A01495-E50D-4F2B-A1D8-5C332C731D93";
shapes = (
{
closed = 1;
nodes = (
(294,0,l),
(486,646,l),
(678,0,l),
(728,0,l),
(945,700,l),
(902,700,l),
(703,52,l),
(512,700,l),
(462,700,l),
(270,52,l),
(71,700,l),
(26,700,l),
(243,0,l)
);
}
);
width = 971;
},
{
anchors = (
{
name = bottom;
pos = (430,0);
},
{
name = top;
pos = (566,700);
}
);
background = {
shapes = (
{
closed = 1;
nodes = (
(230,0,l),
(544,645,l),
(607,0,l),
(656,0,l),
(1007,700,l),
(962,700,l),
(639,52,l),
(577,700,l),
(530,700,l),
(214,53,l),
(144,700,l),
(103,700,l),
(180,0,l)
);
}
);
};
layerId = "047DE625-588D-43A1-AE3A-C97924B5E3D3";
shapes = (
{
closed = 1;
nodes = (
(230,0,l),
(544,645,l),
(607,0,l),
(656,0,l),
(1007,700,l),
(962,700,l),
(639,52,l),
(577,700,l),
(530,700,l),
(214,53,l),
(144,700,l),
(103,700,l),
(180,0,l)
);
}
);
width = 958;
},
{
anchors = (
{
name = bottom;
pos = (436,0);
},
{
name = top;
pos = (572,700);
}
);
background = {
shapes = (
{
closed = 1;
nodes = (
(261,0,l),
(542,601,l),
(589,0,l),
(690,0,l),
(1023,700,l),
(937,700,l),
(654,97,l),
(608,700,l),
(510,700,l),
(229,97,l),
(181,700,l),
(99,700,l),
(160,0,l)
);
}
);
};
layerId = "AB33B01D-3E13-404E-935A-045AA6D07EB8";
shapes = (
{
closed = 1;
nodes = (
(261,0,l),
(542,601,l),
(589,0,l),
(690,0,l),
(1023,700,l),
(937,700,l),
(654,97,l),
(608,700,l),
(510,700,l),
(229,97,l),
(181,700,l),
(99,700,l),
(160,0,l)
);
}
);
width = 969;
},
{
anchors = (
{
name = bottom;
pos = (530,0);
},
{
name = top;
pos = (530,700);
}
);
background = {
shapes = (
{
closed = 1;
nodes = (
(407,0,l),
(530,476,l),
(654,0,l),
(860,0,l),
(1045,700,l),
(857,700,l),
(744,234,l),
(625,700,l),
(440,700,l),
(322,238,l),
(208,700,l),
(14,700,l),
(200,0,l)
);
}
);
};
layerId = "9D32FE6F-9470-45EF-9689-909A6F5CE504";
shapes = (
{
closed = 1;
nodes = (
(407,0,l),
(530,476,l),
(654,0,l),
(860,0,l),
(1045,700,l),
(857,700,l),
(744,234,l),
(625,700,l),
(440,700,l),
(322,238,l),
(208,700,l),
(14,700,l),
(200,0,l)
);
}
);
width = 1060;
},
{
anchors = (
{
name = bottom;
pos = (473,0);
},
{
name = top;
pos = (609,700);
}
);
background = {
shapes = (
{
closed = 1;
nodes = (
(342,0,l),
(556,477,l),
(584,0,l),
(791,0,l),
(1110,700,l),
(915,700,l),
(713,230,l),
(687,700,l),
(503,700,l),
(297,236,l),
(276,700,l),
(92,700,l),
(139,0,l)
);
}
);
};
layerId = "69B5B248-E33C-46C9-9D9F-11585640C213";
shapes = (
{
closed = 1;
nodes = (
(342,0,l),
(556,477,l),
(584,0,l),
(791,0,l),
(1110,700,l),
(915,700,l),
(713,230,l),
(687,700,l),
(503,700,l),
(297,236,l),
(276,700,l),
(92,700,l),
(139,0,l)
);
}
);
width = 1044;
}
);
note = W;
unicode = 87;
},
{
color = 5;
glyphname = X;
kernLeft = X;
kernRight = X;
lastChange = "2022-05-29 18:57:48 +0000";
layers = (
{
anchors = (
{
name = bottom;
pos = (329,0);
},
{
name = top;
pos = (329,700);
}
);
background = {
shapes = (
{
closed = 1;
nodes = (
(121,0,l),
(328,284,l),
(531,0,l),
(643,0,l),
(384,354,l),
(638,700,l),
(531,700,l),
(330,419,l),
(131,700,l),
(20,700,l),
(274,349,l),
(14,0,l)
);
}
);
};
layerId = "30E869CF-9A31-4D47-9626-61B8364FC2DA";
shapes = (
{
closed = 1;
nodes = (
(121,0,l),
(328,284,l),
(531,0,l),
(643,0,l),
(384,354,l),
(638,700,l),
(531,700,l),
(330,419,l),
(131,700,l),
(20,700,l),
(274,349,l),
(14,0,l)
);
}
);
width = 657;
},
{
anchors = (
{
name = bottom;
pos = (318,0);
},
{
name = top;
pos = (318,700);
}
);
background = {
shapes = (
{
closed = 1;
nodes = (
(75,0,l),
(319,317,l),
(561,0,l),
(614,0,l),
(346,350,l),
(612,700,l),
(560,700,l),
(320,381,l),
(79,700,l),
(26,700,l),
(292,348,l),
(23,0,l)
);
}
);
};
layerId = "18A01495-E50D-4F2B-A1D8-5C332C731D93";
shapes = (
{
closed = 1;
nodes = (
(75,0,l),
(319,317,l),
(561,0,l),
(614,0,l),
(346,350,l),
(612,700,l),
(560,700,l),
(320,381,l),
(79,700,l),
(26,700,l),
(292,348,l),
(23,0,l)
);
}
);
width = 636;
},
{
anchors = (
{
name = bottom;
pos = (265,0);
},
{
name = top;
pos = (401,700);
}
);
background = {
shapes = (
{
closed = 1;
nodes = (
(20,0,l),
(320,317,l),
(496,0,l),
(544,0,l),
(349,346,l),
(682,700,l),
(626,700,l),
(328,381,l),
(151,700,l),
(103,700,l),
(298,351,l),
(-36,0,l)
);
}
);
};
layerId = "047DE625-588D-43A1-AE3A-C97924B5E3D3";
shapes = (
{
closed = 1;
nodes = (
(20,0,l),
(320,317,l),
(496,0,l),
(544,0,l),
(349,346,l),
(682,700,l),
(626,700,l),
(328,381,l),
(151,700,l),
(103,700,l),
(298,351,l),
(-36,0,l)
);
}
);
width = 627;
},
{
anchors = (
{
name = bottom;
pos = (274,0);
},
{
name = top;
pos = (410,700);
}
);
background = {
shapes = (
{
closed = 1;
nodes = (
(65,0,l),
(326,289,l),
(477,0,l),
(571,0,l),
(385,348,l),
(705,700,l),
(599,700,l),
(341,413,l),
(190,700,l),
(96,700,l),
(282,354,l),
(-43,0,l)
);
}
);
};
layerId = "AB33B01D-3E13-404E-935A-045AA6D07EB8";
shapes = (
{
closed = 1;
nodes = (
(65,0,l),
(326,289,l),
(477,0,l),
(571,0,l),
(385,348,l),
(705,700,l),
(599,700,l),
(341,413,l),
(190,700,l),
(96,700,l),
(282,354,l),
(-43,0,l)
);
}
);
width = 646;
},
{
anchors = (
{
name = bottom;
pos = (372,0);
},
{
name = top;
pos = (372,700);
}
);
background = {
shapes = (
{
closed = 1;
nodes = (
(226,0,l),
(366,214,l),
(507,0,l),
(737,0,l),
(493,355,l),
(730,700,l),
(512,700,l),
(376,490,l),
(242,700,l),
(12,700,l),
(249,352,l),
(8,0,l)
);
}
);
};
layerId = "9D32FE6F-9470-45EF-9689-909A6F5CE504";
shapes = (
{
closed = 1;
nodes = (
(226,0,l),
(366,214,l),
(507,0,l),
(737,0,l),
(493,355,l),
(730,700,l),
(512,700,l),
(376,490,l),
(242,700,l),
(12,700,l),
(249,352,l),
(8,0,l)
);
}
);
width = 744;
},
{
anchors = (
{
name = bottom;
pos = (318,0);
},
{
name = top;
pos = (454,700);
}
);
background = {
shapes = (
{
closed = 1;
nodes = (
(182,0,l),
(358,215,l),
(459,0,l),
(667,0,l),
(495,349,l),
(795,700,l),
(563,700,l),
(391,488,l),
(297,700,l),
(90,700,l),
(255,358,l),
(-51,0,l)
);
}
);
};
layerId = "69B5B248-E33C-46C9-9D9F-11585640C213";
shapes = (
{
closed = 1;
nodes = (
(182,0,l),
(358,215,l),
(459,0,l),
(667,0,l),
(495,349,l),
(795,700,l),
(563,700,l),
(391,488,l),
(297,700,l),
(90,700,l),
(255,358,l),
(-51,0,l)
);
}
);
width = 733;
}
);
note = X;
unicode = 88;
},
{
color = 5;
glyphname = Y;
kernLeft = Y;
kernRight = Y;
lastChange = "2022-05-29 18:57:48 +0000";
layers = (
{
anchors = (
{
name = bottom;
pos = (311,0);
},
{
name = top;
pos = (311,700);
},
{
name = topleft;
pos = (20,700);
}
);
background = {
shapes = (
{
closed = 1;
nodes = (
(356,0,l),
(356,266,l),
(622,700,l),
(517,700,l),
(310,355,l),
(104,700,l),
(-1,700,l),
(265,266,l),
(265,0,l)
);
}
);
};
layerId = "30E869CF-9A31-4D47-9626-61B8364FC2DA";
shapes = (
{
closed = 1;
nodes = (
(356,0,l),
(356,266,l),
(622,700,l),
(517,700,l),
(310,355,l),
(104,700,l),
(-1,700,l),
(265,266,l),
(265,0,l)
);
}
);
width = 621;
},
{
anchors = (
{
name = bottom;
pos = (303,0);
},
{
name = top;
pos = (303,700);
},
{
name = topleft;
pos = (20,700);
}
);
background = {
shapes = (
{
closed = 1;
nodes = (
(325,0,l),
(325,268,l),
(596,700,l),
(546,700,l),
(303,309,l),
(60,700,l),
(10,700,l),
(280,268,l),
(280,0,l)
);
}
);
};
layerId = "18A01495-E50D-4F2B-A1D8-5C332C731D93";
shapes = (
{
closed = 1;
nodes = (
(325,0,l),
(325,268,l),
(596,700,l),
(546,700,l),
(303,309,l),
(60,700,l),
(10,700,l),
(280,268,l),
(280,0,l)
);
}
);
width = 605;
},
{
anchors = (
{
name = bottom;
pos = (247,0);
},
{
name = top;
pos = (383,700);
},
{
name = topleft;
pos = (107,700);
}
);
background = {
shapes = (
{
closed = 1;
nodes = (
(259,0,l),
(311,267,l),
(661,701,l),
(609,701,l),
(295,309,l),
(131,700,l),
(85,700,l),
(269,267,l),
(217,0,l)
);
}
);
};
layerId = "047DE625-588D-43A1-AE3A-C97924B5E3D3";
shapes = (
{
closed = 1;
nodes = (
(259,0,l),
(311,267,l),
(661,701,l),
(609,701,l),
(295,309,l),
(131,700,l),
(85,700,l),
(269,267,l),
(217,0,l)
);
}
);
width = 592;
},
{
anchors = (
{
name = bottom;
pos = (257,0);
},
{
name = top;
pos = (393,700);
},
{
name = topleft;
pos = (107,700);
}
);
background = {
shapes = (
{
closed = 1;
nodes = (
(290,0,l),
(342,265,l),
(687,700,l),
(586,700,l),
(309,348,l),
(169,700,l),
(79,700,l),
(257,266,l),
(205,0,l)
);
}
);
};
layerId = "AB33B01D-3E13-404E-935A-045AA6D07EB8";
shapes = (
{
closed = 1;
nodes = (
(290,0,l),
(342,265,l),
(687,700,l),
(586,700,l),
(309,348,l),
(169,700,l),
(79,700,l),
(257,266,l),
(205,0,l)
);
}
);
width = 612;
},
{
anchors = (
{
name = bottom;
pos = (350,0);
},
{
name = top;
pos = (350,700);
},
{
name = topleft;
pos = (20,700);
}
);
background = {
shapes = (
{
closed = 1;
nodes = (
(446,0,l),
(446,256,l),
(710,700,l),
(496,700,l),
(354,441,l),
(211,700,l),
(-11,700,l),
(253,256,l),
(253,0,l)
);
}
);
};
layerId = "9D32FE6F-9470-45EF-9689-909A6F5CE504";
shapes = (
{
closed = 1;
nodes = (
(446,0,l),
(446,256,l),
(710,700,l),
(496,700,l),
(354,441,l),
(211,700,l),
(-11,700,l),
(253,256,l),
(253,0,l)
);
}
);
width = 699;
},
{
anchors = (
{
name = bottom;
pos = (296,0);
},
{
name = top;
pos = (432,700);
},
{
name = topleft;
pos = (107,700);
}
);
background = {
shapes = (
{
closed = 1;
nodes = (
(380,0,l),
(431,258,l),
(775,700,l),
(549,700,l),
(359,440,l),
(270,700,l),
(67,700,l),
(239,258,l),
(188,0,l)
);
}
);
};
layerId = "69B5B248-E33C-46C9-9D9F-11585640C213";
shapes = (
{
closed = 1;
nodes = (
(380,0,l),
(431,258,l),
(775,700,l),
(549,700,l),
(359,440,l),
(270,700,l),
(67,700,l),
(239,258,l),
(188,0,l)
);
}
);
width = 689;
}
);
note = Y;
unicode = 89;
},
{
color = 5;
glyphname = Z;
kernLeft = Z;
kernRight = Z;
lastChange = "2022-05-29 18:57:48 +0000";
layers = (
{
anchors = (
{
name = bottom;
pos = (316,0);
},
{
name = center;
pos = (316,350);
},
{
name = top;
pos = (316,700);
}
);
background = {
shapes = (
{
closed = 1;
nodes = (
(592,0,l),
(592,80,l),
(152,80,l),
(581,622,l),
(581,700,l),
(63,700,l),
(63,620,l),
(471,620,l),
(42,78,l),
(42,0,l)
);
}
);
};
layerId = "30E869CF-9A31-4D47-9626-61B8364FC2DA";
shapes = (
{
closed = 1;
nodes = (
(592,0,l),
(592,80,l),
(152,80,l),
(581,622,l),
(581,700,l),
(63,700,l),
(63,620,l),
(471,620,l),
(42,78,l),
(42,0,l)
);
}
);
width = 632;
},
{
anchors = (
{
name = bottom;
pos = (306,0);
},
{
name = center;
pos = (306,350);
},
{
name = top;
pos = (306,700);
}
);
background = {
shapes = (
{
closed = 1;
nodes = (
(575,0,l),
(575,40,l),
(89,40,l),
(564,658,l),
(564,700,l),
(60,700,l),
(60,660,l),
(513,660,l),
(38,42,l),
(38,0,l)
);
}
);
};
layerId = "18A01495-E50D-4F2B-A1D8-5C332C731D93";
shapes = (
{
closed = 1;
nodes = (
(575,0,l),
(575,40,l),
(89,40,l),
(564,658,l),
(564,700,l),
(60,700,l),
(60,660,l),
(513,660,l),
(38,42,l),
(38,0,l)
);
}
);
width = 612;
},
{
anchors = (
{
name = bottom;
pos = (253,0);
},
{
name = center;
pos = (321,350);
},
{
name = top;
pos = (389,700);
}
);
background = {
shapes = (
{
closed = 1;
nodes = (
(508,0,l),
(516,39,l),
(43,39,l),
(626,661,l),
(634,700,l),
(138,700,l),
(130,661,l),
(570,661,l),
(-13,40,l),
(-21,0,l)
);
}
);
};
layerId = "047DE625-588D-43A1-AE3A-C97924B5E3D3";
shapes = (
{
closed = 1;
nodes = (
(508,0,l),
(516,39,l),
(43,39,l),
(626,661,l),
(634,700,l),
(138,700,l),
(130,661,l),
(570,661,l),
(-13,40,l),
(-21,0,l)
);
}
);
width = 604;
},
{
anchors = (
{
name = bottom;
pos = (262,0);
},
{
name = center;
pos = (330,350);
},
{
name = top;
pos = (398,700);
}
);
background = {
shapes = (
{
closed = 1;
nodes = (
(523,0,l),
(537,74,l),
(107,74,l),
(634,628,l),
(649,700,l),
(140,700,l),
(126,626,l),
(524,626,l),
(-3,72,l),
(-17,0,l)
);
}
);
};
layerId = "AB33B01D-3E13-404E-935A-045AA6D07EB8";
shapes = (
{
closed = 1;
nodes = (
(523,0,l),
(537,74,l),
(107,74,l),
(634,628,l),
(649,700,l),
(140,700,l),
(126,626,l),
(524,626,l),
(-3,72,l),
(-17,0,l)
);
}
);
width = 622;
},
{
anchors = (
{
name = bottom;
pos = (343,0);
},
{
name = center;
pos = (343,350);
},
{
name = top;
pos = (343,700);
}
);
background = {
shapes = (
{
closed = 1;
nodes = (
(644,0,l),
(644,162,l),
(284,162,l),
(630,546,l),
(630,700,l),
(57,700,l),
(57,539,l),
(389,539,l),
(42,155,l),
(42,0,l)
);
}
);
};
layerId = "9D32FE6F-9470-45EF-9689-909A6F5CE504";
shapes = (
{
closed = 1;
nodes = (
(644,0,l),
(644,162,l),
(284,162,l),
(630,546,l),
(630,700,l),
(57,700,l),
(57,539,l),
(389,539,l),
(42,155,l),
(42,0,l)
);
}
);
width = 686;
},
{
anchors = (
{
name = bottom;
pos = (289,0);
},
{
name = center;
pos = (357,350);
},
{
name = top;
pos = (425,700);
}
);
background = {
shapes = (
{
closed = 1;
nodes = (
(575,0,l),
(606,161,l),
(266,161,l),
(668,547,l),
(698,700,l),
(134,700,l),
(103,540,l),
(416,540,l),
(14,154,l),
(-16,0,l)
);
}
);
};
layerId = "69B5B248-E33C-46C9-9D9F-11585640C213";
shapes = (
{
closed = 1;
nodes = (
(575,0,l),
(606,161,l),
(266,161,l),
(668,547,l),
(698,700,l),
(134,700,l),
(103,540,l),
(416,540,l),
(14,154,l),
(-16,0,l)
);
}
);
width = 676;
}
);
note = Z;
unicode = 90;
},
{
color = 5;
glyphname = J.ss01;
kernLeft = J;
kernRight = J;
lastChange = "2022-06-23 20:38:09 +0000";
layers = (
{
anchors = (
{
name = bottom;
pos = (112,0);
},
{
name = top;
pos = (112,700);
}
);
background = {
shapes = (
{
closed = 1;
nodes = (
(241,-10,o),
(320,87,o),
(320,221,cs),
(320,700,l),
(230,700,l),
(230,222,ls),
(230,127,o),
(176,70,o),
(90,70,cs),
(-2,70,o),
(-49,127,o),
(-54,228,c),
(-144,228,l),
(-136,72,o),
(-53,-10,o),
(90,-10,cs)
);
}
);
};
layerId = "30E869CF-9A31-4D47-9626-61B8364FC2DA";
shapes = (
{
closed = 1;
nodes = (
(152,0,ls),
(257,0,o),
(320,63,o),
(320,168,cs),
(320,700,l),
(230,700,l),
(230,174,ls),
(230,105,o),
(205,80,o),
(136,80,cs),
(30,80,l),
(30,0,l)
);
}
);
width = 398;
},
{
anchors = (
{
name = bottom;
pos = (142,0);
},
{
name = top;
pos = (142,700);
}
);
background = {
shapes = (
{
closed = 1;
nodes = (
(252,-10,o),
(333,76,o),
(333,210,cs),
(333,700,l),
(288,700,l),
(288,211,ls),
(288,104,o),
(227,30,o),
(121,30,cs),
(22,30,o),
(-42,89,o),
(-51,208,c),
(-96,208,l),
(-86,80,o),
(-15,-10,o),
(121,-10,cs)
);
}
);
};
layerId = "18A01495-E50D-4F2B-A1D8-5C332C731D93";
shapes = (
{
closed = 1;
nodes = (
(158,0,ls),
(268,0,o),
(333,63,o),
(333,170,cs),
(333,700,l),
(288,700,l),
(288,170,ls),
(288,86,o),
(242,40,o),
(158,40,cs),
(38,40,l),
(38,0,l)
);
}
);
width = 417;
},
{
anchors = (
{
name = bottom;
pos = (101,0);
},
{
name = top;
pos = (237,700);
}
);
background = {
shapes = (
{
closed = 1;
nodes = (
(211,-11,o),
(293,71,o),
(318,200,cs),
(416,700,l),
(373,700,l),
(276,203,ls),
(255,95,o),
(186,29,o),
(88,29,cs),
(-18,29,o),
(-77,100,o),
(-61,207,c),
(-103,207,l),
(-120,85,o),
(-53,-11,o),
(86,-11,cs)
);
}
);
};
guides = (
{
angle = 78.9106;
pos = (367,450);
},
{
angle = 258.9564;
pos = (325,452);
},
{
pos = (14,29);
}
);
layerId = "047DE625-588D-43A1-AE3A-C97924B5E3D3";
shapes = (
{
closed = 1;
nodes = (
(102,0,ls),
(221,0,o),
(289,46,o),
(310,152,cs),
(417,700,l),
(374,700,l),
(264,153,ls),
(251,86,o),
(195,40,o),
(111,40,cs),
(-14,40,l),
(-22,0,l)
);
}
);
width = 423;
},
{
anchors = (
{
name = bottom;
pos = (72,0);
},
{
name = top;
pos = (208,700);
}
);
background = {
shapes = (
{
closed = 1;
nodes = (
(197,-11,o),
(279,77,o),
(306,212,cs),
(402,700,l),
(317,700,l),
(223,220,ls),
(203,120,o),
(144,65,o),
(59,65,cs),
(-36,65,o),
(-75,134,o),
(-61,226,c),
(-145,226,l),
(-163,81,o),
(-87,-11,o),
(55,-11,cs)
);
}
);
};
guides = (
{
angle = 78.8708;
pos = (354,456);
},
{
angle = 78.9198;
pos = (270,460);
},
{
pos = (-1,65);
}
);
layerId = "AB33B01D-3E13-404E-935A-045AA6D07EB8";
shapes = (
{
closed = 1;
nodes = (
(94,0,ls),
(208,0,o),
(274,54,o),
(297,168,cs),
(407,700,l),
(316,700,l),
(212,174,ls),
(198,107,o),
(165,80,o),
(98,80,cs),
(-11,80,l),
(-28,0,l)
);
}
);
width = 407;
},
{
anchors = (
{
name = bottom;
pos = (152,0);
},
{
name = top;
pos = (152,700);
}
);
background = {
shapes = (
{
closed = 1;
nodes = (
(304,-13,o),
(415,74,o),
(415,263,cs),
(415,700,l),
(222,700,l),
(222,263,ls),
(222,194,o),
(192,151,o),
(132,151,cs),
(68,151,o),
(41,195,o),
(39,276,c),
(-152,276,l),
(-143,85,o),
(-51,-13,o),
(132,-13,cs)
);
}
);
};
layerId = "9D32FE6F-9470-45EF-9689-909A6F5CE504";
shapes = (
{
closed = 1;
nodes = (
(252,0,ls),
(350,0,o),
(415,65,o),
(415,163,cs),
(415,700,l),
(222,700,l),
(222,219,ls),
(222,184,o),
(202,164,o),
(167,164,cs),
(17,164,l),
(17,0,l)
);
}
);
width = 473;
},
{
anchors = (
{
name = bottom;
pos = (108,0);
},
{
name = top;
pos = (244,700);
}
);
background = {
shapes = (
{
closed = 1;
nodes = (
(273,-13,o),
(373,81,o),
(408,258,cs),
(495,700,l),
(303,700,l),
(216,261,ls),
(202,192,o),
(168,150,o),
(110,150,cs),
(43,150,o),
(29,204,o),
(39,276,c),
(-146,276,l),
(-173,103,o),
(-83,-13,o),
(96,-13,cs)
);
}
);
};
guides = (
{
angle = 258.8647;
pos = (452,479);
},
{
angle = 78.7905;
pos = (260,481);
}
);
layerId = "69B5B248-E33C-46C9-9D9F-11585640C213";
shapes = (
{
closed = 1;
nodes = (
(195,0,ls),
(293,0,o),
(371,65,o),
(390,163,cs),
(494,700,l),
(301,700,l),
(208,219,ls),
(201,184,o),
(177,164,o),
(142,164,cs),
(-8,164,l),
(-40,0,l)
);
}
);
width = 473;
}
);
metricLeft = J;
metricRight = J;
note = J;
},
{
color = 4;
export = 0;
glyphname = Eth;
lastChange = "2022-06-23 21:16:37 +0000";
layers = (
{
color = 5;
layerId = "18A01495-E50D-4F2B-A1D8-5C332C731D93";
shapes = (
{
closed = 1;
nodes = (
(295,331,l),
(295,371,l),
(35,371,l),
(35,331,l)
);
},
{
pos = (46,0);
ref = D;
}
);
width = 752;
},
{
layerId = "047DE625-588D-43A1-AE3A-C97924B5E3D3";
shapes = (
{
closed = 1;
nodes = (
(326,331,l),
(334,371,l),
(74,371,l),
(66,331,l)
);
},
{
pos = (66,0);
ref = D;
}
);
width = 761;
},
{
layerId = "30E869CF-9A31-4D47-9626-61B8364FC2DA";
shapes = (
{
closed = 1;
nodes = (
(314,311,l),
(314,391,l),
(25,391,l),
(25,311,l)
);
},
{
pos = (35,0);
ref = D;
}
);
width = 756;
},
{
layerId = "AB33B01D-3E13-404E-935A-045AA6D07EB8";
shapes = (
{
closed = 1;
nodes = (
(326,311,l),
(342,391,l),
(53,391,l),
(37,311,l)
);
},
{
pos = (40,0);
ref = D;
}
);
width = 750;
},
{
layerId = "9D32FE6F-9470-45EF-9689-909A6F5CE504";
shapes = (
{
closed = 1;
nodes = (
(368,265,l),
(368,425,l),
(17,425,l),
(17,265,l)
);
},
{
pos = (24,0);
ref = D;
}
);
width = 780;
},
{
layerId = "69B5B248-E33C-46C9-9D9F-11585640C213";
shapes = (
{
closed = 1;
nodes = (
(371,265,l),
(403,425,l),
(52,425,l),
(20,265,l)
);
},
{
pos = (38,0);
ref = D;
}
);
width = 785;
}
);
unicode = 208;
},
{
color = 5;
export = 0;
glyphname = OE;
lastChange = "2022-06-23 20:55:07 +0000";
layers = (
{
anchors = (
{
name = bottom;
pos = (512,0);
},
{
name = top;
pos = (512,700);
}
);
guides = (
{
pos = (585,660);
},
{
pos = (591,40);
},
{
angle = 90;
pos = (547,517);
}
);
layerId = "18A01495-E50D-4F2B-A1D8-5C332C731D93";
shapes = (
{
closed = 1;
nodes = (
(970,0,l),
(970,40,l),
(547,40,l),
(547,339,l),
(933,339,l),
(933,379,l),
(547,379,l),
(547,660,l),
(964,660,l),
(964,700,l),
(382,700,ls),
(177,700,o),
(52,536,o),
(52,350,cs),
(52,139,o),
(201,0,o),
(382,0,cs)
);
},
{
closed = 1;
nodes = (
(233,40,o),
(97,156,o),
(97,350,cs),
(97,518,o),
(208,660,o),
(382,660,cs),
(502,660,l),
(502,40,l),
(382,40,ls)
);
}
);
width = 1024;
},
{
anchors = (
{
name = bottom;
pos = (457,0);
},
{
name = top;
pos = (593,700);
}
);
background = {
shapes = (
{
closed = 0;
nodes = (
(-39,700,l),
(-270,700,o),
(-413,488,o),
(-416,287,cs),
(-418,135,o),
(-311,0,o),
(-135,0,cs)
);
},
{
closed = 0;
nodes = (
(-131,39,l),
(-284,39,o),
(-374,157,o),
(-372,289,cs),
(-369,459,o),
(-246,660,o),
(-43,660,cs)
);
},
{
closed = 1;
nodes = (
(629,661,l),
(1054,661,l),
(1061,700,l),
(595,700,l)
);
},
{
closed = 1;
nodes = (
(455,0,l),
(930,0,l),
(937,39,l),
(505,39,l)
);
},
{
closed = 1;
nodes = (
(518,23,l),
(580,339,l),
(959,339,l),
(967,378,l),
(587,378,l),
(644,674,l),
(610,713,l),
(468,-16,l)
);
}
);
};
guides = (
{
angle = 78.9611;
pos = (539,349);
}
);
layerId = "047DE625-588D-43A1-AE3A-C97924B5E3D3";
shapes = (
{
closed = 1;
nodes = (
(900,0,l),
(907,39,l),
(492,39,l),
(550,339,l),
(929,339,l),
(937,378,l),
(557,378,l),
(611,661,l),
(1023,661,l),
(1031,700,l),
(433,700,ls),
(202,700,o),
(59,488,o),
(56,287,cs),
(54,135,o),
(161,0,o),
(337,0,cs)
);
},
{
closed = 1;
nodes = (
(188,39,o),
(98,157,o),
(100,289,cs),
(103,460,o),
(226,661,o),
(429,661,cs),
(569,661,l),
(449,39,l),
(341,39,ls)
);
}
);
width = 1012;
},
{
anchors = (
{
name = bottom;
pos = (526,0);
},
{
name = top;
pos = (526,700);
}
);
layerId = "30E869CF-9A31-4D47-9626-61B8364FC2DA";
shapes = (
{
closed = 1;
nodes = (
(999,0,l),
(999,80,l),
(598,80,l),
(598,321,l),
(962,321,l),
(962,401,l),
(598,401,l),
(598,621,l),
(993,621,l),
(993,700,l),
(387,700,ls),
(189,700,o),
(48,553,o),
(48,352,cs),
(48,150,o),
(187,0,o),
(387,0,cs)
);
},
{
closed = 1;
nodes = (
(242,80,o),
(138,192,o),
(138,352,cs),
(138,511,o),
(240,621,o),
(387,621,cs),
(508,621,l),
(508,80,l),
(387,80,ls)
);
}
);
width = 1052;
},
{
anchors = (
{
name = bottom;
pos = (451,0);
},
{
name = top;
pos = (587,700);
}
);
guides = (
{
angle = 180;
pos = (809,626);
},
{
pos = (705,74);
}
);
layerId = "AB33B01D-3E13-404E-935A-045AA6D07EB8";
shapes = (
{
closed = 1;
nodes = (
(888,0,l),
(902,74,l),
(507,74,l),
(555,322,l),
(914,322,l),
(928,396,l),
(569,396,l),
(614,626,l),
(1004,626,l),
(1019,700,l),
(440,700,ls),
(195,700,o),
(52,486,o),
(52,282,cs),
(52,106,o),
(192,0,o),
(341,0,cs)
);
},
{
closed = 1;
nodes = (
(234,74,o),
(141,157,o),
(141,292,cs),
(141,446,o),
(248,626,o),
(432,626,cs),
(531,626,l),
(423,74,l),
(349,74,ls)
);
}
);
width = 1000;
},
{
anchors = (
{
name = bottom;
pos = (542,0);
},
{
name = top;
pos = (542,700);
}
);
guides = (
{
pos = (1333,155);
},
{
angle = 180;
pos = (1329,545);
}
);
layerId = "9D32FE6F-9470-45EF-9689-909A6F5CE504";
shapes = (
{
closed = 1;
nodes = (
(1038,0,l),
(1038,160,l),
(687,160,l),
(687,280,l),
(999,280,l),
(999,429,l),
(687,429,l),
(687,540,l),
(1030,540,l),
(1030,700,l),
(397,700,ls),
(196,700,o),
(30,571,o),
(30,350,cs),
(30,162,o),
(161,0,o),
(397,0,cs)
);
},
{
closed = 1;
nodes = (
(295,160,o),
(230,243,o),
(230,350,cs),
(230,457,o),
(294,540,o),
(397,540,cs),
(498,540,l),
(498,160,l),
(397,160,ls)
);
}
);
width = 1083;
},
{
anchors = (
{
name = bottom;
pos = (458,0);
},
{
name = top;
pos = (594,700);
}
);
guides = (
{
angle = 180;
pos = (925,540);
},
{
pos = (851,160);
}
);
layerId = "69B5B248-E33C-46C9-9D9F-11585640C213";
shapes = (
{
closed = 1;
nodes = (
(909,0,l),
(939,160,l),
(596,160,l),
(620,281,l),
(925,281,l),
(954,428,l),
(650,428,l),
(674,540,l),
(1009,540,l),
(1038,700,l),
(440,700,ls),
(227,700,o),
(34,538,o),
(34,297,cs),
(34,134,o),
(162,0,o),
(359,0,cs)
);
},
{
closed = 1;
nodes = (
(292,160,o),
(232,215,o),
(232,306,cs),
(232,428,o),
(316,540,o),
(427,540,cs),
(484,540,l),
(410,160,l),
(372,160,ls)
);
}
);
width = 1014;
}
);
metricLeft = O;
metricRight = E;
unicode = 338;
},
{
color = 5;
export = 0;
glyphname = Thorn;
lastChange = "2022-06-23 21:07:38 +0000";
layers = (
{
anchors = (
{
name = bottom;
pos = (316,0);
},
{
name = top;
pos = (316,700);
}
);
background = {
shapes = (
{
closed = 1;
nodes = (
(178,0,l),
(178,272,l),
(350,272,ls),
(504,272,o),
(600,344,o),
(600,487,cs),
(600,628,o),
(507,700,o),
(351,700,cs),
(88,700,l),
(88,0,l)
);
},
{
closed = 1;
nodes = (
(178,620,l),
(350,620,ls),
(454,620,o),
(510,575,o),
(510,486,cs),
(510,397,o),
(456,352,o),
(350,352,cs),
(178,352,l)
);
}
);
};
layerId = "30E869CF-9A31-4D47-9626-61B8364FC2DA";
shapes = (
{
closed = 1;
nodes = (
(350,114,ls),
(504,114,o),
(600,186,o),
(600,329,cs),
(600,470,o),
(507,542,o),
(351,542,cs),
(162,542,l),
(162,462,l),
(350,462,ls),
(454,462,o),
(510,417,o),
(510,328,cs),
(510,239,o),
(456,194,o),
(350,194,cs),
(162,194,l),
(162,114,l)
);
},
{
closed = 1;
nodes = (
(178,0,l),
(178,700,l),
(88,700,l),
(88,0,l)
);
}
);
width = 632;
},
{
anchors = (
{
name = bottom;
pos = (306,0);
},
{
name = top;
pos = (306,700);
}
);
background = {
shapes = (
{
closed = 1;
nodes = (
(141,0,l),
(141,291,l),
(338,291,ls),
(487,291,o),
(574,365,o),
(574,495,cs),
(574,624,o),
(489,700,o),
(339,700,cs),
(96,700,l),
(96,0,l)
);
},
{
closed = 1;
nodes = (
(141,660,l),
(338,660,ls),
(462,660,o),
(529,600,o),
(529,495,cs),
(529,392,o),
(463,332,o),
(338,332,cs),
(141,332,l)
);
}
);
};
layerId = "18A01495-E50D-4F2B-A1D8-5C332C731D93";
shapes = (
{
closed = 1;
nodes = (
(338,123,ls),
(487,123,o),
(574,197,o),
(574,327,cs),
(574,456,o),
(489,532,o),
(339,532,cs),
(131,532,l),
(131,492,l),
(338,492,ls),
(462,492,o),
(529,432,o),
(529,327,cs),
(529,224,o),
(463,164,o),
(338,164,cs),
(131,164,l),
(131,123,l)
);
},
{
closed = 1;
nodes = (
(141,0,l),
(141,700,l),
(96,700,l),
(96,0,l)
);
}
);
width = 612;
},
{
anchors = (
{
name = bottom;
pos = (253,0);
},
{
name = top;
pos = (389,700);
}
);
background = {
shapes = (
{
closed = 1;
nodes = (
(80,0,l),
(136,290,l),
(336,290,ls),
(493,290,o),
(606,371,o),
(606,524,cs),
(606,636,o),
(526,700,o),
(404,700,cs),
(174,700,l),
(37,0,l)
);
},
{
closed = 1;
nodes = (
(208,661,l),
(401,661,ls),
(498,661,o),
(563,611,o),
(563,521,cs),
(563,398,o),
(474,330,o),
(345,329,cs),
(144,329,l)
);
}
);
};
guides = (
{
angle = 79.0829;
pos = (145,337);
}
);
layerId = "047DE625-588D-43A1-AE3A-C97924B5E3D3";
shapes = (
{
closed = 1;
nodes = (
(306,126,ls),
(463,126,o),
(576,207,o),
(576,360,cs),
(576,472,o),
(496,536,o),
(374,536,cs),
(173,536,l),
(165,497,l),
(371,497,ls),
(468,497,o),
(533,447,o),
(533,357,cs),
(533,234,o),
(444,165,o),
(315,165,cs),
(104,165,l),
(96,126,l)
);
},
{
closed = 1;
nodes = (
(80,0,l),
(215,700,l),
(173,700,l),
(37,0,l)
);
}
);
width = 605;
},
{
anchors = (
{
name = bottom;
pos = (262,0);
},
{
name = top;
pos = (398,700);
}
);
background = {
shapes = (
{
closed = 1;
nodes = (
(114,0,l),
(167,273,l),
(341,273,ls),
(518,273,o),
(627,366,o),
(627,518,cs),
(627,635,o),
(543,700,o),
(414,700,cs),
(166,700,l),
(29,0,l)
);
},
{
closed = 1;
nodes = (
(236,627,l),
(400,627,ls),
(484,627,o),
(541,589,o),
(541,511,cs),
(541,405,o),
(464,348,o),
(352,347,cs),
(182,347,l)
);
}
);
};
layerId = "AB33B01D-3E13-404E-935A-045AA6D07EB8";
shapes = (
{
closed = 1;
nodes = (
(321,114,ls),
(498,114,o),
(607,207,o),
(607,359,cs),
(607,476,o),
(523,541,o),
(394,541,cs),
(213,541,l),
(200,468,l),
(380,468,ls),
(464,468,o),
(521,430,o),
(521,352,cs),
(521,246,o),
(444,188,o),
(332,188,cs),
(146,188,l),
(131,114,l)
);
},
{
closed = 1;
nodes = (
(114,0,l),
(250,700,l),
(166,700,l),
(29,0,l)
);
}
);
width = 632;
},
{
anchors = (
{
name = bottom;
pos = (336,0);
},
{
name = top;
pos = (336,700);
}
);
background = {
shapes = (
{
closed = 1;
nodes = (
(257,0,l),
(257,221,l),
(377,221,ls),
(542,221,o),
(653,297,o),
(653,462,cs),
(653,633,o),
(533,700,o),
(377,700,cs),
(65,700,l),
(65,0,l)
);
},
{
closed = 1;
nodes = (
(257,552,l),
(350,552,ls),
(419,552,o),
(456,522,o),
(456,460,cs),
(456,399,o),
(421,369,o),
(350,369,cs),
(257,369,l)
);
}
);
};
layerId = "9D32FE6F-9470-45EF-9689-909A6F5CE504";
shapes = (
{
closed = 1;
nodes = (
(377,91,ls),
(542,91,o),
(653,167,o),
(653,332,cs),
(653,503,o),
(533,570,o),
(377,570,cs),
(241,570,l),
(241,422,l),
(350,422,ls),
(419,422,o),
(456,392,o),
(456,330,cs),
(456,269,o),
(421,239,o),
(350,239,cs),
(241,239,l),
(241,91,l)
);
},
{
closed = 1;
nodes = (
(257,0,l),
(257,700,l),
(65,700,l),
(65,0,l)
);
}
);
width = 672;
},
{
anchors = (
{
name = bottom;
pos = (283,0);
},
{
name = top;
pos = (419,700);
}
);
background = {
shapes = (
{
closed = 1;
nodes = (
(196,0,l),
(239,221,l),
(362,221,ls),
(539,221,o),
(676,316,o),
(676,494,cs),
(676,615,o),
(592,700,o),
(442,700,cs),
(141,700,l),
(5,0,l)
);
},
{
closed = 1;
nodes = (
(303,553,l),
(388,553,ls),
(446,553,o),
(482,530,o),
(482,480,cs),
(482,410,o),
(431,368,o),
(356,368,cs),
(268,368,l)
);
}
);
};
guides = (
{
angle = 79.0136;
pos = (75,358);
}
);
layerId = "69B5B248-E33C-46C9-9D9F-11585640C213";
shapes = (
{
closed = 1;
nodes = (
(335,91,ls),
(512,91,o),
(649,186,o),
(649,364,cs),
(649,485,o),
(565,570,o),
(415,570,cs),
(287,570,l),
(260,423,l),
(361,423,ls),
(419,423,o),
(455,400,o),
(455,350,cs),
(455,280,o),
(404,238,o),
(329,238,cs),
(225,238,l),
(196,91,l)
);
},
{
closed = 1;
nodes = (
(196,0,l),
(331,700,l),
(141,700,l),
(5,0,l)
);
}
);
width = 662;
}
);
metricLeft = P;
metricRight = P;
note = P;
unicode = 222;
},
{
color = 5;
export = 0;
glyphname = Germandbls;
lastChange = "2022-06-23 21:14:54 +0000";
layers = (
{
anchors = (
{
name = bottom;
pos = (336,0);
},
{
name = center;
pos = (336,350);
},
{
name = top;
pos = (336,700);
}
);
background = {
shapes = (
{
closed = 1;
nodes = (
(378,0,ls),
(528,0,o),
(618,71,o),
(618,196,cs),
(618,286,o),
(562,349,o),
(490,365,c),
(552,386,o),
(593,444,o),
(593,514,cs),
(593,636,o),
(507,700,o),
(365,700,cs),
(88,700,l),
(88,0,l)
);
},
{
closed = 1;
nodes = (
(178,319,l),
(374,319,ls),
(466,319,o),
(526,285,o),
(526,199,cs),
(526,117,o),
(466,80,o),
(373,80,cs),
(178,80,l)
);
},
{
closed = 1;
nodes = (
(178,620,l),
(362,620,ls),
(446,620,o),
(501,586,o),
(501,509,cs),
(501,433,o),
(448,399,o),
(362,399,cs),
(178,399,l)
);
}
);
};
layerId = "30E869CF-9A31-4D47-9626-61B8364FC2DA";
shapes = (
{
closed = 1;
nodes = (
(178,0,l),
(178,620,l),
(362,620,ls),
(446,620,o),
(501,586,o),
(501,509,cs),
(501,433,o),
(448,399,o),
(362,399,cs),
(268,399,l),
(268,319,l),
(374,319,ls),
(466,319,o),
(526,285,o),
(526,199,cs),
(526,117,o),
(466,80,o),
(373,80,cs),
(268,80,l),
(268,0,l),
(378,0,ls),
(528,0,o),
(618,71,o),
(618,196,cs),
(618,286,o),
(562,349,o),
(490,365,c),
(552,386,o),
(593,444,o),
(593,514,cs),
(593,636,o),
(507,700,o),
(365,700,cs),
(88,700,l),
(88,0,l)
);
}
);
width = 672;
},
{
anchors = (
{
name = bottom;
pos = (327,0);
},
{
name = center;
pos = (327,350);
},
{
name = top;
pos = (327,700);
}
);
background = {
shapes = (
{
closed = 1;
nodes = (
(361,0,ls),
(504,0,o),
(593,68,o),
(593,189,cs),
(593,282,o),
(533,351,o),
(446,366,c),
(519,386,o),
(565,447,o),
(565,524,cs),
(565,642,o),
(479,700,o),
(350,700,cs),
(96,700,l),
(96,0,l)
);
},
{
closed = 1;
nodes = (
(141,342,l),
(359,342,ls),
(469,342,o),
(548,289,o),
(548,190,cs),
(548,89,o),
(471,39,o),
(359,39,cs),
(141,39,l)
);
},
{
closed = 1;
nodes = (
(141,661,l),
(347,661,ls),
(448,661,o),
(520,616,o),
(520,523,cs),
(520,431,o),
(450,382,o),
(347,382,cs),
(141,382,l)
);
}
);
};
layerId = "18A01495-E50D-4F2B-A1D8-5C332C731D93";
shapes = (
{
closed = 1;
nodes = (
(141,0,l),
(141,661,l),
(347,661,ls),
(448,661,o),
(520,616,o),
(520,523,cs),
(520,431,o),
(450,382,o),
(347,382,cs),
(251,382,l),
(251,342,l),
(359,342,ls),
(469,342,o),
(548,289,o),
(548,190,cs),
(548,89,o),
(471,39,o),
(359,39,cs),
(251,39,l),
(251,0,l),
(361,0,ls),
(504,0,o),
(593,68,o),
(593,189,cs),
(593,282,o),
(533,351,o),
(446,366,c),
(519,386,o),
(565,447,o),
(565,524,cs),
(565,642,o),
(479,700,o),
(350,700,cs),
(96,700,l),
(96,0,l)
);
}
);
width = 653;
},
{
anchors = (
{
name = bottom;
pos = (271,0);
},
{
name = center;
pos = (339,350);
},
{
name = top;
pos = (407,700);
}
);
background = {
shapes = (
{
closed = 1;
nodes = (
(298,0,ls),
(453,0,o),
(560,78,o),
(560,214,cs),
(560,295,o),
(508,348,o),
(450,359,c),
(543,383,o),
(599,457,o),
(599,547,cs),
(599,644,o),
(529,699,o),
(406,699,cs),
(173,699,l),
(37,0,l)
);
},
{
closed = 1;
nodes = (
(145,341,l),
(356,341,ls),
(451,341,o),
(517,299,o),
(517,215,cs),
(517,104,o),
(427,39,o),
(304,39,cs),
(87,39,l)
);
},
{
closed = 1;
nodes = (
(207,661,l),
(407,661,ls),
(498,661,o),
(556,623,o),
(556,544,cs),
(556,437,o),
(471,380,o),
(365,380,cs),
(153,380,l)
);
}
);
};
layerId = "047DE625-588D-43A1-AE3A-C97924B5E3D3";
shapes = (
{
closed = 1;
nodes = (
(80,0,l),
(207,661,l),
(407,661,ls),
(498,661,o),
(556,623,o),
(556,544,cs),
(556,437,o),
(471,380,o),
(365,380,cs),
(260,380,l),
(252,341,l),
(356,341,ls),
(451,341,o),
(517,299,o),
(517,210,cs),
(517,104,o),
(427,39,o),
(304,39,cs),
(194,39,l),
(186,0,l),
(298,0,ls),
(453,0,o),
(560,78,o),
(560,209,cs),
(560,295,o),
(508,348,o),
(450,359,c),
(543,383,o),
(599,457,o),
(599,547,cs),
(599,644,o),
(529,699,o),
(406,699,cs),
(173,699,l),
(37,0,l)
);
}
);
width = 639;
},
{
anchors = (
{
name = bottom;
pos = (281,0);
},
{
name = center;
pos = (349,350);
},
{
name = top;
pos = (417,700);
}
);
background = {
shapes = (
{
closed = 1;
nodes = (
(314,0,ls),
(470,0,o),
(586,82,o),
(586,222,cs),
(586,295,o),
(545,344,o),
(487,357,c),
(568,384,o),
(623,453,o),
(623,540,cs),
(623,640,o),
(549,700,o),
(425,700,cs),
(165,700,l),
(29,0,l)
);
},
{
closed = 1;
nodes = (
(176,323,l),
(367,323,ls),
(448,323,o),
(500,292,o),
(500,220,cs),
(500,125,o),
(426,72,o),
(322,72,cs),
(127,72,l)
);
},
{
closed = 1;
nodes = (
(234,628,l),
(415,628,ls),
(490,628,o),
(537,600,o),
(537,530,cs),
(537,442,o),
(466,394,o),
(374,394,cs),
(190,394,l)
);
}
);
};
layerId = "AB33B01D-3E13-404E-935A-045AA6D07EB8";
shapes = (
{
closed = 1;
nodes = (
(118,0,l),
(236,628,l),
(415,628,ls),
(490,628,o),
(537,600,o),
(537,530,cs),
(537,442,o),
(466,394,o),
(374,394,cs),
(281,394,l),
(267,323,l),
(367,323,ls),
(448,323,o),
(500,292,o),
(500,220,cs),
(500,125,o),
(426,72,o),
(322,72,cs),
(217,72,l),
(203,0,l),
(314,0,ls),
(470,0,o),
(586,82,o),
(586,222,cs),
(586,295,o),
(545,344,o),
(487,357,c),
(568,384,o),
(623,453,o),
(623,540,cs),
(623,640,o),
(549,700,o),
(425,700,cs),
(165,700,l),
(29,0,l)
);
}
);
width = 659;
},
{
anchors = (
{
name = bottom;
pos = (350,0);
},
{
name = center;
pos = (350,350);
},
{
name = top;
pos = (350,700);
}
);
background = {
shapes = (
{
closed = 1;
nodes = (
(401,0,ls),
(560,0,o),
(665,66,o),
(665,199,cs),
(665,281,o),
(618,338,o),
(546,362,c),
(604,386,o),
(647,438,o),
(647,518,cs),
(647,633,o),
(564,700,o),
(410,700,cs),
(65,700,l),
(65,0,l)
);
},
{
closed = 1;
nodes = (
(254,290,l),
(373,290,ls),
(435,290,o),
(471,266,o),
(471,215,cs),
(471,164,o),
(435,141,o),
(372,141,cs),
(254,141,l)
);
},
{
closed = 1;
nodes = (
(254,560,l),
(363,560,ls),
(422,560,o),
(454,537,o),
(454,490,cs),
(454,439,o),
(422,417,o),
(363,417,cs),
(254,417,l)
);
}
);
};
layerId = "9D32FE6F-9470-45EF-9689-909A6F5CE504";
shapes = (
{
closed = 1;
nodes = (
(254,0,l),
(254,560,l),
(363,560,ls),
(422,560,o),
(454,537,o),
(454,490,cs),
(454,439,o),
(422,417,o),
(363,417,cs),
(315,417,l),
(315,290,l),
(373,290,ls),
(435,290,o),
(471,266,o),
(471,215,cs),
(471,164,o),
(435,141,o),
(372,141,cs),
(315,141,l),
(315,0,l),
(401,0,ls),
(560,0,o),
(665,66,o),
(665,199,cs),
(665,281,o),
(618,338,o),
(546,362,c),
(604,386,o),
(647,438,o),
(647,518,cs),
(647,633,o),
(564,700,o),
(410,700,cs),
(65,700,l),
(65,0,l)
);
}
);
width = 700;
},
{
anchors = (
{
name = bottom;
pos = (297,0);
},
{
name = center;
pos = (365,350);
},
{
name = top;
pos = (433,700);
}
);
background = {
shapes = (
{
closed = 1;
nodes = (
(340,0,ls),
(483,0,o),
(638,64,o),
(638,222,cs),
(638,288,o),
(605,333,o),
(548,353,c),
(624,380,o),
(674,447,o),
(674,533,cs),
(674,633,o),
(595,697,o),
(462,697,cs),
(140,697,l),
(5,0,l)
);
},
{
closed = 1;
nodes = (
(249,290,l),
(369,290,ls),
(416,290,o),
(448,274,o),
(448,228,cs),
(448,173,o),
(404,141,o),
(342,141,cs),
(220,141,l)
);
},
{
closed = 1;
nodes = (
(301,557,l),
(411,557,ls),
(457,557,o),
(484,539,o),
(484,498,cs),
(484,448,o),
(444,417,o),
(387,417,cs),
(274,417,l)
);
}
);
};
guides = (
{
angle = 78.8637;
pos = (308,354);
}
);
layerId = "69B5B248-E33C-46C9-9D9F-11585640C213";
shapes = (
{
closed = 1;
nodes = (
(193,0,l),
(301,557,l),
(411,557,ls),
(457,557,o),
(484,539,o),
(484,498,cs),
(484,448,o),
(444,417,o),
(387,417,cs),
(320,417,l),
(295,290,l),
(369,290,ls),
(416,290,o),
(448,274,o),
(448,228,cs),
(448,173,o),
(404,141,o),
(342,141,cs),
(266,141,l),
(238,0,l),
(340,0,ls),
(483,0,o),
(638,64,o),
(638,222,cs),
(638,288,o),
(605,333,o),
(548,353,c),
(624,380,o),
(674,447,o),
(674,533,cs),
(674,633,o),
(595,697,o),
(462,697,cs),
(140,697,l),
(5,0,l)
);
}
);
width = 692;
}
);
metricLeft = B;
metricRight = B;
note = B;
unicode = 7838;
},
{
color = 5;
export = 0;
glyphname = Q.ss01;
kernLeft = C;
lastChange = "2022-06-23 21:16:27 +0000";
layers = (
{
background = {
shapes = (
{
closed = 1;
nodes = (
(727,-80,l),
(727,0,l),
(648,0,ls),
(601,0,o),
(582,18,o),
(566,66,c),
(484,23,l),
(520,-50,o),
(556,-80,o),
(624,-80,cs)
);
},
{
ref = O;
}
);
};
guides = (
{
angle = 90;
pos = (727,206);
}
);
layerId = "30E869CF-9A31-4D47-9626-61B8364FC2DA";
shapes = (
{
closed = 1;
nodes = (
(727,-80,l),
(727,0,l),
(648,0,ls),
(601,0,o),
(582,18,o),
(566,66,c),
(484,23,l),
(520,-50,o),
(556,-80,o),
(624,-80,cs)
);
},
{
ref = O;
}
);
width = 775;
},
{
background = {
shapes = (
{
closed = 1;
nodes = (
(712,-42,l),
(712,0,l),
(618,0,ls),
(577,0,o),
(557,14,o),
(542,50,c),
(499,33,l),
(531,-20,o),
(566,-42,o),
(624,-42,cs)
);
},
{
ref = O;
}
);
};
color = 4;
guides = (
{
angle = 90;
pos = (712,213);
}
);
layerId = "18A01495-E50D-4F2B-A1D8-5C332C731D93";
shapes = (
{
closed = 1;
nodes = (
(712,-42,l),
(712,0,l),
(618,0,ls),
(577,0,o),
(557,14,o),
(542,50,c),
(499,33,l),
(531,-20,o),
(566,-42,o),
(624,-42,cs)
);
},
{
ref = O;
}
);
width = 765;
},
{
background = {
shapes = (
{
closed = 1;
nodes = (
(629,-42,l),
(638,0,l),
(556,0,ls),
(515,0,o),
(498,14,o),
(491,50,c),
(444,33,l),
(465,-20,o),
(495,-42,o),
(553,-42,cs)
);
},
{
ref = O;
}
);
};
guides = (
{
angle = 78;
pos = (685,221);
}
);
layerId = "047DE625-588D-43A1-AE3A-C97924B5E3D3";
shapes = (
{
closed = 1;
nodes = (
(629,-42,l),
(638,0,l),
(556,0,ls),
(515,0,o),
(498,14,o),
(491,50,c),
(444,33,l),
(465,-20,o),
(495,-42,o),
(553,-42,cs)
);
},
{
ref = O;
}
);
width = 754;
},
{
background = {
shapes = (
{
closed = 1;
nodes = (
(635,-80,l),
(652,0,l),
(573,0,ls),
(526,0,o),
(511,18,o),
(505,66,c),
(414,23,l),
(435,-50,o),
(464,-80,o),
(532,-80,cs)
);
},
{
ref = O;
}
);
};
guides = (
{
angle = 78;
pos = (687,165);
}
);
layerId = "AB33B01D-3E13-404E-935A-045AA6D07EB8";
shapes = (
{
closed = 1;
nodes = (
(635,-80,l),
(652,0,l),
(573,0,ls),
(526,0,o),
(511,18,o),
(505,66,c),
(414,23,l),
(435,-50,o),
(464,-80,o),
(532,-80,cs)
);
},
{
ref = O;
}
);
width = 762;
},
{
background = {
shapes = (
{
closed = 1;
nodes = (
(764,-143,l),
(764,3,l),
(652,3,ls),
(614,3,o),
(591,19,o),
(584,51,c),
(424,-10,l),
(456,-99,o),
(523,-143,o),
(625,-143,cs)
);
},
{
ref = O;
}
);
};
guides = (
{
angle = 90;
pos = (764,233);
}
);
layerId = "9D32FE6F-9470-45EF-9689-909A6F5CE504";
shapes = (
{
closed = 1;
nodes = (
(764,-143,l),
(764,3,l),
(652,3,ls),
(614,3,o),
(591,19,o),
(584,51,c),
(424,-10,l),
(456,-99,o),
(523,-143,o),
(625,-143,cs)
);
},
{
ref = O;
}
);
width = 795;
},
{
background = {
shapes = (
{
closed = 1;
nodes = (
(663,-126,l),
(689,0,l),
(607,0,ls),
(569,0,o),
(550,16,o),
(549,48,c),
(401,7,l),
(414,-82,o),
(472,-126,o),
(574,-126,cs)
);
},
{
ref = O;
}
);
};
guides = (
{
angle = 78;
pos = (694,16);
}
);
layerId = "69B5B248-E33C-46C9-9D9F-11585640C213";
shapes = (
{
closed = 1;
nodes = (
(663,-126,l),
(689,0,l),
(607,0,ls),
(569,0,o),
(550,16,o),
(549,48,c),
(401,7,l),
(414,-82,o),
(472,-126,o),
(574,-126,cs)
);
},
{
ref = O;
}
);
width = 784;
}
);
note = Q;
},
{
color = 5;
export = 0;
glyphname = A.ss03;
kernLeft = A;
kernRight = A;
lastChange = "2022-06-23 21:15:49 +0000";
layers = (
{
background = {
shapes = (
{
closed = 1;
nodes = (
(107,0,l),
(183,192,l),
(518,192,l),
(595,0,l),
(685,0,l),
(425,643,ls),
(411,679,o),
(382,700,o),
(351,700,cs),
(319,700,o),
(290,679,o),
(276,643,cs),
(17,0,l)
);
},
{
closed = 1;
nodes = (
(342,606,ls),
(344,612,o),
(354,612,o),
(356,606,cs),
(486,270,l),
(214,270,l)
);
}
);
};
layerId = "30E869CF-9A31-4D47-9626-61B8364FC2DA";
shapes = (
{
closed = 1;
nodes = (
(107,0,l),
(183,192,l),
(518,192,l),
(595,0,l),
(685,0,l),
(425,643,ls),
(411,679,o),
(382,700,o),
(351,700,cs),
(319,700,o),
(290,679,o),
(276,643,cs),
(17,0,l)
);
},
{
closed = 1;
nodes = (
(342,606,ls),
(344,612,o),
(354,612,o),
(356,606,cs),
(486,270,l),
(214,270,l)
);
}
);
width = 700;
},
{
background = {
shapes = (
{
closed = 1;
nodes = (
(67,0,l),
(160,223,l),
(518,223,l),
(612,0,l),
(657,0,l),
(379,662,ls),
(368,689,o),
(355,700,o),
(339,700,cs),
(323,700,o),
(310,688,o),
(299,661,cs),
(22,0,l)
);
},
{
closed = 1;
nodes = (
(333,645,ls),
(335,651,o),
(341,651,o),
(343,645,cs),
(502,262,l),
(176,262,l)
);
}
);
};
layerId = "18A01495-E50D-4F2B-A1D8-5C332C731D93";
shapes = (
{
closed = 1;
nodes = (
(67,0,l),
(160,223,l),
(518,223,l),
(612,0,l),
(657,0,l),
(379,662,ls),
(368,689,o),
(355,700,o),
(339,700,cs),
(323,700,o),
(310,688,o),
(299,661,cs),
(22,0,l)
);
},
{
closed = 1;
nodes = (
(333,645,ls),
(335,651,o),
(341,651,o),
(343,645,cs),
(502,262,l),
(176,262,l)
);
}
);
width = 679;
},
{
background = {
shapes = (
{
closed = 1;
nodes = (
(14,0,l),
(148,223,l),
(498,223,l),
(546,0,l),
(589,0,l),
(447,656,ls),
(441,686,o),
(429,700,o),
(414,700,cs),
(398,700,o),
(384,690,o),
(370,666,cs),
(-34,0,l)
);
},
{
closed = 1;
nodes = (
(400,640,ls),
(403,646,o),
(409,645,o),
(410,639,cs),
(489,262,l),
(172,262,l)
);
}
);
};
layerId = "047DE625-588D-43A1-AE3A-C97924B5E3D3";
shapes = (
{
closed = 1;
nodes = (
(14,0,l),
(148,223,l),
(498,223,l),
(546,0,l),
(589,0,l),
(447,656,ls),
(441,686,o),
(429,700,o),
(414,700,cs),
(398,700,o),
(384,690,o),
(370,666,cs),
(-34,0,l)
);
},
{
closed = 1;
nodes = (
(400,640,ls),
(403,646,o),
(409,645,o),
(410,639,cs),
(489,262,l),
(172,262,l)
);
}
);
width = 670;
},
{
background = {
shapes = (
{
closed = 1;
nodes = (
(50,0,l),
(163,195,l),
(489,195,l),
(527,0,l),
(612,0,l),
(487,611,ls),
(475,670,o),
(453,700,o),
(421,700,cs),
(388,700,o),
(361,680,o),
(333,632,cs),
(-41,0,l)
);
},
{
closed = 1;
nodes = (
(398,601,ls),
(402,609,o),
(409,608,o),
(411,599,cs),
(475,268,l),
(206,268,l)
);
}
);
};
layerId = "AB33B01D-3E13-404E-935A-045AA6D07EB8";
shapes = (
{
closed = 1;
nodes = (
(50,0,l),
(163,195,l),
(489,195,l),
(527,0,l),
(612,0,l),
(487,611,ls),
(475,670,o),
(453,700,o),
(421,700,cs),
(388,700,o),
(361,680,o),
(333,632,cs),
(-41,0,l)
);
},
{
closed = 1;
nodes = (
(398,601,ls),
(402,609,o),
(409,608,o),
(411,599,cs),
(475,268,l),
(206,268,l)
);
}
);
width = 688;
},
{
background = {
shapes = (
{
closed = 1;
nodes = (
(206,0,l),
(245,123,l),
(512,123,l),
(552,0,l),
(754,0,l),
(559,547,ls),
(522,651,o),
(465,700,o),
(382,700,cs),
(299,700,o),
(241,651,o),
(204,547,cs),
(9,0,l)
);
},
{
closed = 1;
nodes = (
(363,517,ls),
(370,540,o),
(389,540,o),
(395,517,cs),
(463,273,l),
(294,273,l)
);
}
);
};
layerId = "9D32FE6F-9470-45EF-9689-909A6F5CE504";
shapes = (
{
closed = 1;
nodes = (
(206,0,l),
(245,123,l),
(512,123,l),
(552,0,l),
(754,0,l),
(559,547,ls),
(522,651,o),
(465,700,o),
(382,700,cs),
(299,700,o),
(241,651,o),
(204,547,cs),
(9,0,l)
);
},
{
closed = 1;
nodes = (
(363,517,ls),
(370,540,o),
(389,540,o),
(395,517,cs),
(463,273,l),
(294,273,l)
);
}
);
width = 763;
},
{
background = {
shapes = (
{
closed = 1;
nodes = (
(155,0,l),
(218,123,l),
(479,123,l),
(494,0,l),
(684,0,l),
(601,526,ls),
(583,641,o),
(533,700,o),
(453,700,cs),
(370,700,o),
(309,659,o),
(259,566,cs),
(-49,0,l)
);
},
{
closed = 1;
nodes = (
(408,521,ls),
(418,543,o),
(438,541,o),
(440,516,cs),
(461,272,l),
(294,272,l)
);
}
);
};
layerId = "69B5B248-E33C-46C9-9D9F-11585640C213";
shapes = (
{
closed = 1;
nodes = (
(155,0,l),
(218,123,l),
(479,123,l),
(494,0,l),
(684,0,l),
(601,526,ls),
(583,641,o),
(533,700,o),
(453,700,cs),
(370,700,o),
(309,659,o),
(259,566,cs),
(-49,0,l)
);
},
{
closed = 1;
nodes = (
(408,521,ls),
(418,543,o),
(438,541,o),
(440,516,cs),
(461,272,l),
(294,272,l)
);
}
);
width = 752;
}
);
note = A;
},
{
color = 5;
export = 0;
glyphname = G.ss03;
kernLeft = C;
kernRight = G;
lastChange = "2022-06-23 21:15:49 +0000";
layers = (
{
background = {
shapes = (
{
closed = 1;
nodes = (
(479,-10,o),
(564,37,o),
(611,112,c),
(611,0,l),
(693,0,l),
(693,359,l),
(393,359,l),
(393,279,l),
(609,279,l),
(609,276,ls),
(609,144,o),
(495,70,o),
(382,70,cs),
(240,70,o),
(143,186,o),
(143,351,cs),
(143,514,o),
(241,630,o),
(387,630,cs),
(485,630,o),
(573,575,o),
(596,478,c),
(689,478,l),
(665,626,o),
(536,710,o),
(387,710,cs),
(188,710,o),
(48,563,o),
(48,351,cs),
(48,147,o),
(177,-10,o),
(374,-10,cs)
);
}
);
};
layerId = "30E869CF-9A31-4D47-9626-61B8364FC2DA";
shapes = (
{
closed = 1;
nodes = (
(479,-10,o),
(564,37,o),
(611,112,c),
(611,0,l),
(693,0,l),
(693,284,ls),
(693,332,o),
(666,359,o),
(618,359,cs),
(393,359,l),
(393,279,l),
(609,279,l),
(609,276,ls),
(609,144,o),
(495,70,o),
(382,70,cs),
(240,70,o),
(143,186,o),
(143,351,cs),
(143,514,o),
(241,630,o),
(387,630,cs),
(485,630,o),
(573,575,o),
(596,478,c),
(689,478,l),
(665,626,o),
(536,710,o),
(387,710,cs),
(188,710,o),
(48,563,o),
(48,351,cs),
(48,147,o),
(177,-10,o),
(374,-10,cs)
);
}
);
width = 768;
},
{
background = {
shapes = (
{
closed = 1;
nodes = (
(495,-10,o),
(589,55,o),
(630,153,c),
(630,0,l),
(670,0,l),
(670,339,l),
(380,339,l),
(380,299,l),
(630,299,l),
(630,294,ls),
(630,126,o),
(519,30,o),
(376,30,cs),
(225,30,o),
(97,150,o),
(97,350,cs),
(97,526,o),
(203,670,o),
(377,670,cs),
(489,670,o),
(589,608,o),
(619,490,c),
(664,490,l),
(635,627,o),
(516,710,o),
(377,710,cs),
(175,710,o),
(52,546,o),
(52,350,cs),
(52,130,o),
(196,-10,o),
(375,-10,cs)
);
}
);
};
layerId = "18A01495-E50D-4F2B-A1D8-5C332C731D93";
shapes = (
{
closed = 1;
nodes = (
(495,-10,o),
(589,55,o),
(630,153,c),
(630,0,l),
(670,0,l),
(670,294,ls),
(670,323,o),
(654,339,o),
(625,339,cs),
(380,339,l),
(380,299,l),
(630,299,l),
(630,294,ls),
(630,126,o),
(519,30,o),
(376,30,cs),
(225,30,o),
(97,150,o),
(97,350,cs),
(97,526,o),
(203,670,o),
(377,670,cs),
(489,670,o),
(589,608,o),
(619,490,c),
(664,490,l),
(635,627,o),
(516,710,o),
(377,710,cs),
(175,710,o),
(52,546,o),
(52,350,cs),
(52,130,o),
(196,-10,o),
(375,-10,cs)
);
}
);
width = 752;
},
{
background = {
shapes = (
{
closed = 1;
nodes = (
(449,-11,o),
(535,43,o),
(596,143,c),
(567,0,l),
(607,0,l),
(673,338,l),
(385,338,l),
(377,299,l),
(626,299,l),
(624,289,ls),
(587,126,o),
(473,29,o),
(336,29,cs),
(187,29,o),
(102,149,o),
(102,290,cs),
(102,502,o),
(252,670,o),
(431,670,cs),
(548,670,o),
(638,602,o),
(645,490,c),
(689,490,l),
(685,616,o),
(584,710,o),
(436,710,cs),
(232,710,o),
(58,534,o),
(58,287,cs),
(58,128,o),
(160,-11,o),
(331,-11,cs)
);
}
);
};
layerId = "047DE625-588D-43A1-AE3A-C97924B5E3D3";
shapes = (
{
closed = 1;
nodes = (
(449,-11,o),
(535,43,o),
(596,143,c),
(567,0,l),
(607,0,l),
(663,289,ls),
(669,319,o),
(654,338,o),
(623,338,cs),
(385,338,l),
(377,299,l),
(626,299,l),
(624,289,ls),
(587,126,o),
(473,29,o),
(336,29,cs),
(187,29,o),
(102,149,o),
(102,290,cs),
(102,502,o),
(252,670,o),
(431,670,cs),
(548,670,o),
(638,602,o),
(645,490,c),
(689,490,l),
(685,616,o),
(584,710,o),
(436,710,cs),
(232,710,o),
(58,534,o),
(58,287,cs),
(58,128,o),
(160,-11,o),
(331,-11,cs)
);
}
);
width = 745;
},
{
background = {
shapes = (
{
closed = 1;
nodes = (
(435,-11,o),
(512,32,o),
(572,113,c),
(550,0,l),
(626,0,l),
(695,357,l),
(399,357,l),
(385,283,l),
(601,283,l),
(600,277,ls),
(568,156,o),
(466,64,o),
(343,64,cs),
(229,64,o),
(141,146,o),
(141,291,cs),
(141,458,o),
(248,635,o),
(429,635,cs),
(530,635,o),
(615,581,o),
(623,480,c),
(708,480,l),
(705,636,o),
(569,710,o),
(438,710,cs),
(192,710,o),
(52,496,o),
(52,281,cs),
(52,98,o),
(178,-11,o),
(329,-11,cs)
);
}
);
};
layerId = "AB33B01D-3E13-404E-935A-045AA6D07EB8";
shapes = (
{
closed = 1;
nodes = (
(435,-11,o),
(512,32,o),
(572,113,c),
(550,0,l),
(626,0,l),
(679,275,ls),
(689,327,o),
(664,357,o),
(612,357,cs),
(399,357,l),
(385,283,l),
(601,283,l),
(600,277,ls),
(568,156,o),
(466,64,o),
(343,64,cs),
(229,64,o),
(141,146,o),
(141,291,cs),
(141,458,o),
(248,635,o),
(429,635,cs),
(530,635,o),
(615,581,o),
(623,480,c),
(708,480,l),
(705,636,o),
(569,710,o),
(438,710,cs),
(192,710,o),
(52,496,o),
(52,281,cs),
(52,98,o),
(178,-11,o),
(329,-11,cs)
);
}
);
width = 758;
},
{
background = {
shapes = (
{
closed = 1;
nodes = (
(458,-12,o),
(530,23,o),
(578,78,c),
(578,0,l),
(742,0,l),
(742,391,l),
(413,391,l),
(413,252,l),
(563,252,l),
(562,248,ls),
(545,182,o),
(481,143,o),
(405,143,cs),
(298,143,o),
(229,223,o),
(229,350,cs),
(229,469,o),
(293,554,o),
(403,554,cs),
(468,554,o),
(526,526,o),
(543,467,c),
(740,467,l),
(716,628,o),
(567,710,o),
(401,710,cs),
(165,710,o),
(30,555,o),
(30,350,cs),
(30,125,o),
(185,-12,o),
(364,-12,cs)
);
}
);
};
layerId = "9D32FE6F-9470-45EF-9689-909A6F5CE504";
shapes = (
{
closed = 1;
nodes = (
(458,-12,o),
(530,23,o),
(578,78,c),
(578,0,l),
(742,0,l),
(742,291,ls),
(742,356,o),
(707,391,o),
(642,391,cs),
(413,391,l),
(413,252,l),
(563,252,l),
(562,248,ls),
(545,182,o),
(481,143,o),
(405,143,cs),
(298,143,o),
(229,223,o),
(229,350,cs),
(229,469,o),
(293,554,o),
(403,554,cs),
(468,554,o),
(526,526,o),
(543,467,c),
(740,467,l),
(716,628,o),
(567,710,o),
(401,710,cs),
(165,710,o),
(30,555,o),
(30,350,cs),
(30,125,o),
(185,-12,o),
(364,-12,cs)
);
}
);
width = 799;
},
{
background = {
shapes = (
{
closed = 1;
nodes = (
(407,-12,o),
(475,21,o),
(527,78,c),
(513,0,l),
(675,0,l),
(751,391,l),
(426,391,l),
(399,253,l),
(539,253,l),
(539,250,l),
(514,185,o),
(448,142,o),
(375,142,cs),
(287,142,o),
(232,201,o),
(232,307,cs),
(232,420,o),
(299,556,o),
(433,556,cs),
(499,556,o),
(557,526,o),
(566,467,c),
(761,467,l),
(753,612,o),
(621,710,o),
(443,710,cs),
(182,710,o),
(35,508,o),
(35,297,cs),
(35,94,o),
(171,-12,o),
(316,-12,cs)
);
}
);
};
layerId = "69B5B248-E33C-46C9-9D9F-11585640C213";
shapes = (
{
closed = 1;
nodes = (
(407,-12,o),
(475,21,o),
(527,78,c),
(513,0,l),
(675,0,l),
(730,282,ls),
(743,351,o),
(709,391,o),
(640,391,cs),
(426,391,l),
(399,253,l),
(539,253,l),
(539,250,l),
(514,185,o),
(448,142,o),
(375,142,cs),
(287,142,o),
(232,201,o),
(232,307,cs),
(232,420,o),
(299,556,o),
(433,556,cs),
(499,556,o),
(557,526,o),
(566,467,c),
(761,467,l),
(753,612,o),
(621,710,o),
(443,710,cs),
(182,710,o),
(35,508,o),
(35,297,cs),
(35,94,o),
(171,-12,o),
(316,-12,cs)
);
}
);
width = 791;
}
);
note = G;
},
{
color = 5;
export = 0;
glyphname = A.ss04;
kernLeft = AE;
kernRight = H;
lastChange = "2022-06-23 21:15:49 +0000";
layers = (
{
background = {
shapes = (
{
closed = 1;
nodes = (
(89,0,l),
(223,211,l),
(493,211,l),
(493,0,l),
(583,0,l),
(583,700,l),
(439,700,l),
(-11,0,l)
);
},
{
closed = 1;
nodes = (
(493,632,l),
(493,288,l),
(272,288,l)
);
}
);
};
layerId = "30E869CF-9A31-4D47-9626-61B8364FC2DA";
shapes = (
{
closed = 1;
nodes = (
(89,0,l),
(223,211,l),
(493,211,l),
(493,0,l),
(583,0,l),
(583,700,l),
(439,700,l),
(-11,0,l)
);
},
{
closed = 1;
nodes = (
(493,632,l),
(493,288,l),
(272,288,l)
);
}
);
width = 665;
},
{
background = {
shapes = (
{
closed = 1;
nodes = (
(187,0,l),
(272,112,l),
(487,112,l),
(463,0,l),
(699,0,l),
(848,700,l),
(458,700,l),
(-89,0,l)
);
},
{
closed = 1;
nodes = (
(571,505,l),
(525,290,l),
(407,290,l)
);
}
);
};
layerId = "69B5B248-E33C-46C9-9D9F-11585640C213";
shapes = (
{
closed = 1;
nodes = (
(187,0,l),
(272,112,l),
(487,112,l),
(463,0,l),
(699,0,l),
(848,700,l),
(458,700,l),
(-89,0,l)
);
},
{
closed = 1;
nodes = (
(571,505,l),
(525,290,l),
(407,290,l)
);
}
);
width = 825;
},
{
background = {
shapes = (
{
closed = 1;
nodes = (
(-25,0,l),
(197,244,l),
(484,244,l),
(432,0,l),
(474,0,l),
(623,700,l),
(560,700,l),
(-78,0,l)
);
},
{
closed = 1;
nodes = (
(573,659,l),
(492,281,l),
(230,281,l)
);
}
);
};
layerId = "047DE625-588D-43A1-AE3A-C97924B5E3D3";
shapes = (
{
closed = 1;
nodes = (
(-25,0,l),
(197,244,l),
(484,244,l),
(432,0,l),
(474,0,l),
(623,700,l),
(560,700,l),
(-78,0,l)
);
},
{
closed = 1;
nodes = (
(573,659,l),
(492,281,l),
(230,281,l)
);
}
);
width = 636;
},
{
background = {
shapes = (
{
closed = 1;
nodes = (
(25,0,l),
(204,211,l),
(466,211,l),
(421,0,l),
(510,0,l),
(659,700,l),
(513,700,l),
(-86,0,l)
);
},
{
closed = 1;
nodes = (
(554,623,l),
(483,288,l),
(270,288,l)
);
}
);
};
layerId = "AB33B01D-3E13-404E-935A-045AA6D07EB8";
shapes = (
{
closed = 1;
nodes = (
(25,0,l),
(204,211,l),
(466,211,l),
(421,0,l),
(510,0,l),
(659,700,l),
(513,700,l),
(-86,0,l)
);
},
{
closed = 1;
nodes = (
(554,623,l),
(483,288,l),
(270,288,l)
);
}
);
width = 667;
},
{
background = {
shapes = (
{
closed = 1;
nodes = (
(41,0,l),
(213,241,l),
(503,241,l),
(503,0,l),
(548,0,l),
(548,700,l),
(486,700,l),
(-4,0,l)
);
},
{
closed = 1;
nodes = (
(503,658,l),
(503,281,l),
(237,281,l)
);
}
);
};
layerId = "18A01495-E50D-4F2B-A1D8-5C332C731D93";
shapes = (
{
closed = 1;
nodes = (
(41,0,l),
(213,241,l),
(503,241,l),
(503,0,l),
(548,0,l),
(548,700,l),
(486,700,l),
(-4,0,l)
);
},
{
closed = 1;
nodes = (
(503,658,l),
(503,281,l),
(237,281,l)
);
}
);
width = 635;
},
{
background = {
shapes = (
{
closed = 1;
nodes = (
(201,0,l),
(265,122,l),
(542,122,l),
(542,0,l),
(738,0,l),
(738,700,l),
(388,700,l),
(-10,0,l)
);
},
{
closed = 1;
nodes = (
(542,595,l),
(542,282,l),
(358,282,l)
);
}
);
};
layerId = "9D32FE6F-9470-45EF-9689-909A6F5CE504";
shapes = (
{
closed = 1;
nodes = (
(201,0,l),
(265,122,l),
(542,122,l),
(542,0,l),
(738,0,l),
(738,700,l),
(388,700,l),
(-10,0,l)
);
},
{
closed = 1;
nodes = (
(542,595,l),
(542,282,l),
(358,282,l)
);
}
);
width = 815;
}
);
note = A.liga;
},
{
color = 5;
export = 0;
glyphname = V.ss04;
kernLeft = B;
kernRight = V.liga;
lastChange = "2022-06-23 21:15:49 +0000";
layers = (
{
background = {
shapes = (
{
closed = 1;
nodes = (
(227,0,l),
(676,700,l),
(573,700,l),
(173,72,l),
(173,700,l),
(83,700,l),
(83,0,l)
);
}
);
};
layerId = "30E869CF-9A31-4D47-9626-61B8364FC2DA";
shapes = (
{
closed = 1;
nodes = (
(227,0,l),
(676,700,l),
(573,700,l),
(173,72,l),
(173,700,l),
(83,700,l),
(83,0,l)
);
}
);
width = 665;
},
{
background = {
shapes = (
{
closed = 1;
nodes = (
(368,0,l),
(915,700,l),
(637,700,l),
(259,202,l),
(365,700,l),
(127,700,l),
(-22,0,l)
);
}
);
};
layerId = "69B5B248-E33C-46C9-9D9F-11585640C213";
shapes = (
{
closed = 1;
nodes = (
(368,0,l),
(915,700,l),
(637,700,l),
(259,202,l),
(365,700,l),
(127,700,l),
(-22,0,l)
);
}
);
width = 825;
},
{
background = {
shapes = (
{
closed = 1;
nodes = (
(77,0,l),
(715,700,l),
(661,700,l),
(64,43,l),
(205,700,l),
(163,700,l),
(14,0,l)
);
}
);
};
layerId = "047DE625-588D-43A1-AE3A-C97924B5E3D3";
shapes = (
{
closed = 1;
nodes = (
(77,0,l),
(715,700,l),
(661,700,l),
(64,43,l),
(205,700,l),
(163,700,l),
(14,0,l)
);
}
);
width = 636;
},
{
background = {
shapes = (
{
closed = 1;
nodes = (
(155,0,l),
(754,700,l),
(642,700,l),
(115,80,l),
(248,700,l),
(158,700,l),
(9,0,l)
);
}
);
};
layerId = "AB33B01D-3E13-404E-935A-045AA6D07EB8";
shapes = (
{
closed = 1;
nodes = (
(155,0,l),
(754,700,l),
(642,700,l),
(115,80,l),
(248,700,l),
(158,700,l),
(9,0,l)
);
}
);
width = 667;
},
{
background = {
shapes = (
{
closed = 1;
nodes = (
(150,0,l),
(639,700,l),
(590,700,l),
(130,40,l),
(130,700,l),
(88,700,l),
(88,0,l)
);
}
);
};
layerId = "18A01495-E50D-4F2B-A1D8-5C332C731D93";
shapes = (
{
closed = 1;
nodes = (
(150,0,l),
(639,700,l),
(590,700,l),
(130,40,l),
(130,700,l),
(88,700,l),
(88,0,l)
);
}
);
width = 635;
},
{
background = {
shapes = (
{
closed = 1;
nodes = (
(432,0,l),
(830,700,l),
(567,700,l),
(290,193,l),
(290,700,l),
(52,700,l),
(52,0,l)
);
}
);
};
layerId = "9D32FE6F-9470-45EF-9689-909A6F5CE504";
shapes = (
{
closed = 1;
nodes = (
(432,0,l),
(830,700,l),
(567,700,l),
(290,193,l),
(290,700,l),
(52,700,l),
(52,0,l)
);
}
);
width = 815;
}
);
note = V.liga;
},
{
color = 4;
glyphname = W_W;
kernLeft = W;
kernRight = W;
lastChange = "2022-05-29 18:29:24 +0000";
layers = (
{
background = {
shapes = (
{
closed = 1;
nodes = (
(328,0,l),
(492,597,l),
(656,0,l),
(764,0,l),
(919,549,l),
(1070,0,l),
(1178,0,l),
(1376,700,l),
(1287,700,l),
(1124,106,l),
(962,700,l),
(873,700,l),
(710,106,l),
(547,700,l),
(441,700,l),
(278,106,l),
(115,700,l),
(22,700,l),
(220,0,l)
);
}
);
};
layerId = "30E869CF-9A31-4D47-9626-61B8364FC2DA";
shapes = (
{
closed = 1;
nodes = (
(328,0,l),
(492,597,l),
(656,0,l),
(764,0,l),
(919,549,l),
(1070,0,l),
(1178,0,l),
(1376,700,l),
(1287,700,l),
(1124,106,l),
(962,700,l),
(873,700,l),
(710,106,l),
(547,700,l),
(441,700,l),
(278,106,l),
(115,700,l),
(22,700,l),
(220,0,l)
);
}
);
width = 1398;
},
{
background = {
shapes = (
{
closed = 1;
nodes = (
(294,0,l),
(486,646,l),
(678,0,l),
(728,0,l),
(927,643,l),
(1118,0,l),
(1168,0,l),
(1385,700,l),
(1342,700,l),
(1143,52,l),
(952,700,l),
(902,700,l),
(703,52,l),
(512,700,l),
(462,700,l),
(270,52,l),
(71,700,l),
(26,700,l),
(243,0,l)
);
}
);
};
layerId = "18A01495-E50D-4F2B-A1D8-5C332C731D93";
shapes = (
{
closed = 1;
nodes = (
(294,0,l),
(486,646,l),
(678,0,l),
(728,0,l),
(927,643,l),
(1118,0,l),
(1168,0,l),
(1385,700,l),
(1342,700,l),
(1143,52,l),
(952,700,l),
(902,700,l),
(703,52,l),
(512,700,l),
(462,700,l),
(270,52,l),
(71,700,l),
(26,700,l),
(243,0,l)
);
}
);
width = 1411;
},
{
background = {
shapes = (
{
closed = 1;
nodes = (
(230,0,l),
(544,644,l),
(607,0,l),
(656,0,l),
(981,649,l),
(1045,0,l),
(1094,0,l),
(1445,700,l),
(1400,700,l),
(1077,52,l),
(1015,700,l),
(962,700,l),
(639,52,l),
(577,700,l),
(530,700,l),
(214,53,l),
(144,700,l),
(103,700,l),
(180,0,l)
);
}
);
};
layerId = "047DE625-588D-43A1-AE3A-C97924B5E3D3";
shapes = (
{
closed = 1;
nodes = (
(230,0,l),
(544,644,l),
(607,0,l),
(656,0,l),
(981,649,l),
(1045,0,l),
(1094,0,l),
(1445,700,l),
(1400,700,l),
(1077,52,l),
(1015,700,l),
(962,700,l),
(639,52,l),
(577,700,l),
(530,700,l),
(214,53,l),
(144,700,l),
(103,700,l),
(180,0,l)
);
}
);
width = 1396;
},
{
background = {
shapes = (
{
closed = 1;
nodes = (
(261,0,l),
(542,601,l),
(589,0,l),
(690,0,l),
(963,575,l),
(1008,0,l),
(1109,0,l),
(1442,700,l),
(1356,700,l),
(1073,97,l),
(1026,700,l),
(937,700,l),
(654,97,l),
(608,700,l),
(510,700,l),
(229,97,l),
(181,700,l),
(99,700,l),
(160,0,l)
);
}
);
};
layerId = "AB33B01D-3E13-404E-935A-045AA6D07EB8";
shapes = (
{
closed = 1;
nodes = (
(261,0,l),
(542,601,l),
(589,0,l),
(690,0,l),
(963,575,l),
(1008,0,l),
(1109,0,l),
(1442,700,l),
(1356,700,l),
(1073,97,l),
(1026,700,l),
(937,700,l),
(654,97,l),
(608,700,l),
(510,700,l),
(229,97,l),
(181,700,l),
(99,700,l),
(160,0,l)
);
}
);
width = 1388;
},
{
background = {
shapes = (
{
closed = 1;
nodes = (
(407,0,l),
(530,476,l),
(654,0,l),
(860,0,l),
(986,478,l),
(1111,0,l),
(1317,0,l),
(1502,700,l),
(1314,700,l),
(1201,234,l),
(1082,700,l),
(857,700,l),
(744,234,l),
(625,700,l),
(440,700,l),
(322,238,l),
(208,700,l),
(14,700,l),
(200,0,l)
);
}
);
};
layerId = "9D32FE6F-9470-45EF-9689-909A6F5CE504";
shapes = (
{
closed = 1;
nodes = (
(407,0,l),
(530,476,l),
(654,0,l),
(860,0,l),
(986,478,l),
(1111,0,l),
(1317,0,l),
(1502,700,l),
(1314,700,l),
(1201,234,l),
(1082,700,l),
(857,700,l),
(744,234,l),
(625,700,l),
(440,700,l),
(322,238,l),
(208,700,l),
(14,700,l),
(200,0,l)
);
}
);
width = 1517;
},
{
background = {
shapes = (
{
closed = 1;
nodes = (
(342,0,l),
(556,477,l),
(584,0,l),
(791,0,l),
(1010,480,l),
(1038,0,l),
(1245,0,l),
(1564,700,l),
(1369,700,l),
(1167,230,l),
(1140,700,l),
(915,700,l),
(713,230,l),
(686,700,l),
(503,700,l),
(297,236,l),
(276,700,l),
(92,700,l),
(139,0,l)
);
}
);
};
layerId = "69B5B248-E33C-46C9-9D9F-11585640C213";
shapes = (
{
closed = 1;
nodes = (
(342,0,l),
(556,477,l),
(584,0,l),
(791,0,l),
(1010,480,l),
(1038,0,l),
(1245,0,l),
(1564,700,l),
(1369,700,l),
(1167,230,l),
(1140,700,l),
(915,700,l),
(713,230,l),
(686,700,l),
(503,700,l),
(297,236,l),
(276,700,l),
(92,700,l),
(139,0,l)
);
}
);
width = 1498;
}
);
metricLeft = W;
metricRight = W;
note = W;
},
{
color = 5;
glyphname = a;
kernLeft = a;
kernRight = a;
lastChange = "2022-06-24 11:58:15 +0000";
layers = (
{
anchors = (
{
name = bottom;
pos = (276,0);
},
{
name = ogonek;
pos = (497,10);
},
{
name = top;
pos = (276,500);
}
);
background = {
shapes = (
{
closed = 1;
nodes = (
(316,-10,o),
(379,36,o),
(403,79,c),
(403,0,l),
(479,0,l),
(479,334,ls),
(479,455,o),
(399,510,o),
(282,510,cs),
(170,510,o),
(75,460,o),
(65,349,c),
(150,349,l),
(157,404,o),
(205,435,o),
(278,435,cs),
(344,435,o),
(392,401,o),
(392,355,cs),
(392,325,o),
(380,311,o),
(340,306,cs),
(225,292,ls),
(118,279,o),
(47,234,o),
(47,139,cs),
(47,47,o),
(123,-10,o),
(225,-10,cs)
);
},
{
closed = 1;
nodes = (
(173,69,o),
(134,96,o),
(134,142,cs),
(134,177,o),
(154,209,o),
(232,220,cs),
(341,236,ls),
(370,240,o),
(388,246,o),
(394,251,c),
(394,212,ls),
(394,110,o),
(319,69,o),
(238,69,cs)
);
}
);
};
layerId = "30E869CF-9A31-4D47-9626-61B8364FC2DA";
shapes = (
{
closed = 1;
nodes = (
(316,-10,o),
(379,36,o),
(403,79,c),
(403,0,l),
(479,0,l),
(479,334,ls),
(479,455,o),
(399,510,o),
(278,510,cs),
(170,510,o),
(75,458,o),
(65,349,c),
(150,349,l),
(157,404,o),
(205,435,o),
(278,435,cs),
(344,435,o),
(392,401,o),
(392,355,cs),
(392,325,o),
(380,311,o),
(340,306,cs),
(225,292,ls),
(118,279,o),
(47,234,o),
(47,139,cs),
(47,47,o),
(123,-10,o),
(225,-10,cs)
);
},
{
closed = 1;
nodes = (
(173,69,o),
(134,96,o),
(134,142,cs),
(134,177,o),
(154,209,o),
(232,220,cs),
(341,236,ls),
(370,240,o),
(388,246,o),
(394,251,c),
(394,212,ls),
(394,110,o),
(319,69,o),
(238,69,cs)
);
}
);
width = 552;
},
{
anchors = (
{
name = bottom;
pos = (267,0);
},
{
name = ogonek;
pos = (480,10);
},
{
name = top;
pos = (267,500);
}
);
background = {
shapes = (
{
closed = 1;
nodes = (
(300,-10,o),
(378,25,o),
(411,101,c),
(411,0,l),
(451,0,l),
(451,338,ls),
(451,461,o),
(367,510,o),
(265,510,cs),
(174,510,o),
(79,468,o),
(66,360,c),
(106,360,l),
(117,437,o),
(180,475,o),
(265,475,cs),
(391,475,o),
(411,391,o),
(411,353,cs),
(411,306,o),
(364,293,o),
(317,286,cs),
(193,268,ls),
(104,255,o),
(52,205,o),
(52,128,cs),
(52,29,o),
(140,-10,o),
(222,-10,cs)
);
},
{
closed = 1;
nodes = (
(158,25,o),
(92,56,o),
(92,130,cs),
(92,183,o),
(125,219,o),
(192,229,cs),
(334,250,ls),
(367,255,o),
(398,267,o),
(411,279,c),
(411,214,ls),
(411,91,o),
(327,25,o),
(225,25,cs)
);
}
);
};
layerId = "18A01495-E50D-4F2B-A1D8-5C332C731D93";
shapes = (
{
closed = 1;
nodes = (
(300,-10,o),
(378,25,o),
(411,101,c),
(411,0,l),
(451,0,l),
(451,338,ls),
(451,461,o),
(367,510,o),
(265,510,cs),
(174,510,o),
(79,468,o),
(66,360,c),
(106,360,l),
(117,437,o),
(180,475,o),
(265,475,cs),
(391,475,o),
(411,391,o),
(411,353,cs),
(411,306,o),
(364,293,o),
(317,286,cs),
(193,268,ls),
(104,255,o),
(52,205,o),
(52,128,cs),
(52,29,o),
(140,-10,o),
(222,-10,cs)
);
},
{
closed = 1;
nodes = (
(158,25,o),
(92,56,o),
(92,130,cs),
(92,183,o),
(125,219,o),
(192,229,cs),
(334,250,ls),
(367,255,o),
(398,267,o),
(411,279,c),
(411,214,ls),
(411,91,o),
(327,25,o),
(225,25,cs)
);
}
);
width = 533;
},
{
anchors = (
{
name = bottom;
pos = (215,0);
},
{
name = ogonek;
pos = (427,10);
},
{
name = top;
pos = (313,500);
}
);
background = {
shapes = (
{
closed = 1;
nodes = (
(249,-10,o),
(323,23,o),
(368,96,c),
(349,0,l),
(389,0,l),
(452,326,ls),
(475,443,o),
(407,510,o),
(293,510,cs),
(192,510,o),
(104,458,o),
(82,360,c),
(124,360,l),
(145,432,o),
(209,473,o),
(291,473,cs),
(359,473,o),
(418,440,o),
(418,384,cs),
(418,319,o),
(379,306,o),
(301,293,cs),
(183,273,ls),
(88,257,o),
(21,204,o),
(21,120,cs),
(21,39,o),
(84,-10,o),
(175,-10,cs)
);
},
{
closed = 1;
nodes = (
(111,27,o),
(63,60,o),
(63,121,cs),
(63,182,o),
(108,223,o),
(183,236,cs),
(302,256,ls),
(353,265,o),
(387,272,o),
(403,286,c),
(388,209,l),
(367,98,o),
(282,27,o),
(180,27,cs)
);
}
);
};
guides = (
{
angle = 260.2867;
pos = (379,154);
},
{
angle = 74.7449;
pos = (410,322);
}
);
layerId = "047DE625-588D-43A1-AE3A-C97924B5E3D3";
shapes = (
{
closed = 1;
nodes = (
(249,-10,o),
(323,23,o),
(368,96,c),
(349,0,l),
(389,0,l),
(452,326,ls),
(475,443,o),
(407,510,o),
(293,510,cs),
(192,510,o),
(104,458,o),
(82,360,c),
(124,360,l),
(145,432,o),
(209,473,o),
(291,473,cs),
(359,473,o),
(418,440,o),
(418,384,cs),
(418,319,o),
(379,306,o),
(301,293,cs),
(183,273,ls),
(88,257,o),
(21,204,o),
(21,120,cs),
(21,39,o),
(84,-10,o),
(175,-10,cs)
);
},
{
closed = 1;
nodes = (
(111,27,o),
(63,60,o),
(63,121,cs),
(63,182,o),
(108,223,o),
(183,236,cs),
(302,256,ls),
(353,265,o),
(387,272,o),
(403,286,c),
(388,209,l),
(367,98,o),
(282,27,o),
(180,27,cs)
);
}
);
width = 527;
},
{
anchors = (
{
name = bottom;
pos = (222,0);
},
{
name = ogonek;
pos = (441,10);
},
{
name = top;
pos = (320,500);
}
);
background = {
shapes = (
{
closed = 1;
nodes = (
(242,-10,o),
(307,17,o),
(353,78,c),
(338,0,l),
(411,0,l),
(475,324,ls),
(498,441,o),
(423,510,o),
(301,510,cs),
(193,510,o),
(96,458,o),
(75,351,c),
(155,351,l),
(179,433,o),
(226,449,o),
(303,449,cs),
(369,449,o),
(407,418,o),
(401,369,cs),
(397,334,o),
(387,316,o),
(334,309,cs),
(220,294,ls),
(69,274,o),
(16,224,o),
(16,123,cs),
(16,35,o),
(85,-10,o),
(173,-10,cs)
);
},
{
closed = 1;
nodes = (
(138,56,o),
(96,79,o),
(96,132,cs),
(96,197,o),
(135,212,o),
(202,223,cs),
(335,245,ls),
(350,247,o),
(372,251,o),
(384,259,c),
(374,210,ls),
(354,114,o),
(279,56,o),
(192,56,cs)
);
}
);
};
guides = (
{
angle = 78.2317;
pos = (364,162);
},
{
pos = (747,339);
}
);
layerId = "AB33B01D-3E13-404E-935A-045AA6D07EB8";
shapes = (
{
closed = 1;
nodes = (
(242,-10,o),
(307,17,o),
(353,78,c),
(338,0,l),
(411,0,l),
(475,324,ls),
(498,441,o),
(423,510,o),
(301,510,cs),
(193,510,o),
(96,458,o),
(75,351,c),
(155,351,l),
(179,433,o),
(226,449,o),
(303,449,cs),
(369,449,o),
(407,418,o),
(401,369,cs),
(397,334,o),
(387,316,o),
(334,309,cs),
(220,294,ls),
(69,274,o),
(16,224,o),
(16,123,cs),
(16,35,o),
(85,-10,o),
(173,-10,cs)
);
},
{
closed = 1;
nodes = (
(138,56,o),
(96,79,o),
(96,132,cs),
(96,197,o),
(135,212,o),
(202,223,cs),
(335,245,ls),
(350,247,o),
(372,251,o),
(384,259,c),
(374,210,ls),
(354,114,o),
(279,56,o),
(192,56,cs)
);
}
);
width = 542;
},
{
anchors = (
{
name = bottom;
pos = (300,0);
},
{
name = ogonek;
pos = (539,10);
},
{
name = top;
pos = (300,500);
}
);
background = {
shapes = (
{
closed = 1;
nodes = (
(286,-11,o),
(347,16,o),
(383,67,c),
(383,0,l),
(548,0,l),
(548,297,ls),
(548,439,o),
(472,510,o),
(307,510,cs),
(152,510,o),
(60,448,o),
(47,331,c),
(216,331,l),
(220,373,o),
(249,395,o),
(297,395,cs),
(337,395,o),
(370,375,o),
(370,340,cs),
(370,318,o),
(359,309,o),
(323,305,cs),
(193,291,ls),
(94,280,o),
(28,231,o),
(28,142,cs),
(28,43,o),
(109,-11,o),
(213,-11,cs)
);
},
{
closed = 1;
nodes = (
(231,101,o),
(201,117,o),
(201,150,cs),
(201,177,o),
(220,198,o),
(255,202,cs),
(314,209,ls),
(341,212,o),
(363,218,o),
(370,222,c),
(370,194,ls),
(370,132,o),
(323,101,o),
(271,101,cs)
);
}
);
};
layerId = "9D32FE6F-9470-45EF-9689-909A6F5CE504";
shapes = (
{
closed = 1;
nodes = (
(286,-11,o),
(347,16,o),
(383,67,c),
(383,0,l),
(548,0,l),
(548,297,ls),
(548,439,o),
(472,510,o),
(307,510,cs),
(152,510,o),
(60,448,o),
(47,331,c),
(216,331,l),
(220,373,o),
(249,395,o),
(297,395,cs),
(337,395,o),
(370,375,o),
(370,340,cs),
(370,318,o),
(359,309,o),
(323,305,cs),
(193,291,ls),
(94,280,o),
(28,231,o),
(28,142,cs),
(28,43,o),
(109,-11,o),
(213,-11,cs)
);
},
{
closed = 1;
nodes = (
(231,101,o),
(201,117,o),
(201,150,cs),
(201,177,o),
(220,198,o),
(255,202,cs),
(314,209,ls),
(341,212,o),
(363,218,o),
(370,222,c),
(370,194,ls),
(370,132,o),
(323,101,o),
(271,101,cs)
);
}
);
width = 599;
},
{
anchors = (
{
name = bottom;
pos = (247,0);
},
{
name = ogonek;
pos = (485,10);
},
{
name = top;
pos = (345,500);
}
);
background = {
shapes = (
{
closed = 1;
nodes = (
(232,-11,o),
(294,16,o),
(333,65,c),
(321,0,l),
(486,0,l),
(544,294,ls),
(574,444,o),
(485,510,o),
(332,510,cs),
(177,510,o),
(81,442,o),
(57,333,c),
(223,333,l),
(235,376,o),
(271,398,o),
(317,398,cs),
(356,398,o),
(379,378,o),
(377,350,cs),
(375,321,o),
(363,309,o),
(322,306,cs),
(228,299,ls),
(75,288,o),
(0,223,o),
(0,127,cs),
(0,37,o),
(66,-11,o),
(161,-11,cs)
);
},
{
closed = 1;
nodes = (
(199,104,o),
(172,119,o),
(172,149,cs),
(172,183,o),
(206,205,o),
(257,210,c),
(311,216,ls),
(334,219,o),
(340,221,o),
(353,226,c),
(347,197,ls),
(334,135,o),
(286,104,o),
(234,104,cs)
);
}
);
};
guides = (
{
angle = 79.9393;
pos = (342,166);
}
);
layerId = "69B5B248-E33C-46C9-9D9F-11585640C213";
shapes = (
{
closed = 1;
nodes = (
(232,-11,o),
(294,16,o),
(333,65,c),
(321,0,l),
(486,0,l),
(544,294,ls),
(574,444,o),
(485,510,o),
(332,510,cs),
(177,510,o),
(81,442,o),
(57,333,c),
(223,333,l),
(235,376,o),
(271,398,o),
(317,398,cs),
(356,398,o),
(379,378,o),
(377,350,cs),
(375,321,o),
(363,309,o),
(322,306,cs),
(228,299,ls),
(75,288,o),
(0,223,o),
(0,127,cs),
(0,37,o),
(66,-11,o),
(161,-11,cs)
);
},
{
closed = 1;
nodes = (
(199,104,o),
(172,119,o),
(172,149,cs),
(172,183,o),
(206,205,o),
(257,210,c),
(311,216,ls),
(334,219,o),
(340,221,o),
(353,226,c),
(347,197,ls),
(334,135,o),
(286,104,o),
(234,104,cs)
);
}
);
width = 591;
}
);
note = a;
unicode = 97;
},
{
color = 5;
glyphname = b;
kernRight = b;
lastChange = "2022-11-22 11:51:48 +0000";
layers = (
{
anchors = (
{
name = bottom;
pos = (303,0);
},
{
name = center;
pos = (303,250);
},
{
name = top;
pos = (303,500);
}
);
background = {
shapes = (
{
closed = 1;
nodes = (
(462,-10,o),
(561,94,o),
(561,254,cs),
(561,409,o),
(464,510,o),
(331,510,cs),
(262,510,o),
(201,482,o),
(164,427,c),
(164,700,l),
(79,700,l),
(79,0,l),
(159,0,l),
(159,82,l),
(192,22,o),
(259,-10,o),
(331,-10,cs)
);
},
{
closed = 1;
nodes = (
(217,65,o),
(159,146,o),
(159,254,cs),
(159,357,o),
(216,435,o),
(316,435,cs),
(419,435,o),
(476,357,o),
(476,254,cs),
(476,147,o),
(420,65,o),
(316,65,cs)
);
}
);
};
layerId = "30E869CF-9A31-4D47-9626-61B8364FC2DA";
shapes = (
{
closed = 1;
nodes = (
(462,-10,o),
(561,94,o),
(561,254,cs),
(561,409,o),
(464,510,o),
(331,510,cs),
(262,510,o),
(201,482,o),
(164,427,c),
(164,700,l),
(79,700,l),
(79,0,l),
(159,0,l),
(159,82,l),
(192,22,o),
(259,-10,o),
(331,-10,cs)
);
},
{
closed = 1;
nodes = (
(217,65,o),
(159,146,o),
(159,254,cs),
(159,357,o),
(216,435,o),
(316,435,cs),
(419,435,o),
(476,357,o),
(476,254,cs),
(476,147,o),
(420,65,o),
(316,65,cs)
);
}
);
width = 606;
},
{
anchors = (
{
name = bottom;
pos = (296,0);
},
{
name = center;
pos = (296,250);
},
{
name = top;
pos = (296,500);
}
);
background = {
shapes = (
{
closed = 1;
nodes = (
(440,-10,o),
(548,84,o),
(548,254,cs),
(548,394,o),
(464,510,o),
(321,510,cs),
(239,510,o),
(169,469,o),
(133,393,c),
(133,700,l),
(93,700,l),
(93,0,l),
(132,0,l),
(132,114,l),
(166,38,o),
(238,-10,o),
(322,-10,cs)
);
},
{
closed = 1;
nodes = (
(194,25,o),
(132,130,o),
(132,254,cs),
(132,373,o),
(193,475,o),
(319,475,cs),
(446,475,o),
(508,372,o),
(508,254,cs),
(508,114,o),
(433,25,o),
(319,25,cs)
);
}
);
};
layerId = "18A01495-E50D-4F2B-A1D8-5C332C731D93";
shapes = (
{
closed = 1;
nodes = (
(440,-10,o),
(548,84,o),
(548,254,cs),
(548,394,o),
(464,510,o),
(321,510,cs),
(239,510,o),
(169,469,o),
(133,393,c),
(133,700,l),
(93,700,l),
(93,0,l),
(132,0,l),
(132,114,l),
(166,38,o),
(238,-10,o),
(322,-10,cs)
);
},
{
closed = 1;
nodes = (
(194,25,o),
(132,130,o),
(132,254,cs),
(132,373,o),
(193,475,o),
(319,475,cs),
(446,475,o),
(508,372,o),
(508,254,cs),
(508,114,o),
(433,25,o),
(319,25,cs)
);
}
);
width = 591;
},
{
anchors = (
{
name = bottom;
pos = (244,0);
},
{
name = center;
pos = (293,250);
},
{
name = top;
pos = (342,500);
}
);
background = {
shapes = (
{
closed = 1;
nodes = (
(433,-10,o),
(531,149,o),
(531,302,cs),
(531,419,o),
(461,510,o),
(336,510,cs),
(257,510,o),
(186,466,o),
(146,396,c),
(205,700,l),
(164,700,l),
(28,0,l),
(68,0,l),
(91,118,l),
(115,39,o),
(184,-10,o),
(271,-10,cs)
);
},
{
closed = 1;
nodes = (
(176,28,o),
(113,89,o),
(113,200,cs),
(113,331,o),
(193,472,o),
(331,472,cs),
(425,472,o),
(489,405,o),
(489,304,cs),
(489,171,o),
(408,28,o),
(270,28,cs)
);
}
);
};
layerId = "047DE625-588D-43A1-AE3A-C97924B5E3D3";
shapes = (
{
closed = 1;
nodes = (
(433,-10,o),
(531,149,o),
(531,302,cs),
(531,419,o),
(461,510,o),
(336,510,cs),
(257,510,o),
(186,466,o),
(146,396,c),
(205,700,l),
(164,700,l),
(28,0,l),
(68,0,l),
(91,118,l),
(115,39,o),
(184,-10,o),
(271,-10,cs)
);
},
{
closed = 1;
nodes = (
(176,28,o),
(113,89,o),
(113,200,cs),
(113,331,o),
(193,472,o),
(331,472,cs),
(425,472,o),
(489,405,o),
(489,304,cs),
(489,171,o),
(408,28,o),
(270,28,cs)
);
}
);
width = 586;
},
{
anchors = (
{
name = bottom;
pos = (250,0);
},
{
name = center;
pos = (299,250);
},
{
name = top;
pos = (348,500);
}
);
background = {
shapes = (
{
closed = 1;
nodes = (
(429,-10,o),
(546,129,o),
(546,302,cs),
(546,416,o),
(472,510,o),
(348,510,cs),
(284,510,o),
(226,481,o),
(184,430,c),
(236,700,l),
(157,700,l),
(20,0,l),
(97,0,l),
(114,86,l),
(142,27,o),
(202,-10,o),
(280,-10,cs)
);
},
{
closed = 1;
nodes = (
(194,58,o),
(140,111,o),
(140,208,cs),
(140,318,o),
(207,442,o),
(330,442,cs),
(410,442,o),
(464,388,o),
(464,297,cs),
(464,167,o),
(383,58,o),
(274,58,cs)
);
}
);
};
layerId = "AB33B01D-3E13-404E-935A-045AA6D07EB8";
shapes = (
{
closed = 1;
nodes = (
(429,-10,o),
(546,129,o),
(546,302,cs),
(546,416,o),
(472,510,o),
(348,510,cs),
(284,510,o),
(226,481,o),
(184,430,c),
(236,700,l),
(157,700,l),
(20,0,l),
(97,0,l),
(114,86,l),
(142,27,o),
(202,-10,o),
(280,-10,cs)
);
},
{
closed = 1;
nodes = (
(194,58,o),
(140,111,o),
(140,208,cs),
(140,318,o),
(207,442,o),
(330,442,cs),
(410,442,o),
(464,388,o),
(464,297,cs),
(464,167,o),
(383,58,o),
(274,58,cs)
);
}
);
width = 597;
},
{
anchors = (
{
name = bottom;
pos = (322,0);
},
{
name = center;
pos = (322,250);
},
{
name = top;
pos = (322,500);
}
);
background = {
shapes = (
{
closed = 1;
nodes = (
(511,-11,o),
(615,78,o),
(615,250,cs),
(615,392,o),
(532,510,o),
(382,510,cs),
(321,510,o),
(269,489,o),
(234,447,c),
(234,700,l),
(52,700,l),
(52,0,l),
(226,0,l),
(226,65,l),
(259,17,o),
(314,-11,o),
(382,-11,cs)
);
},
{
closed = 1;
nodes = (
(268,117,o),
(231,172,o),
(231,250,cs),
(231,321,o),
(266,376,o),
(329,376,cs),
(391,376,o),
(427,323,o),
(427,250,cs),
(427,173,o),
(392,117,o),
(329,117,cs)
);
}
);
};
layerId = "9D32FE6F-9470-45EF-9689-909A6F5CE504";
shapes = (
{
closed = 1;
nodes = (
(511,-11,o),
(615,78,o),
(615,250,cs),
(615,392,o),
(532,510,o),
(382,510,cs),
(321,510,o),
(269,489,o),
(234,447,c),
(234,700,l),
(52,700,l),
(52,0,l),
(226,0,l),
(226,65,l),
(259,17,o),
(314,-11,o),
(382,-11,cs)
);
},
{
closed = 1;
nodes = (
(268,117,o),
(231,172,o),
(231,250,cs),
(231,321,o),
(266,376,o),
(329,376,cs),
(391,376,o),
(427,323,o),
(427,250,cs),
(427,173,o),
(392,117,o),
(329,117,cs)
);
}
);
width = 644;
},
{
anchors = (
{
name = bottom;
pos = (269,0);
},
{
name = center;
pos = (318,250);
},
{
name = top;
pos = (367,500);
}
);
background = {
shapes = (
{
closed = 1;
nodes = (
(494,-11,o),
(601,125,o),
(601,295,cs),
(601,412,o),
(531,510,o),
(407,510,cs),
(349,510,o),
(299,486,o),
(264,452,c),
(311,700,l),
(130,700,l),
(-6,0,l),
(165,0,l),
(180,74,l),
(208,23,o),
(262,-11,o),
(337,-11,cs)
);
},
{
closed = 1;
nodes = (
(247,116,o),
(217,147,o),
(217,208,cs),
(217,277,o),
(254,377,o),
(335,377,cs),
(386,377,o),
(416,341,o),
(416,280,cs),
(416,203,o),
(374,116,o),
(297,116,cs)
);
}
);
};
layerId = "69B5B248-E33C-46C9-9D9F-11585640C213";
shapes = (
{
closed = 1;
nodes = (
(494,-11,o),
(601,125,o),
(601,295,cs),
(601,412,o),
(531,510,o),
(407,510,cs),
(349,510,o),
(299,486,o),
(264,452,c),
(311,700,l),
(130,700,l),
(-6,0,l),
(165,0,l),
(180,74,l),
(208,23,o),
(262,-11,o),
(337,-11,cs)
);
},
{
closed = 1;
nodes = (
(247,116,o),
(217,147,o),
(217,208,cs),
(217,277,o),
(254,377,o),
(335,377,cs),
(386,377,o),
(416,341,o),
(416,280,cs),
(416,203,o),
(374,116,o),
(297,116,cs)
);
}
);
width = 636;
}
);
note = b;
unicode = 98;
},
{
color = 5;
glyphname = c;
kernLeft = c;
kernRight = c;
lastChange = "2022-05-29 18:57:48 +0000";
layers = (
{
anchors = (
{
name = bottom;
pos = (276,0);
},
{
name = top;
pos = (276,500);
}
);
background = {
shapes = (
{
closed = 1;
nodes = (
(402,-10,o),
(493,59,o),
(508,171,c),
(424,171,l),
(410,104,o),
(354,65,o),
(288,65,cs),
(193,65,o),
(133,147,o),
(133,253,cs),
(133,356,o),
(191,435,o),
(288,435,cs),
(352,435,o),
(410,397,o),
(424,330,c),
(508,330,l),
(496,437,o),
(406,510,o),
(288,510,cs),
(148,510,o),
(44,406,o),
(44,253,cs),
(44,98,o),
(144,-10,o),
(287,-10,cs)
);
}
);
};
layerId = "30E869CF-9A31-4D47-9626-61B8364FC2DA";
shapes = (
{
closed = 1;
nodes = (
(402,-10,o),
(493,59,o),
(508,171,c),
(424,171,l),
(410,104,o),
(354,65,o),
(288,65,cs),
(193,65,o),
(133,147,o),
(133,253,cs),
(133,356,o),
(191,435,o),
(288,435,cs),
(352,435,o),
(410,397,o),
(424,330,c),
(508,330,l),
(496,437,o),
(406,510,o),
(288,510,cs),
(148,510,o),
(44,406,o),
(44,253,cs),
(44,98,o),
(144,-10,o),
(287,-10,cs)
);
}
);
width = 552;
},
{
anchors = (
{
name = bottom;
pos = (267,0);
},
{
name = top;
pos = (267,500);
}
);
background = {
shapes = (
{
closed = 1;
nodes = (
(387,-10,o),
(470,57,o),
(488,160,c),
(446,160,l),
(428,73,o),
(363,25,o),
(280,25,cs),
(166,25,o),
(88,117,o),
(88,252,cs),
(88,368,o),
(150,475,o),
(279,475,cs),
(360,475,o),
(429,430,o),
(446,343,c),
(488,343,l),
(472,443,o),
(387,510,o),
(279,510,cs),
(137,510,o),
(48,394,o),
(48,252,cs),
(48,91,o),
(152,-10,o),
(280,-10,cs)
);
}
);
};
layerId = "18A01495-E50D-4F2B-A1D8-5C332C731D93";
shapes = (
{
closed = 1;
nodes = (
(387,-10,o),
(470,57,o),
(488,160,c),
(446,160,l),
(428,73,o),
(363,25,o),
(280,25,cs),
(166,25,o),
(88,117,o),
(88,252,cs),
(88,368,o),
(150,475,o),
(279,475,cs),
(360,475,o),
(429,430,o),
(446,343,c),
(488,343,l),
(472,443,o),
(387,510,o),
(279,510,cs),
(137,510,o),
(48,394,o),
(48,252,cs),
(48,91,o),
(152,-10,o),
(280,-10,cs)
);
}
);
width = 534;
},
{
anchors = (
{
name = bottom;
pos = (218,0);
},
{
name = top;
pos = (316,500);
}
);
background = {
shapes = (
{
closed = 1;
nodes = (
(343,-10,o),
(423,60,o),
(457,160,c),
(415,160,l),
(384,81,o),
(323,29,o),
(240,29,cs),
(140,29,o),
(78,102,o),
(78,206,cs),
(78,333,o),
(163,472,o),
(298,472,cs),
(377,472,o),
(444,427,o),
(448,342,c),
(490,342,l),
(487,444,o),
(404,510,o),
(303,510,cs),
(136,510,o),
(36,354,o),
(36,204,cs),
(36,82,o),
(113,-10,o),
(236,-10,cs)
);
}
);
};
layerId = "047DE625-588D-43A1-AE3A-C97924B5E3D3";
shapes = (
{
closed = 1;
nodes = (
(343,-10,o),
(423,60,o),
(457,160,c),
(415,160,l),
(384,81,o),
(323,29,o),
(240,29,cs),
(140,29,o),
(78,102,o),
(78,206,cs),
(78,333,o),
(163,472,o),
(298,472,cs),
(377,472,o),
(444,427,o),
(448,342,c),
(490,342,l),
(487,444,o),
(404,510,o),
(303,510,cs),
(136,510,o),
(36,354,o),
(36,204,cs),
(36,82,o),
(113,-10,o),
(236,-10,cs)
);
}
);
width = 533;
},
{
anchors = (
{
name = bottom;
pos = (225,0);
},
{
name = top;
pos = (323,500);
}
);
background = {
shapes = (
{
closed = 1;
nodes = (
(355,-10,o),
(447,60,o),
(478,172,c),
(398,172,l),
(371,103,o),
(316,59,o),
(247,59,cs),
(170,59,o),
(113,114,o),
(113,210,cs),
(113,313,o),
(182,441,o),
(305,441,cs),
(369,441,o),
(428,404,o),
(429,330,c),
(509,330,l),
(511,447,o),
(410,510,o),
(309,510,cs),
(132,510,o),
(32,351,o),
(32,204,cs),
(32,62,o),
(134,-10,o),
(243,-10,cs)
);
}
);
};
layerId = "AB33B01D-3E13-404E-935A-045AA6D07EB8";
shapes = (
{
closed = 1;
nodes = (
(355,-10,o),
(447,60,o),
(478,172,c),
(398,172,l),
(371,103,o),
(316,59,o),
(247,59,cs),
(170,59,o),
(113,114,o),
(113,210,cs),
(113,313,o),
(182,441,o),
(305,441,cs),
(369,441,o),
(428,404,o),
(429,330,c),
(509,330,l),
(511,447,o),
(410,510,o),
(309,510,cs),
(132,510,o),
(32,351,o),
(32,204,cs),
(32,62,o),
(134,-10,o),
(243,-10,cs)
);
}
);
width = 547;
},
{
anchors = (
{
name = bottom;
pos = (303,0);
},
{
name = top;
pos = (303,500);
}
);
background = {
shapes = (
{
closed = 1;
nodes = (
(455,-12,o),
(567,60,o),
(583,195,c),
(398,195,l),
(391,149,o),
(358,120,o),
(313,120,cs),
(255,120,o),
(216,163,o),
(216,245,cs),
(216,325,o),
(254,377,o),
(313,377,cs),
(358,377,o),
(392,347,o),
(399,303,c),
(583,303,l),
(568,434,o),
(459,510,o),
(313,510,cs),
(137,510,o),
(28,397,o),
(28,245,cs),
(28,73,o),
(156,-12,o),
(313,-12,cs)
);
}
);
};
layerId = "9D32FE6F-9470-45EF-9689-909A6F5CE504";
shapes = (
{
closed = 1;
nodes = (
(455,-12,o),
(567,60,o),
(583,195,c),
(398,195,l),
(391,149,o),
(358,120,o),
(313,120,cs),
(255,120,o),
(216,163,o),
(216,245,cs),
(216,325,o),
(254,377,o),
(313,377,cs),
(358,377,o),
(392,347,o),
(399,303,c),
(583,303,l),
(568,434,o),
(459,510,o),
(313,510,cs),
(137,510,o),
(28,397,o),
(28,245,cs),
(28,73,o),
(156,-12,o),
(313,-12,cs)
);
}
);
width = 606;
},
{
anchors = (
{
name = bottom;
pos = (250,0);
},
{
name = top;
pos = (348,500);
}
);
background = {
shapes = (
{
closed = 1;
nodes = (
(405,-12,o),
(516,57,o),
(552,191,c),
(372,191,l),
(357,145,o),
(324,115,o),
(280,115,cs),
(231,115,o),
(200,151,o),
(200,212,cs),
(200,275,o),
(235,378,o),
(319,378,cs),
(362,378,o),
(395,352,o),
(394,303,c),
(574,303,l),
(578,437,o),
(458,510,o),
(326,510,cs),
(142,510,o),
(16,376,o),
(16,214,cs),
(16,74,o),
(124,-12,o),
(269,-12,cs)
);
}
);
};
layerId = "69B5B248-E33C-46C9-9D9F-11585640C213";
shapes = (
{
closed = 1;
nodes = (
(405,-12,o),
(516,57,o),
(552,191,c),
(372,191,l),
(357,145,o),
(324,115,o),
(280,115,cs),
(231,115,o),
(200,151,o),
(200,212,cs),
(200,275,o),
(235,378,o),
(319,378,cs),
(362,378,o),
(395,352,o),
(394,303,c),
(574,303,l),
(578,437,o),
(458,510,o),
(326,510,cs),
(142,510,o),
(16,376,o),
(16,214,cs),
(16,74,o),
(124,-12,o),
(269,-12,cs)
);
}
);
width = 597;
}
);
note = c;
unicode = 99;
},
{
color = 5;
glyphname = d;
kernLeft = c;
lastChange = "2022-05-29 18:57:48 +0000";
layers = (
{
anchors = (
{
name = bottom;
pos = (303,0);
},
{
name = center;
pos = (303,250);
},
{
name = top;
pos = (303,800);
},
{
name = topright;
pos = (586,800);
}
);
background = {
shapes = (
{
closed = 1;
nodes = (
(347,-10,o),
(414,22,o),
(447,82,c),
(447,0,l),
(527,0,l),
(527,700,l),
(442,700,l),
(441,427,l),
(404,482,o),
(343,510,o),
(274,510,cs),
(141,510,o),
(44,409,o),
(44,254,cs),
(44,94,o),
(144,-10,o),
(275,-10,cs)
);
},
{
closed = 1;
nodes = (
(186,65,o),
(129,147,o),
(129,254,cs),
(129,357,o),
(186,435,o),
(289,435,cs),
(389,435,o),
(446,357,o),
(446,254,cs),
(446,146,o),
(389,65,o),
(290,65,cs)
);
}
);
};
layerId = "30E869CF-9A31-4D47-9626-61B8364FC2DA";
shapes = (
{
closed = 1;
nodes = (
(347,-10,o),
(414,22,o),
(447,82,c),
(447,0,l),
(527,0,l),
(527,700,l),
(442,700,l),
(441,427,l),
(404,482,o),
(343,510,o),
(274,510,cs),
(141,510,o),
(44,409,o),
(44,254,cs),
(44,94,o),
(144,-10,o),
(275,-10,cs)
);
},
{
closed = 1;
nodes = (
(186,65,o),
(129,147,o),
(129,254,cs),
(129,357,o),
(186,435,o),
(289,435,cs),
(389,435,o),
(446,357,o),
(446,254,cs),
(446,146,o),
(389,65,o),
(290,65,cs)
);
}
);
width = 606;
},
{
anchors = (
{
name = bottom;
pos = (296,0);
},
{
name = center;
pos = (296,250);
},
{
name = top;
pos = (296,800);
},
{
name = topright;
pos = (571,800);
}
);
background = {
shapes = (
{
closed = 1;
nodes = (
(359,-10,o),
(431,38,o),
(465,114,c),
(465,0,l),
(504,0,l),
(504,700,l),
(464,700,l),
(464,393,l),
(428,469,o),
(358,510,o),
(276,510,cs),
(133,510,o),
(49,394,o),
(49,254,cs),
(49,84,o),
(157,-10,o),
(275,-10,cs)
);
},
{
closed = 1;
nodes = (
(164,25,o),
(89,114,o),
(89,254,cs),
(89,372,o),
(151,475,o),
(278,475,cs),
(404,475,o),
(465,373,o),
(465,254,cs),
(465,130,o),
(403,25,o),
(278,25,cs)
);
}
);
};
layerId = "18A01495-E50D-4F2B-A1D8-5C332C731D93";
shapes = (
{
closed = 1;
nodes = (
(359,-10,o),
(431,38,o),
(465,114,c),
(465,0,l),
(504,0,l),
(504,700,l),
(464,700,l),
(464,393,l),
(428,469,o),
(358,510,o),
(276,510,cs),
(133,510,o),
(49,394,o),
(49,254,cs),
(49,84,o),
(157,-10,o),
(275,-10,cs)
);
},
{
closed = 1;
nodes = (
(164,25,o),
(89,114,o),
(89,254,cs),
(89,372,o),
(151,475,o),
(278,475,cs),
(404,475,o),
(465,373,o),
(465,254,cs),
(465,130,o),
(403,25,o),
(278,25,cs)
);
}
);
width = 591;
},
{
anchors = (
{
name = bottom;
pos = (244,0);
},
{
name = center;
pos = (293,250);
},
{
name = top;
pos = (400,800);
},
{
name = topright;
pos = (673,800);
}
);
background = {
shapes = (
{
closed = 1;
nodes = (
(311,-10,o),
(382,35,o),
(422,107,c),
(401,0,l),
(441,0,l),
(578,700,l),
(537,700,l),
(475,383,l),
(451,462,o),
(384,510,o),
(297,510,cs),
(130,510,o),
(37,346,o),
(37,198,cs),
(37,61,o),
(121,-10,o),
(231,-10,cs)
);
},
{
closed = 1;
nodes = (
(142,28,o),
(78,92,o),
(78,196,cs),
(78,329,o),
(159,472,o),
(297,472,cs),
(391,472,o),
(454,411,o),
(454,300,cs),
(454,147,o),
(357,28,o),
(236,28,cs)
);
}
);
};
layerId = "047DE625-588D-43A1-AE3A-C97924B5E3D3";
shapes = (
{
closed = 1;
nodes = (
(311,-10,o),
(382,35,o),
(422,107,c),
(401,0,l),
(441,0,l),
(578,700,l),
(537,700,l),
(475,383,l),
(451,462,o),
(384,510,o),
(297,510,cs),
(130,510,o),
(37,346,o),
(37,198,cs),
(37,61,o),
(121,-10,o),
(231,-10,cs)
);
},
{
closed = 1;
nodes = (
(142,28,o),
(78,92,o),
(78,196,cs),
(78,329,o),
(159,472,o),
(297,472,cs),
(391,472,o),
(454,411,o),
(454,300,cs),
(454,147,o),
(357,28,o),
(236,28,cs)
);
}
);
width = 586;
},
{
anchors = (
{
name = bottom;
pos = (250,0);
},
{
name = center;
pos = (299,250);
},
{
name = top;
pos = (406,800);
},
{
name = topright;
pos = (684,800);
}
);
background = {
shapes = (
{
closed = 1;
nodes = (
(300,-10,o),
(359,23,o),
(399,81,c),
(383,0,l),
(460,0,l),
(597,700,l),
(518,700,l),
(463,417,l),
(433,476,o),
(375,510,o),
(299,510,cs),
(149,510,o),
(33,372,o),
(33,198,cs),
(33,80,o),
(106,-10,o),
(229,-10,cs)
);
},
{
closed = 1;
nodes = (
(169,58,o),
(114,108,o),
(114,203,cs),
(114,332,o),
(196,442,o),
(304,442,cs),
(384,442,o),
(438,389,o),
(438,292,cs),
(438,165,o),
(358,58,o),
(248,58,cs)
);
}
);
};
layerId = "AB33B01D-3E13-404E-935A-045AA6D07EB8";
shapes = (
{
closed = 1;
nodes = (
(300,-10,o),
(359,23,o),
(399,81,c),
(383,0,l),
(460,0,l),
(597,700,l),
(518,700,l),
(463,417,l),
(433,476,o),
(375,510,o),
(299,510,cs),
(149,510,o),
(33,372,o),
(33,198,cs),
(33,80,o),
(106,-10,o),
(229,-10,cs)
);
},
{
closed = 1;
nodes = (
(169,58,o),
(114,108,o),
(114,203,cs),
(114,332,o),
(196,442,o),
(304,442,cs),
(384,442,o),
(438,389,o),
(438,292,cs),
(438,165,o),
(358,58,o),
(248,58,cs)
);
}
);
width = 597;
},
{
anchors = (
{
name = bottom;
pos = (322,0);
},
{
name = center;
pos = (322,250);
},
{
name = top;
pos = (322,800);
},
{
name = topright;
pos = (624,800);
}
);
background = {
shapes = (
{
closed = 1;
nodes = (
(328,-11,o),
(383,16,o),
(418,65,c),
(418,0,l),
(591,0,l),
(591,700,l),
(409,700,l),
(409,447,l),
(375,487,o),
(324,510,o),
(262,510,cs),
(114,510,o),
(29,394,o),
(29,251,cs),
(29,83,o),
(128,-11,o),
(261,-11,cs)
);
},
{
closed = 1;
nodes = (
(253,117,o),
(217,173,o),
(217,251,cs),
(217,325,o),
(252,380,o),
(315,380,cs),
(376,380,o),
(412,326,o),
(412,251,cs),
(412,174,o),
(377,117,o),
(315,117,cs)
);
}
);
};
layerId = "9D32FE6F-9470-45EF-9689-909A6F5CE504";
shapes = (
{
closed = 1;
nodes = (
(328,-11,o),
(383,16,o),
(418,65,c),
(418,0,l),
(591,0,l),
(591,700,l),
(409,700,l),
(409,447,l),
(375,487,o),
(324,510,o),
(262,510,cs),
(114,510,o),
(29,394,o),
(29,251,cs),
(29,83,o),
(128,-11,o),
(261,-11,cs)
);
},
{
closed = 1;
nodes = (
(253,117,o),
(217,173,o),
(217,251,cs),
(217,325,o),
(252,380,o),
(315,380,cs),
(376,380,o),
(412,326,o),
(412,251,cs),
(412,174,o),
(377,117,o),
(315,117,cs)
);
}
);
width = 644;
},
{
anchors = (
{
name = bottom;
pos = (269,0);
},
{
name = center;
pos = (318,250);
},
{
name = top;
pos = (425,800);
},
{
name = topright;
pos = (723,800);
}
);
background = {
shapes = (
{
closed = 1;
nodes = (
(277,-11,o),
(330,20,o),
(365,62,c),
(354,0,l),
(525,0,l),
(661,700,l),
(481,700,l),
(431,431,l),
(401,480,o),
(349,510,o),
(278,510,cs),
(109,510,o),
(17,346,o),
(17,200,cs),
(17,65,o),
(103,-11,o),
(211,-11,cs)
);
},
{
closed = 1;
nodes = (
(232,122,o),
(202,152,o),
(202,213,cs),
(202,277,o),
(239,377,o),
(320,377,cs),
(370,377,o),
(400,341,o),
(400,280,cs),
(400,211,o),
(363,122,o),
(282,122,cs)
);
}
);
};
layerId = "69B5B248-E33C-46C9-9D9F-11585640C213";
shapes = (
{
closed = 1;
nodes = (
(277,-11,o),
(330,20,o),
(365,62,c),
(354,0,l),
(525,0,l),
(661,700,l),
(481,700,l),
(431,431,l),
(401,480,o),
(349,510,o),
(278,510,cs),
(109,510,o),
(17,346,o),
(17,200,cs),
(17,65,o),
(103,-11,o),
(211,-11,cs)
);
},
{
closed = 1;
nodes = (
(232,122,o),
(202,152,o),
(202,213,cs),
(202,277,o),
(239,377,o),
(320,377,cs),
(370,377,o),
(400,341,o),
(400,280,cs),
(400,211,o),
(363,122,o),
(282,122,cs)
);
}
);
width = 636;
}
);
note = d;
unicode = 100;
},
{
color = 5;
glyphname = e;
kernLeft = c;
kernRight = e;
lastChange = "2022-05-29 18:57:48 +0000";
layers = (
{
anchors = (
{
name = bottom;
pos = (283,0);
},
{
name = ogonek;
pos = (509,10);
},
{
name = top;
pos = (283,500);
}
);
background = {
shapes = (
{
closed = 1;
nodes = (
(394,-10,o),
(488,44,o),
(513,148,c),
(428,148,l),
(406,92,o),
(352,65,o),
(288,65,cs),
(202,65,o),
(141,115,o),
(131,223,c),
(520,223,l),
(520,231,o),
(520,240,o),
(520,248,cs),
(520,409,o),
(424,510,o),
(285,510,cs),
(147,510,o),
(44,405,o),
(44,253,cs),
(44,95,o),
(146,-10,o),
(288,-10,cs)
);
},
{
closed = 1;
nodes = (
(143,386,o),
(201,435,o),
(285,435,cs),
(367,435,o),
(431,383,o),
(435,293,c),
(131,293,l)
);
}
);
};
layerId = "30E869CF-9A31-4D47-9626-61B8364FC2DA";
shapes = (
{
closed = 1;
nodes = (
(394,-10,o),
(488,44,o),
(513,148,c),
(428,148,l),
(406,92,o),
(352,65,o),
(288,65,cs),
(202,65,o),
(141,115,o),
(131,223,c),
(520,223,l),
(520,231,o),
(520,240,o),
(520,248,cs),
(520,409,o),
(424,510,o),
(285,510,cs),
(147,510,o),
(44,405,o),
(44,253,cs),
(44,95,o),
(146,-10,o),
(288,-10,cs)
);
},
{
closed = 1;
nodes = (
(143,386,o),
(201,435,o),
(285,435,cs),
(367,435,o),
(431,383,o),
(435,293,c),
(131,293,l)
);
}
);
width = 565;
},
{
anchors = (
{
name = bottom;
pos = (276,0);
},
{
name = ogonek;
pos = (496,10);
},
{
name = top;
pos = (276,500);
}
);
background = {
shapes = (
{
closed = 1;
nodes = (
(380,-10,o),
(468,43,o),
(493,145,c),
(451,145,l),
(424,61,o),
(360,25,o),
(278,25,cs),
(157,25,o),
(92,125,o),
(88,240,c),
(499,240,l),
(499,245,o),
(499,250,o),
(499,255,cs),
(499,405,o),
(413,510,o),
(277,510,cs),
(140,510,o),
(48,400,o),
(48,250,cs),
(48,108,o),
(133,-10,o),
(280,-10,cs)
);
},
{
closed = 1;
nodes = (
(98,402,o),
(174,475,o),
(277,475,cs),
(388,475,o),
(455,392,o),
(459,275,c),
(89,275,l)
);
}
);
};
layerId = "18A01495-E50D-4F2B-A1D8-5C332C731D93";
shapes = (
{
closed = 1;
nodes = (
(380,-10,o),
(468,43,o),
(493,145,c),
(451,145,l),
(424,61,o),
(360,25,o),
(278,25,cs),
(157,25,o),
(92,125,o),
(88,240,c),
(499,240,l),
(499,245,o),
(499,250,o),
(499,255,cs),
(499,405,o),
(413,510,o),
(277,510,cs),
(140,510,o),
(48,400,o),
(48,250,cs),
(48,108,o),
(133,-10,o),
(280,-10,cs)
);
},
{
closed = 1;
nodes = (
(98,402,o),
(174,475,o),
(277,475,cs),
(388,475,o),
(455,392,o),
(459,275,c),
(89,275,l)
);
}
);
width = 551;
},
{
anchors = (
{
name = bottom;
pos = (225,0);
},
{
name = ogonek;
pos = (445,10);
},
{
name = top;
pos = (323,500);
}
);
background = {
shapes = (
{
closed = 1;
nodes = (
(336,-10,o),
(423,49,o),
(459,145,c),
(417,145,l),
(384,74,o),
(319,28,o),
(239,28,cs),
(123,28,o),
(68,111,o),
(80,240,c),
(485,240,l),
(490,262,o),
(493,285,o),
(494,303,cs),
(498,390,o),
(452,510,o),
(306,510,cs),
(156,510,o),
(36,376,o),
(36,195,cs),
(36,64,o),
(128,-10,o),
(234,-10,cs)
);
},
{
closed = 1;
nodes = (
(114,390,o),
(197,473,o),
(302,473,cs),
(425,473,o),
(465,374,o),
(450,277,c),
(87,277,l)
);
}
);
};
layerId = "047DE625-588D-43A1-AE3A-C97924B5E3D3";
shapes = (
{
closed = 1;
nodes = (
(336,-10,o),
(423,49,o),
(459,145,c),
(417,145,l),
(384,74,o),
(319,28,o),
(239,28,cs),
(123,28,o),
(68,111,o),
(80,240,c),
(485,240,l),
(490,262,o),
(493,285,o),
(494,303,cs),
(498,390,o),
(452,510,o),
(306,510,cs),
(156,510,o),
(36,376,o),
(36,195,cs),
(36,64,o),
(128,-10,o),
(234,-10,cs)
);
},
{
closed = 1;
nodes = (
(114,390,o),
(197,473,o),
(302,473,cs),
(425,473,o),
(465,374,o),
(450,277,c),
(87,277,l)
);
}
);
width = 547;
},
{
anchors = (
{
name = bottom;
pos = (232,0);
},
{
name = ogonek;
pos = (458,10);
},
{
name = top;
pos = (330,500);
}
);
background = {
shapes = (
{
closed = 1;
nodes = (
(345,-10,o),
(444,45,o),
(481,149,c),
(399,149,l),
(370,92,o),
(313,58,o),
(247,58,cs),
(158,58,o),
(102,124,o),
(113,225,c),
(503,225,l),
(509,252,o),
(512,276,o),
(513,297,cs),
(521,426,o),
(438,510,o),
(311,510,cs),
(138,510,o),
(32,361,o),
(32,198,cs),
(32,71,o),
(119,-10,o),
(242,-10,cs)
);
},
{
closed = 1;
nodes = (
(151,381,o),
(223,443,o),
(307,443,cs),
(424,443,o),
(441,340,o),
(432,289,c),
(125,289,l)
);
}
);
};
layerId = "AB33B01D-3E13-404E-935A-045AA6D07EB8";
shapes = (
{
closed = 1;
nodes = (
(345,-10,o),
(444,45,o),
(481,149,c),
(399,149,l),
(370,92,o),
(313,58,o),
(247,58,cs),
(158,58,o),
(102,124,o),
(113,225,c),
(503,225,l),
(509,252,o),
(512,276,o),
(513,297,cs),
(521,426,o),
(438,510,o),
(311,510,cs),
(138,510,o),
(32,361,o),
(32,198,cs),
(32,71,o),
(119,-10,o),
(242,-10,cs)
);
},
{
closed = 1;
nodes = (
(151,381,o),
(223,443,o),
(307,443,cs),
(424,443,o),
(441,340,o),
(432,289,c),
(125,289,l)
);
}
);
width = 561;
},
{
anchors = (
{
name = bottom;
pos = (309,0);
},
{
name = ogonek;
pos = (555,10);
},
{
name = top;
pos = (309,500);
}
);
background = {
shapes = (
{
closed = 1;
nodes = (
(450,-12,o),
(557,50,o),
(583,161,c),
(403,161,l),
(389,125,o),
(353,108,o),
(312,108,cs),
(256,108,o),
(214,141,o),
(207,203,c),
(587,203,l),
(588,212,o),
(588,222,o),
(588,241,cs),
(588,407,o),
(480,510,o),
(309,510,cs),
(145,510,o),
(27,404,o),
(27,245,cs),
(27,70,o),
(158,-12,o),
(309,-12,cs)
);
},
{
closed = 1;
nodes = (
(216,355,o),
(255,391,o),
(310,391,cs),
(362,391,o),
(401,359,o),
(406,301,c),
(208,301,l)
);
}
);
};
layerId = "9D32FE6F-9470-45EF-9689-909A6F5CE504";
shapes = (
{
closed = 1;
nodes = (
(450,-12,o),
(557,50,o),
(583,161,c),
(403,161,l),
(389,125,o),
(353,108,o),
(312,108,cs),
(256,108,o),
(214,141,o),
(207,203,c),
(587,203,l),
(588,212,o),
(588,222,o),
(588,241,cs),
(588,407,o),
(480,510,o),
(309,510,cs),
(145,510,o),
(27,404,o),
(27,245,cs),
(27,70,o),
(158,-12,o),
(309,-12,cs)
);
},
{
closed = 1;
nodes = (
(216,355,o),
(255,391,o),
(310,391,cs),
(362,391,o),
(401,359,o),
(406,301,c),
(208,301,l)
);
}
);
width = 617;
},
{
anchors = (
{
name = bottom;
pos = (256,0);
},
{
name = ogonek;
pos = (501,10);
},
{
name = top;
pos = (354,500);
}
);
background = {
shapes = (
{
closed = 1;
nodes = (
(392,-12,o),
(503,44,o),
(550,161,c),
(371,161,l),
(352,125,o),
(315,107,o),
(275,107,cs),
(219,107,o),
(188,132,o),
(188,201,c),
(562,201,l),
(568,224,o),
(571,246,o),
(572,271,cs),
(578,379,o),
(513,510,o),
(328,510,cs),
(136,510,o),
(16,373,o),
(16,208,cs),
(16,57,o),
(133,-12,o),
(266,-12,cs)
);
},
{
closed = 1;
nodes = (
(224,354,o),
(265,392,o),
(320,392,cs),
(385,392,o),
(406,341,o),
(400,301,c),
(207,301,l)
);
}
);
};
layerId = "69B5B248-E33C-46C9-9D9F-11585640C213";
shapes = (
{
closed = 1;
nodes = (
(392,-12,o),
(503,44,o),
(550,161,c),
(371,161,l),
(352,125,o),
(315,107,o),
(275,107,cs),
(219,107,o),
(188,132,o),
(188,201,c),
(562,201,l),
(568,224,o),
(571,246,o),
(572,271,cs),
(578,379,o),
(513,510,o),
(328,510,cs),
(136,510,o),
(16,373,o),
(16,208,cs),
(16,57,o),
(133,-12,o),
(266,-12,cs)
);
},
{
closed = 1;
nodes = (
(224,354,o),
(265,392,o),
(320,392,cs),
(385,392,o),
(406,341,o),
(400,301,c),
(207,301,l)
);
}
);
width = 609;
}
);
note = e;
unicode = 101;
},
{
color = 5;
glyphname = f;
kernLeft = f;
lastChange = "2022-05-29 18:57:48 +0000";
layers = (
{
anchors = (
{
name = bottom;
pos = (176,0);
},
{
name = top;
pos = (176,800);
}
);
background = {
shapes = (
{
closed = 1;
nodes = (
(194,0,l),
(194,569,ls),
(194,608,o),
(209,625,o),
(250,625,cs),
(347,625,l),
(347,700,l),
(244,700,ls),
(149,700,o),
(111,657,o),
(111,567,cs),
(111,0,l)
);
},
{
closed = 1;
nodes = (
(327,430,l),
(327,500,l),
(3,500,l),
(3,430,l)
);
}
);
};
guides = (
{
angle = 270;
pos = (349,663);
},
{
angle = 270;
pos = (349,663);
}
);
layerId = "30E869CF-9A31-4D47-9626-61B8364FC2DA";
shapes = (
{
closed = 1;
nodes = (
(194,0,l),
(194,569,ls),
(194,608,o),
(209,625,o),
(250,625,cs),
(347,625,l),
(347,700,l),
(244,700,ls),
(149,700,o),
(111,657,o),
(111,567,cs),
(111,0,l)
);
},
{
closed = 1;
nodes = (
(327,430,l),
(327,500,l),
(3,500,l),
(3,430,l)
);
}
);
width = 351;
},
{
anchors = (
{
name = bottom;
pos = (165,0);
},
{
name = top;
pos = (165,800);
}
);
background = {
shapes = (
{
closed = 1;
nodes = (
(161,0,l),
(161,615,ls),
(161,647,o),
(179,665,o),
(211,665,cs),
(309,665,l),
(309,700,l),
(210,700,ls),
(152,700,o),
(120,668,o),
(120,610,cs),
(120,0,l)
);
},
{
closed = 1;
nodes = (
(309,465,l),
(309,500,l),
(8,500,l),
(8,465,l)
);
}
);
};
layerId = "18A01495-E50D-4F2B-A1D8-5C332C731D93";
shapes = (
{
closed = 1;
nodes = (
(161,0,l),
(161,615,ls),
(161,647,o),
(179,665,o),
(211,665,cs),
(309,665,l),
(309,700,l),
(210,700,ls),
(152,700,o),
(120,668,o),
(120,610,cs),
(120,0,l)
);
},
{
closed = 1;
nodes = (
(309,465,l),
(309,500,l),
(8,500,l),
(8,465,l)
);
}
);
width = 330;
},
{
anchors = (
{
name = bottom;
pos = (114,0);
},
{
name = top;
pos = (270,800);
}
);
background = {
shapes = (
{
closed = 1;
nodes = (
(102,0,l),
(222,615,ls),
(228,647,o),
(249,665,o),
(281,665,cs),
(374,665,l),
(381,700,l),
(287,700,ls),
(229,700,o),
(191,668,o),
(180,610,cs),
(61,0,l)
);
},
{
closed = 1;
nodes = (
(336,465,l),
(342,500,l),
(61,500,l),
(55,465,l)
);
}
);
};
layerId = "047DE625-588D-43A1-AE3A-C97924B5E3D3";
shapes = (
{
closed = 1;
nodes = (
(102,0,l),
(222,615,ls),
(228,647,o),
(249,665,o),
(281,665,cs),
(374,665,l),
(381,700,l),
(287,700,ls),
(229,700,o),
(191,668,o),
(180,610,cs),
(61,0,l)
);
},
{
closed = 1;
nodes = (
(336,465,l),
(342,500,l),
(61,500,l),
(55,465,l)
);
}
);
width = 326;
},
{
anchors = (
{
name = bottom;
pos = (124,0);
},
{
name = top;
pos = (280,800);
}
);
background = {
shapes = (
{
closed = 1;
nodes = (
(133,0,l),
(243,565,ls),
(251,604,o),
(276,625,o),
(315,625,cs),
(388,625,l),
(402,700,l),
(316,700,ls),
(232,700,o),
(177,654,o),
(161,570,cs),
(50,0,l)
);
},
{
closed = 1;
nodes = (
(350,430,l),
(363,500,l),
(59,500,l),
(46,430,l)
);
}
);
};
layerId = "AB33B01D-3E13-404E-935A-045AA6D07EB8";
shapes = (
{
closed = 1;
nodes = (
(133,0,l),
(243,565,ls),
(251,604,o),
(276,625,o),
(315,625,cs),
(388,625,l),
(402,700,l),
(316,700,ls),
(232,700,o),
(177,654,o),
(161,570,cs),
(50,0,l)
);
},
{
closed = 1;
nodes = (
(350,430,l),
(363,500,l),
(59,500,l),
(46,430,l)
);
}
);
width = 345;
},
{
anchors = (
{
name = bottom;
pos = (212,0);
},
{
name = top;
pos = (212,800);
}
);
background = {
shapes = (
{
closed = 1;
nodes = (
(273,0,l),
(272,520,ls),
(272,552,o),
(290,570,o),
(322,570,cs),
(404,570,l),
(404,700,l),
(269,700,ls),
(156,700,o),
(94,638,o),
(94,525,cs),
(94,0,l)
);
},
{
closed = 1;
nodes = (
(394,370,l),
(394,500,l),
(17,500,l),
(17,370,l)
);
}
);
};
guides = (
{
pos = (431,635);
}
);
layerId = "9D32FE6F-9470-45EF-9689-909A6F5CE504";
shapes = (
{
closed = 1;
nodes = (
(273,0,l),
(272,520,ls),
(272,552,o),
(290,570,o),
(322,570,cs),
(404,570,l),
(404,700,l),
(269,700,ls),
(156,700,o),
(94,638,o),
(94,525,cs),
(94,0,l)
);
},
{
closed = 1;
nodes = (
(394,370,l),
(394,500,l),
(17,500,l),
(17,370,l)
);
}
);
width = 424;
},
{
anchors = (
{
name = bottom;
pos = (155,0);
},
{
name = top;
pos = (311,800);
}
);
background = {
shapes = (
{
closed = 1;
nodes = (
(213,0,l),
(314,520,ls),
(320,552,o),
(341,570,o),
(373,570,cs),
(441,570,l),
(466,700,l),
(345,700,ls),
(232,700,o),
(158,638,o),
(136,525,cs),
(34,0,l)
);
},
{
closed = 1;
nodes = (
(406,370,l),
(431,500,l),
(54,500,l),
(29,370,l)
);
}
);
};
layerId = "69B5B248-E33C-46C9-9D9F-11585640C213";
shapes = (
{
closed = 1;
nodes = (
(213,0,l),
(314,520,ls),
(320,552,o),
(341,570,o),
(373,570,cs),
(441,570,l),
(466,700,l),
(345,700,ls),
(232,700,o),
(158,638,o),
(136,525,cs),
(34,0,l)
);
},
{
closed = 1;
nodes = (
(406,370,l),
(431,500,l),
(54,500,l),
(29,370,l)
);
}
);
width = 407;
}
);
note = f;
unicode = 102;
},
